<?xml version="1.0" encoding="UTF-8"?>
<svg width="66px" height="65px" viewBox="0 0 66 65" version="1.1" xmlns="http://www.w3.org/2000/svg" xmlns:xlink="http://www.w3.org/1999/xlink">
    <title>DE701EC5-0C6A-4D21-8793-1C6868DB68AE</title>
    <defs>
        <linearGradient x1="50%" y1="0%" x2="50%" y2="100%" id="linearGradient-1">
            <stop stop-color="#FFFFFF" offset="0%"></stop>
            <stop stop-color="#33A566" offset="100%"></stop>
        </linearGradient>
    </defs>
    <g id="Landing-Page-" stroke="none" stroke-width="1" fill="none" fill-rule="evenodd">
        <g id="Landing-page-v2/1-" transform="translate(-1224.000000, -2848.000000)">
            <g id="Group-25" transform="translate(170.000000, 2491.000000)">
                <g id="Group-8" transform="translate(0.000000, 320.000000)">
                    <g id="Group-5" transform="translate(747.308943, 37.000000)">
                        <g id="Hints" transform="translate(307.650407, 0.000000)">
                            <rect id="icon-fild-copy" x="0" y="0" width="65.0406504" height="64"></rect>
                            <polygon id="Path_4512" fill="url(#linearGradient-1)" fill-rule="nonzero" opacity="0.1" points="0 0 0 42.3056 21.1815718 56 65.0406504 30.4744 65.0406504 0"></polygon>
                            <g id="seo-and-web" transform="translate(0.000000, 16.000000)" fill-rule="nonzero">
                                <path d="M21.680271,4.46666667 C30.7583921,4.46666667 38.1436314,11.7337756 38.1436314,20.6667199 C38.1436314,29.5995744 30.7583751,36.8666667 21.680271,36.8666667 C12.6020755,36.8666667 5.21680217,29.5995911 5.21680217,20.6667199 C5.21680217,11.7337589 12.6020585,4.46666667 21.680271,4.46666667 Z M21.680271,5.71919578 C13.3042876,5.71919578 6.48969761,12.4247198 6.48969761,20.6666134 C6.48969761,28.90847 13.3043583,35.614031 21.680271,35.614031 C30.0561836,35.614031 36.870736,28.9085766 36.870736,20.6667199 C36.870736,12.4247849 30.0562122,5.71919578 21.680271,5.71919578 Z" id="Shape" fill="#32AD71"></path>
                                <path d="M27.330396,36.4666667 C27.6560408,36.4666667 27.927318,36.6986606 27.9739499,37.0028632 L27.9810298,37.0961304 L27.9810298,40.0124039 C27.9810298,40.9106232 27.402951,41.6917902 26.5716229,42.0110413 L26.4128604,42.0654036 L26.2693089,42.103 L26.2701299,46.0463695 C26.2701299,47.131796 25.432211,48.0305099 24.3476891,48.1786006 L24.1911436,48.1945893 L24.0316262,48.2 L18.6514125,48.2 C17.4716567,48.2 16.5007422,47.3172444 16.418545,46.2000993 L16.4129088,46.0463695 L16.4126016,42.103 L16.2701835,42.0654402 C15.4594662,41.8207611 14.854916,41.1480879 14.7270175,40.3346563 L14.7078733,40.1701783 L14.701897,40.0124039 L14.701897,37.0961304 C14.701897,36.7473793 14.9943215,36.4666667 15.3525309,36.4666667 C15.6781757,36.4666667 15.9494529,36.6986606 15.9960848,37.0028632 L16.0031647,37.0961304 L16.0031647,40.0124039 C16.0031647,40.4695141 16.3648745,40.8495288 16.830988,40.9014845 L16.9402889,40.9075365 L25.7427498,40.9075365 C26.2233776,40.9075365 26.619345,40.5601955 26.6734596,40.116413 L26.6797621,40.0124039 L26.6797621,37.0961304 C26.6797621,36.7473793 26.9721866,36.4666667 27.330396,36.4666667 Z M24.9684959,42.166 L17.7134146,42.166 L17.7134146,43.119 L21.3414075,43.1197042 C21.6670523,43.1197042 21.9383296,43.3516981 21.9849614,43.6559007 L21.9920413,43.7491679 C21.9920413,44.0662144 21.7503682,44.3270307 21.4372996,44.3718316 L21.3414075,44.3786317 L17.7134146,44.378 L17.7134146,44.615 L21.3414075,44.6150969 C21.6670523,44.6150969 21.9383296,44.8470908 21.9849614,45.1512934 L21.9920413,45.2445607 C21.9920413,45.5616071 21.7503682,45.8224234 21.4372996,45.8672244 L21.3414075,45.8740244 L17.7134146,45.874 L17.7141764,46.0462621 C17.7141764,46.503161 18.0758762,46.8829865 18.5420872,46.9349162 L18.6514125,46.9409652 L24.0316262,46.9409652 C24.512394,46.9409652 24.9084343,46.5937753 24.9625586,46.150218 L24.9688622,46.0462621 L24.9684959,42.166 Z" id="Shape" fill="#32AD71"></path>
                                <path d="M29.5954275,14.6551322 L18.2997967,25.988 L13.0875022,20.7579537 C12.8368275,20.5066228 12.4288461,20.5065729 12.178285,20.7579508 C11.9297164,21.0071701 11.9297164,21.4098381 12.1783305,21.6591031 L17.8452493,27.3447141 C17.9654499,27.4653066 18.129094,27.5333333 18.2999139,27.5333333 C18.4706782,27.5333333 18.6341737,27.4653506 18.754481,27.3448119 L30.5046419,15.5563486 C30.7532028,15.3069773 30.7532028,14.9044537 30.5045963,14.6551963 C30.2542211,14.4038439 29.8459492,14.4037939 29.5954275,14.6551322 Z" id="Path" fill="#32AD71"></path>
                                <g id="Group" fill="#F9B122">
                                    <path d="M8.48759542,34.6799882 C8.72981568,34.4272391 9.14930498,34.3950424 9.43488877,34.6050788 C9.66501477,34.7742281 9.74611354,35.0563464 9.63818205,35.3144756 L9.58876882,35.4098821 L9.52037936,35.4961021 L7.77260295,37.3199995 C7.64043466,37.4579839 7.45172529,37.5333333 7.25593749,37.5333333 C7.10077335,37.5333333 6.94913571,37.4859155 6.82531996,37.3949802 C6.59515296,37.2258008 6.51404963,36.9436791 6.62198061,36.6855495 L6.67139378,36.590143 L6.73978324,36.503923 L8.48759542,34.6799882 Z M33.2479114,34.605045 C33.4638998,34.4463465 33.7594607,34.4245724 33.9968681,34.5375009 L34.0946522,34.5941394 L34.195126,34.6798025 L35.9430956,36.5037968 C36.19797,36.769778 36.1576669,37.1743138 35.8577632,37.3949051 C35.7340057,37.4858174 35.5822443,37.5333333 35.4271281,37.5333333 C35.3113796,37.5333333 35.197457,37.5068942 35.0902684,37.4515188 L34.9855061,37.3864055 L34.9106901,37.3201406 L33.1625955,35.4961412 C32.9077211,35.23016 32.9480242,34.8256242 33.2479114,34.605045 Z M5.37842033,29.2532453 C5.68257942,29.0062184 6.07707083,29.1549426 6.23320864,29.534663 C6.33864576,29.7912156 6.31854232,30.1022346 6.17863044,30.3408802 L6.1113497,30.4383561 L6.03037886,30.5185641 L4.10666524,32.0800918 C4.01059923,32.1581037 3.89787133,32.2 3.78106755,32.2 C3.55102005,32.2 3.35178442,32.0417729 3.25187236,31.7986328 C3.14644736,31.5421097 3.16655232,31.2310944 3.30646439,30.9924492 L3.37374515,30.8949734 L3.45471599,30.8147654 L5.37842033,29.2532453 Z M36.4496005,29.5348403 C36.5723787,29.2357508 36.8456901,29.0732219 37.1141636,29.1521505 L37.2032625,29.1875468 L37.3042247,29.2532379 L39.2282302,30.8146416 C39.488894,31.0263128 39.5710875,31.45765 39.4311735,31.7984824 C39.3313957,32.0416818 39.1320515,32.2 38.901965,32.2 C38.8500731,32.2 38.7986917,32.1916968 38.7433552,32.1721218 L38.6568259,32.1339344 L38.5765341,32.0801217 L36.6525286,30.5187181 C36.3918648,30.3070469 36.3096713,29.8757097 36.4496005,29.5348403 Z M2.82616122,23.1433192 C3.18074792,23.0808251 3.51878323,23.3168697 3.58092489,23.6685016 C3.62925238,23.9426792 3.49594601,24.2116607 3.24764412,24.3479287 L3.14927065,24.3925591 L3.05339865,24.4175759 L0.561009014,24.8566741 C0.523024313,24.8632917 0.484991349,24.8666667 0.4472233,24.8666667 C0.132698215,24.8666667 -0.138608613,24.6415278 -0.193355178,24.3314217 C-0.241802642,24.0572791 -0.108570078,23.7882846 0.139794138,23.6519529 L0.238197538,23.6072961 L0.334179891,23.5822341 L2.82616122,23.1433192 Z M39.7578173,23.134062 L39.8567285,23.1431937 L42.348695,23.5820091 C42.7029687,23.6444593 42.9383116,23.9801226 42.87628,24.3312487 C42.8274942,24.6070194 42.6077516,24.8155774 42.3321277,24.8583733 L42.2263741,24.8664592 L42.169661,24.8631448 L39.6296248,24.4177922 C39.2753511,24.355342 39.0400082,24.0196787 39.1020497,23.6684964 C39.1435758,23.4341585 39.3096224,23.2459978 39.5403418,23.1681075 L39.6430067,23.141664 L39.7211088,23.1342633 L39.7578173,23.134062 Z M0.462686074,17.1340793 L0.561368007,17.1432835 L3.05333186,17.5821062 C3.40753399,17.6445449 3.64281101,17.9802416 3.58091605,18.3313538 C3.53213188,18.6071198 3.31239655,18.8155984 3.03697436,18.8583859 L2.93130584,18.8664723 L2.8745832,18.8632382 L0.334279209,18.4178993 C-0.0201102732,18.3554563 -0.255518342,18.019644 -0.193329012,17.6686946 C-0.151904142,17.4342074 0.0142198109,17.2458515 0.245061545,17.1680021 L0.347781158,17.1415915 L0.42589239,17.1342469 L0.462686074,17.1340793 Z M42.1213901,17.1433826 C42.4765868,17.0806837 42.8140838,17.3167197 42.8762834,17.6685263 C42.9247264,17.9426501 42.7914558,18.2115778 42.5431219,18.3478853 L42.4447333,18.3925352 L42.3487826,18.4175942 L39.8572818,18.8565266 C39.819322,18.8633013 39.7808951,18.8666667 39.7426633,18.8666667 C39.4281117,18.8666667 39.1569201,18.6416179 39.1019888,18.3313645 C39.053671,18.0573616 39.1869624,17.7884364 39.4352072,17.6521113 L39.5335573,17.607454 L39.6295048,17.5823833 L42.1213901,17.1433826 Z M3.2518098,10.2014339 C3.37455954,9.90237518 3.64767379,9.74000291 3.9161651,9.81876293 L4.00527838,9.85409037 L4.10645534,9.91979868 L6.03033454,11.4812436 C6.29105821,11.6927992 6.37325245,12.124196 6.23334386,12.4652375 C6.13357799,12.7084394 5.9342274,12.8666667 5.70412513,12.8666667 C5.65227093,12.8666667 5.60092207,12.8583751 5.54562332,12.8388442 L5.45915587,12.8007499 L5.37868318,12.7469097 L3.45473429,11.1854082 C3.19403513,10.9736808 3.11179506,10.5422471 3.2518098,10.2014339 Z M38.5764559,9.91990012 C38.8805675,9.67298831 39.2750534,9.82145962 39.4311262,10.2012476 C39.5364731,10.4578316 39.5163317,10.7688379 39.3764323,11.0074646 L39.30916,11.1049322 L39.2281832,11.1851503 L37.304323,12.7467502 C37.2082507,12.8247728 37.0956216,12.8666667 36.9788223,12.8666667 C36.7487681,12.8666667 36.549531,12.7085434 36.4496087,12.4653607 C36.3442827,12.2088278 36.3644267,11.8978279 36.5043264,11.6592019 L36.5715988,11.5617345 L36.6525756,11.4815164 L38.5764559,9.91990012 Z M6.82528485,4.60497988 C7.04113241,4.4463553 7.3367699,4.42455886 7.57420222,4.53754393 L7.67199303,4.59421207 L7.77248395,4.67994008 L9.52042262,6.50403911 C9.77526765,6.76997242 9.73483701,7.17453033 9.43493708,7.39494925 C9.31126535,7.48590367 9.15959583,7.53333333 9.00429323,7.53333333 C8.88850522,7.53333333 8.77452195,7.50688379 8.66728569,7.45147443 L8.56248146,7.38631881 L8.48767865,7.32003267 L6.73973998,5.49593365 C6.48489495,5.23000034 6.5253256,4.82544243 6.82528485,4.60497988 Z M34.910334,4.68004296 C35.1524712,4.42725972 35.5718726,4.39507741 35.8576004,4.60492402 C36.0877313,4.77403858 36.168864,5.05611624 36.0609708,5.31420154 L36.011572,5.40959139 L35.9432054,5.49578268 L34.1953517,7.32004045 C34.0631706,7.45802256 33.8745817,7.53333333 33.6787325,7.53333333 C33.5235689,7.53333333 33.371979,7.48598755 33.2480446,7.39511991 C33.0179547,7.22603547 32.9368264,6.94396116 33.0447202,6.68587624 L33.0941191,6.59048643 L33.1624857,6.50429514 L34.910334,4.68004296 Z M13.827332,1.17064833 C14.1129985,1.07917229 14.4278849,1.16057467 14.6180302,1.36666568 L14.6831868,1.44970047 L14.7407721,1.55811723 L15.7397426,3.97957275 C15.8831813,4.32760377 15.6820189,4.70826396 15.305576,4.82923034 C15.2278328,4.85417635 15.1468411,4.86666667 15.0658678,4.86666667 C14.8521506,4.86666667 14.6487001,4.77992056 14.5061071,4.62015056 L14.4401163,4.53424376 L14.3920192,4.44179885 L13.3930487,2.02034333 C13.2496101,1.67231231 13.4507725,1.29165212 13.827332,1.17064833 Z M27.9420369,1.5582506 C28.0810617,1.22099971 28.4888417,1.05314649 28.8556231,1.1708136 C29.1527751,1.26610851 29.3452724,1.52579294 29.3323414,1.82246788 L29.3202843,1.92255478 L29.2897878,2.02042774 L28.2909421,4.44184396 C28.183672,4.70189455 27.9122375,4.86666667 27.6170751,4.86666667 C27.5358591,4.86666667 27.4549556,4.85422475 27.377291,4.82921264 C27.0802821,4.73379152 26.8878747,4.47420951 26.9007084,4.17763061 L26.9127259,4.07757516 L26.9432085,3.97962492 L27.9420369,1.5582506 Z M21.00271,-0.2 C21.3779482,-0.2 21.7148352,-0.0348716646 21.8395815,0.243514451 L21.8730681,0.340433403 L21.8834688,0.435601729 L21.8834688,2.8977316 C21.8834688,3.27104374 21.4755206,3.53333333 21.00271,3.53333333 C20.627446,3.53333333 20.2905664,3.36818542 20.1658329,3.08974778 L20.1323507,2.99281046 L20.1219512,2.8976227 L20.1219512,0.435601729 C20.1219512,0.0622895929 20.5298995,-0.2 21.00271,-0.2 Z" id="Combined-Shape"></path>
                                </g>
                            </g>
                        </g>
                    </g>
                </g>
            </g>
        </g>
    </g>
</svg>