<?xml version="1.0" encoding="UTF-8"?>
<svg width="23px" height="23px" viewBox="0 0 28 28" version="1.1" xmlns="http://www.w3.org/2000/svg" xmlns:xlink="http://www.w3.org/1999/xlink">
    <title>EDD65BB8-DA45-4D31-B72E-1B04A24B9F36</title>
    <g id="Sprint-3" stroke="none" stroke-width="1" fill="none" fill-rule="evenodd">
        <g id="2.-Primary-Awarding" transform="translate(-1265.000000, -688.000000)" fill="#005B4F">
            <g id="Cards/Moniter-Auction" transform="translate(1059.000000, 536.000000)">
                <g id="Cards/tiny-card-Copy" transform="translate(159.800000, 124.800000)">
                    <g id="Group-24" transform="translate(6.300000, 28.026087)">
                        <g id="Icons/auction" transform="translate(40.600000, 0.000000)">
                            <g id="law-(1)" transform="translate(0.000000, -0.000000)">
                                <path d="M15.42777,20.6521739 L1.96353436,20.6521739 C0.880785414,20.6521739 0,21.583004 0,22.7272727 L0,25.0988142 C0,26.243083 0.880785414,27.173913 1.96353436,27.173913 L15.42777,27.173913 C16.5105189,27.173913 17.3913043,26.243083 17.3913043,25.0988142 L17.3913043,22.7272727 C17.3913043,21.583004 16.5105189,20.6521739 15.42777,20.6521739 Z M15.7082749,25.0988142 C15.7082749,25.2624506 15.5826087,25.3952569 15.42777,25.3952569 L1.96353436,25.3952569 C1.80869565,25.3952569 1.68302945,25.2624506 1.68302945,25.0988142 L1.68302945,22.7272727 C1.68302945,22.5636364 1.80869565,22.43083 1.96353436,22.43083 L15.42777,22.43083 C15.5826087,22.43083 15.7082749,22.5636364 15.7082749,22.7272727 L15.7082749,25.0988142 Z" id="Shape"></path>
                                <path d="M17.0744376,11.0176805 C17.6437325,10.326087 18.1197004,9.62049823 18.3740166,8.97322262 C18.3821827,8.97322262 18.3903488,8.97555514 18.3973483,8.97555514 C18.9176466,8.97555514 19.4391114,8.77729054 19.8345847,8.38076134 L20.6535294,7.56321142 C21.4468093,6.77015301 21.4468093,5.4814331 20.6535294,4.6883747 L16.5588057,0.594793805 C15.7655259,-0.198264602 14.4764462,-0.198264602 13.684333,0.594793805 L12.8653882,1.41350998 C12.4652486,1.81353797 12.2680952,2.3395223 12.2727615,2.86550662 C11.8866209,3.02061952 11.5564765,3.22704796 11.3744888,3.34250793 C9.76576402,4.36532002 7.62507512,6.50657772 6.60314407,8.11485352 C6.48765186,8.29445792 6.28233238,8.62334391 6.12834277,9.00704422 C5.6022116,9.00354544 5.07608043,9.19947751 4.67477417,9.5995055 L3.85699601,10.4193879 C3.47318857,10.8030883 3.26086957,11.3127449 3.26086957,11.8562232 C3.26086957,12.3997014 3.47318857,12.9093581 3.85699601,13.2930584 L7.95171975,17.3866393 C8.34835965,17.7831685 8.86865788,17.9814331 9.38895611,17.9814331 C9.90925434,17.9814331 10.4307192,17.7831685 10.8261925,17.3866393 L11.6451372,16.5679231 C12.0464435,16.1667289 12.2435968,15.6372458 12.2377639,15.1100952 C12.6204048,14.9561485 12.9517157,14.7567177 13.1313703,14.642424 C13.4871796,14.4161691 13.8756534,14.126936 14.2757931,13.8003825 C17.2237608,17.2326927 21.4351434,21.861588 22.1910924,22.6184923 C22.8607139,23.2879269 23.7368214,23.9130435 24.672425,23.9130435 C25.2312206,23.9130435 25.813348,23.6891211 26.3838095,23.1176525 C26.5937953,22.9077253 27.0837623,22.4178951 27.1630903,21.6271692 C27.2494178,20.7688001 26.8189468,19.8591155 25.8845099,18.9261056 C25.1378936,18.1761989 20.5182052,13.9741556 17.0744376,11.0176805 L17.0744376,11.0176805 Z M14.1019715,2.64974809 L14.9209162,1.83103191 C14.9757458,1.77621758 15.0480743,1.74822728 15.1215693,1.74822728 C15.1938978,1.74822728 15.2673928,1.77621758 15.3222225,1.83103191 L19.4169462,5.9246128 C19.5277721,6.03540773 19.5277721,6.21501213 19.4169462,6.32580705 L18.5980015,7.14335697 C18.4871756,7.25298563 18.3075211,7.25298563 18.1966952,7.14335697 L14.1019715,3.04977608 C13.9923122,2.93898115 13.9923122,2.76054301 14.1019715,2.64974809 L14.1019715,2.64974809 Z M10.4073874,15.3305188 L9.58844266,16.1492349 C9.4776168,16.2576973 9.29796225,16.2576973 9.18830299,16.1492349 L5.09357925,12.055654 C5.0212508,11.9833458 5.0107515,11.8993749 5.0107515,11.8562232 C5.0107515,11.8130715 5.0212508,11.7291006 5.09357925,11.655626 L5.912524,10.8369099 C5.96735363,10.7820955 6.04084867,10.7541052 6.11317713,10.7541052 C6.18550558,10.7541052 6.25900062,10.7820955 6.31383025,10.8369099 L10.408554,14.9304908 C10.5182133,15.0401194 10.5182133,15.2208901 10.4073874,15.3305188 Z M11.4911476,13.5391398 L7.7044031,9.75345214 C8.0147155,8.48222616 11.7466304,4.7501866 13.0182113,4.43996081 L16.8049558,8.22564844 C16.4981431,9.48987684 12.7615619,13.2300802 11.4911476,13.5391398 L11.4911476,13.5391398 Z M25.1483929,21.8814144 C24.8905769,22.1403247 24.5371008,22.4878709 23.4288422,21.3810879 C22.7743864,20.7268147 18.6155003,16.1702277 15.5765386,12.6294551 C15.6290351,12.5781396 15.8425207,12.3682124 15.8961837,12.313398 C19.4496107,15.3608416 23.9993037,19.5139018 24.6479266,20.1611775 C25.3898766,20.9029203 25.4365401,21.3099459 25.422541,21.4510636 C25.408542,21.6096753 25.2953829,21.7344654 25.1483929,21.8814144 L25.1483929,21.8814144 Z" id="Shape"></path>
                            </g>
                        </g>
                    </g>
                </g>
            </g>
        </g>
    </g>
</svg>