<?xml version="1.0" encoding="UTF-8"?>
<svg width="65px" height="64px" viewBox="0 0 65 64" version="1.1" xmlns="http://www.w3.org/2000/svg" xmlns:xlink="http://www.w3.org/1999/xlink">
    <title>4E7110FB-8B00-4935-B15C-8197F5567DFB</title>
    <g id="Sprint-3" stroke="none" stroke-width="1" fill="none" fill-rule="evenodd">
        <g id="Invoice---Delivery-address-for-each-product" transform="translate(-634.000000, -652.000000)" fill-rule="nonzero">
            <g id="Group-7" transform="translate(291.000000, 288.000000)">
                <g id="Group-24-Copy" transform="translate(0.000000, 67.000000)">
                    <g id="Group-5" transform="translate(48.000000, 48.000000)">
                        <g id="Group-2" transform="translate(1.021711, 217.000000)" style="mix-blend-mode: luminosity;">
                            <g id="icons/-card-copy" transform="translate(294.293964, 32.000000)">
                                <g id="Icons/Services/AR/Banking-cards-[AR]" transform="translate(8.000000, 12.000000)">
                                    <g transform="translate(24.500000, 20.000000) scale(-1, 1) translate(-24.500000, -20.000000) ">
                                        <path d="M25.7393103,27.3531034 L38.6082759,27.3531034 C38.8252754,27.3661186 39.0374607,27.2855855 39.1911783,27.1318679 C39.3448958,26.9781503 39.4254289,26.765965 39.4124138,26.5489655 L39.4124138,19.3103448 C39.4254289,19.0933453 39.3448958,18.88116 39.1911783,18.7274424 C39.0374607,18.5737249 38.8252754,18.4931918 38.6082759,18.5062069 L25.7393103,18.5062069 C25.5223108,18.4931918 25.3101255,18.5737249 25.156408,18.7274424 C25.0026904,18.88116 24.9221573,19.0933453 24.9351724,19.3103448 L24.9351724,26.5489655 C24.9221573,26.765965 25.0026904,26.9781503 25.156408,27.1318679 C25.3101255,27.2855855 25.5223108,27.3661186 25.7393103,27.3531034 Z M26.5434483,20.1144828 L37.8041379,20.1144828 L37.8041379,25.7448276 L26.5434483,25.7448276 L26.5434483,20.1144828 Z" id="Path_4847" fill="#404142"></path>
                                        <path d="M4.02206897,16.8910345 L10.4565517,16.8910345 C10.9006648,16.8910345 11.2606897,16.5310097 11.2606897,16.0868966 C11.2606897,15.6427834 10.9006648,15.2827586 10.4565517,15.2827586 L4.02206897,15.2827586 C3.57795585,15.2827586 3.21793103,15.6427834 3.21793103,16.0868966 C3.21793103,16.5310097 3.57795585,16.8910345 4.02206897,16.8910345 Z" id="Path_4848" fill="#404142"></path>
                                        <path d="M13.6731034,16.8910345 L20.1075862,16.8910345 C20.5516993,16.8910345 20.9117241,16.5310097 20.9117241,16.0868966 C20.9117241,15.6427834 20.5516993,15.2827586 20.1075862,15.2827586 L13.6731034,15.2827586 C13.2289903,15.2827586 12.8689655,15.6427834 12.8689655,16.0868966 C12.8689655,16.5310097 13.2289903,16.8910345 13.6731034,16.8910345 Z" id="Path_4849" fill="#404142"></path>
                                        <path d="M4.02206897,20.1089655 L14.4813793,20.1089655 C14.9254924,20.1089655 15.2855172,19.7489407 15.2855172,19.3048276 C15.2855172,18.8607145 14.9254924,18.5006897 14.4813793,18.5006897 L4.02206897,18.5006897 C3.57795585,18.5006897 3.21793103,18.8607145 3.21793103,19.3048276 C3.21793103,19.7489407 3.57795585,20.1089655 4.02206897,20.1089655 Z" id="Path_4850" fill="#404142"></path>
                                        <path d="M20.1089655,18.4993103 L17.6965517,18.4993103 C17.2524386,18.4993103 16.8924138,18.8593352 16.8924138,19.3034483 C16.8924138,19.7475614 17.2524386,20.1075862 17.6965517,20.1075862 L20.1089655,20.1075862 C20.5530786,20.1075862 20.9131034,19.7475614 20.9131034,19.3034483 C20.9131034,18.8593352 20.5530786,18.4993103 20.1089655,18.4993103 Z" id="Path_4851" fill="#404142"></path>
                                        <path d="M47.5365517,8.53241379 C47.0211689,7.8347164 46.2288002,7.39451161 45.3641379,7.32551724 L43.4331034,7.09103448 L43.4331034,3.22896552 C43.4285552,1.45363864 41.9904993,0.0155827379 40.2151724,0.0110344828 L3.21793103,0.0110344828 C1.44688894,0.0155458821 0.0105947969,1.44691489 0,3.21793103 L0,28.9558621 C0.00475514876,30.3794658 0.940894039,31.6321328 2.30482759,32.04 C2.26670354,33.6852864 3.50880764,35.0792635 5.14758621,35.2303448 L42.3089655,39.4125961 L42.6303448,39.4125961 C44.2344888,39.4293593 45.606528,38.2631553 45.8482759,36.6772414 L48.2606897,10.857931 C48.3435458,10.0167468 48.0823238,9.17785087 47.5365517,8.53241379 Z M1.60827586,5.63586207 L41.8262069,5.63586207 L41.8262069,10.4634483 L1.60827586,10.4634483 L1.60827586,5.63586207 Z M3.21793103,1.60827586 L40.217931,1.60827586 C41.1049003,1.61130309 41.8231797,2.32958244 41.8262069,3.21655172 L41.8262069,4.02068966 L1.60827586,4.02068966 L1.60827586,3.21655172 C1.61130718,2.3290461 2.33042314,1.61054635 3.21793103,1.60827586 L3.21793103,1.60827586 Z M1.60827586,28.9558621 L1.60827586,12.0648276 L41.8262069,12.0648276 L41.8262069,28.9558621 C41.8231797,29.8428314 41.1049003,30.5611107 40.217931,30.5641379 L3.21793103,30.5641379 C2.33042314,30.5618674 1.61130718,29.8433677 1.60827586,28.9558621 Z M46.6524138,10.5365517 L44.2386207,36.3558621 C44.1472043,37.2430347 43.3566945,37.8899834 42.4689655,37.8041379 L5.38896552,33.622069 C4.62464825,33.5421522 4.02060646,32.9381104 3.94068966,32.1737931 L40.2165517,32.1737931 C41.9918786,32.1692448 43.4299345,30.7311889 43.4344828,28.9558621 L43.4344828,8.60689655 L45.2841379,8.76827586 C45.6996804,8.78858362 46.0838564,8.99536961 46.3296552,9.33103448 C46.5930065,9.67409484 46.7091243,10.1077998 46.6524138,10.5365517 L46.6524138,10.5365517 Z" id="Path_4852" fill="#404142"></path>
                                    </g>
                                </g>
                            </g>
                        </g>
                    </g>
                </g>
            </g>
        </g>
    </g>
</svg>