<?xml version="1.0" encoding="UTF-8"?><svg version="1.1" width="32px" height="34px" viewBox="0 0 22.0 24.0" xmlns="http://www.w3.org/2000/svg" xmlns:xlink="http://www.w3.org/1999/xlink"><defs><clipPath id="i0"><path d="M7.14286327,0 C11.1483612,0 14.2857265,2.07269056 14.2857265,4.72682536 L14.2857265,8.72711813 C17.4485584,8.71827167 20.2944884,10.6321909 21.4591778,13.5513429 C22.6238672,16.4704949 21.8699051,19.7998385 19.5587409,21.9432863 C17.2475768,24.0867341 13.8503194,24.6073648 10.9956138,23.255588 C9.7739528,23.7553643 8.46416467,24.0082914 7.14286327,23.9997927 C3.13736533,23.9997927 0,21.9268843 0,19.2727495 L0,4.72682536 C0,2.07269056 3.13736533,0 7.14286327,0 Z M14.2857265,10.9088977 C11.2526985,10.9125043 8.79484943,13.3524328 8.79121634,16.3633465 C8.79121634,19.3757554 11.2511923,21.8177953 14.2857265,21.8177953 C17.3202607,21.8177953 19.7802368,19.3757554 19.7802368,16.3633465 C19.7802368,13.3509376 17.3202607,10.9088977 14.2857265,10.9088977 Z M2.19780408,17.8589564 L2.19780408,19.2727495 C2.19780408,20.4760009 4.22857506,21.8177953 7.14286327,21.8177953 C7.68477442,21.8156185 8.22526829,21.7626572 8.75715037,21.6596163 C8.05472981,20.9372889 7.50246567,20.0847221 7.13187425,19.1505699 C5.39803693,19.1851869 3.68899445,18.7378032 2.19780408,17.8589564 Z M2.19780408,13.0110422 L2.19780408,14.4237445 C2.19780408,15.5528154 3.99560782,16.7887935 6.62308261,16.9393363 C6.60879688,16.7484306 6.59341225,16.5575249 6.59341225,16.3633465 C6.59500908,15.6622862 6.69411358,14.9648025 6.887918,14.2906559 C5.23729761,14.2889442 3.61745957,13.8470003 2.19780408,13.0110422 Z M12.0879225,8.16203724 C10.593565,9.04302072 8.88049283,9.49084063 7.14286327,9.45474161 C5.40523372,9.49084063 3.6921615,9.04302072 2.19780408,8.16203724 L2.19780408,9.57583037 C2.19780408,10.7790818 4.22857506,12.1208762 7.14286327,12.1208762 C7.40989647,12.1208762 7.67033625,12.0881495 7.93297384,12.0652408 C8.93041283,10.619518 10.3968814,9.55685131 12.0879225,9.05438506 Z M7.14286327,2.18177953 C4.22857506,2.18177953 2.19780408,3.52248306 2.19780408,4.72682536 C2.19780408,5.93116766 4.22857506,7.27296208 7.14286327,7.27296208 C10.0571515,7.27296208 12.0879225,5.93007677 12.0879225,4.72682536 C12.0879225,3.52357395 10.0571515,2.18177953 7.14286327,2.18177953 Z"></path></clipPath></defs><g transform="translate(-1.0 0.0)"><g transform="translate(1.0 0.0)"><g clip-path="url(#i0)"><polygon points="0,0 22,0 22,24 0,24 0,0" stroke="none" fill="#31AD71"></polygon></g></g></g></svg>