<?xml version="1.0" encoding="UTF-8"?><svg version="1.1" width="20px" height="20px" viewBox="0 0 23.0 23.0" xmlns="http://www.w3.org/2000/svg" xmlns:xlink="http://www.w3.org/1999/xlink"><defs><clipPath id="i0"><path d="M16.1,0 C16.7351275,0 17.25,0.514872538 17.25,1.15 L17.25,3.45 L21.85,3.45 C22.4851275,3.45 23,3.96487254 23,4.6 L23,21.85 C23,22.4851275 22.4851275,23 21.85,23 L1.15,23 C0.514872538,23 0,22.4851275 0,21.85 L0,4.6 C0,3.96487254 0.514872538,3.45 1.15,3.45 L5.75,3.45 L5.75,1.15 C5.75,0.514872538 6.26487254,0 6.9,0 C7.53512746,0 8.05,0.514872538 8.05,1.15 L8.05,3.45 L14.95,3.45 L14.95,1.15 C14.95,0.514872538 15.4648725,0 16.1,0 Z M20.7,11.5 L2.3,11.5 L2.3,20.7 L20.7,20.7 L20.7,11.5 Z M20.7,5.75 L2.3,5.75 L2.3,9.2 L20.7,9.2 L20.7,5.75 Z"></path></clipPath></defs><g clip-path="url(#i0)"><polygon points="0,0 23,0 23,23 0,23 0,0" stroke="none" fill="#005B4F"></polygon></g></svg>