<svg xmlns="http://www.w3.org/2000/svg" width="16.001" height="14" viewBox="0 0 16.001 14"><g id="checked" fill="#32ad71"><path d="M3.462 12.5c-.362 0-.89-.1-1.351-.58l-.02-.02-.018-.021-3-3.36-.08-.089-.063-.1-.031-.049A1.952 1.952 0 0 1-1.5 7.12c0-.478.2-.972.534-1.32l.539-.56a1.86 1.86 0 0 1 2.7 0l.039.04.018.02.018.019L3.498 6.6l4.171-4.5.445-.481h.305a1.86 1.86 0 0 1 2.009.46l.538.56a1.9 1.9 0 0 1 .013 2.626l-4.51 4.865-1.637 1.77-.01.01-.009.01c-.461.48-.989.58-1.35.58z" transform="translate(3)"/><path d="M3.462 11c.115 0 .192-.04.269-.12L5.37 9.112 9.885 4.24a.397.397 0 0 0 0-.56l-.539-.56a.373.373 0 0 0-.27-.12.373.373 0 0 0-.268.12h-.039L3.615 8.68a.186.186 0 0 1-.134.06.186.186 0 0 1-.135-.06L1.231 6.32l-.039-.04a.373.373 0 0 0-.269-.12.373.373 0 0 0-.27.12l-.538.56A.441.441 0 0 0 0 7.12c0 .08.038.2.115.28l.077.12 3 3.36c.077.08.154.12.27.12m0 3c-.923 0-1.787-.37-2.432-1.04l-.039-.04-.036-.042-3-3.36-.16-.178-.128-.2v-.001A3.436 3.436 0 0 1-3 7.12c0-.87.347-1.73.953-2.36l.538-.56A3.393 3.393 0 0 1 .923 3.16c.91 0 1.796.38 2.432 1.04l.038.04.037.039.035.039.05.057L6.57 1.08l.89-.96h.735A3.33 3.33 0 0 1 9.077 0c.91 0 1.796.38 2.432 1.04l.538.56a3.394 3.394 0 0 1 .028 4.69L7.57 11.15l-1.639 1.77-.019.02-.019.02A3.348 3.348 0 0 1 3.462 14z" fill="#fff" transform="translate(3)"/></g></svg>