<?xml version="1.0" encoding="UTF-8"?>
<svg width="28px" height="28px" viewBox="0 0 28 28" version="1.1" xmlns="http://www.w3.org/2000/svg" xmlns:xlink="http://www.w3.org/1999/xlink">
    <title>1A159C34-294D-4A69-A7FE-E61FC344F2A4</title>
    <g id="Sprint-3" stroke="none" stroke-width="1" fill="none" fill-rule="evenodd">
        <g id="Manual-Auction" transform="translate(-1262.000000, -731.000000)" fill="#414042">
            <g id="Cards/Moniter-Auction" transform="translate(1057.000000, 448.000000)">
                <g id="Cards/tiny-card" transform="translate(160.000000, 254.800000)">
                    <g id="Group-24" transform="translate(6.199496, 29.136954)">
                        <g id="Icons/auction" transform="translate(39.662358, 0.000000)">
                            <path d="M9.53139207,0 C6.85639855,0 4.68764207,2.16875648 4.68764207,4.84375 C4.68764207,7.51874352 6.85639855,9.6875 9.53139207,9.6875 C12.2063856,9.6875 14.3751421,7.51874352 14.3751421,4.84375 C14.3751421,2.16875648 12.2063856,0 9.53139207,0 Z M9.53139207,1.875 C11.1708517,1.875 12.5001421,3.20429039 12.5001421,4.84375 C12.5001421,6.48320961 11.1708517,7.8125 9.53139207,7.8125 C7.89193246,7.8125 6.56264207,6.48320961 6.56264207,4.84375 C6.56264207,3.20429039 7.89193246,1.875 9.53139207,1.875 Z" id="Stroke-1"></path>
                            <path d="M8.75040354,7.8125 C10.4147409,7.8125 12.0100407,8.35855629 13.3925346,9.36919596 C13.8105238,9.67475714 13.9016647,10.2613106 13.5961035,10.6792998 C13.2905424,11.097289 12.7039889,11.18843 12.2859997,10.8828688 C11.2175079,10.101773 10.0072122,9.6875 8.75040354,9.6875 C5.43019237,9.6875 2.52872059,12.624813 1.86295353,16.7131816 C1.77973439,17.224217 1.29799589,17.5710306 0.786960476,17.4878115 C0.275925065,17.4045923 -0.0708885423,16.9228538 0.012330603,16.4118184 C0.816075382,11.4761508 4.43502214,7.8125 8.75040354,7.8125 Z" id="Stroke-3"></path>
                            <path d="M18.9063921,9.375 C16.2313986,9.375 14.0626421,11.5437565 14.0626421,14.21875 C14.0626421,16.8937435 16.2313986,19.0625 18.9063921,19.0625 C21.5813856,19.0625 23.7501421,16.8937435 23.7501421,14.21875 C23.7501421,11.5437565 21.5813856,9.375 18.9063921,9.375 Z M18.9063921,11.25 C20.5458517,11.25 21.8751421,12.5792904 21.8751421,14.21875 C21.8751421,15.8582096 20.5458517,17.1875 18.9063921,17.1875 C17.2669325,17.1875 15.9376421,15.8582096 15.9376421,14.21875 C15.9376421,12.5792904 17.2669325,11.25 18.9063921,11.25 Z" id="Stroke-1-Copy"></path>
                            <path d="M18.1254035,17.1875 C22.4408894,17.1875 26.0598126,20.8513006 26.8629708,25.7869242 C26.9461315,26.2979692 26.5992628,26.779668 26.0882178,26.8628287 C25.5771729,26.9459894 25.0954741,26.5991207 25.0123134,26.0880758 C24.3470518,21.9998636 21.4456675,19.0625 18.1254035,19.0625 C14.8051924,19.0625 11.9037206,21.999813 11.2379535,26.0881816 C11.1547344,26.599217 10.6729959,26.9460306 10.1619605,26.8628115 C9.65092507,26.7795923 9.30411146,26.2978538 9.3873306,25.7868184 C10.1910754,20.8511508 13.8100221,17.1875 18.1254035,17.1875 Z" id="Stroke-3-Copy"></path>
                        </g>
                    </g>
                </g>
            </g>
        </g>
    </g>
</svg>