<?xml version="1.0" encoding="UTF-8"?>
<svg width="16px" height="18px" viewBox="0 0 16 18" version="1.1" xmlns="http://www.w3.org/2000/svg" xmlns:xlink="http://www.w3.org/1999/xlink">
    <title>1FC4C7FF-D0DF-48B7-8C0A-E998623E413C</title>
    <g id="Sprint-1-&amp;-2" stroke="none" stroke-width="1" fill="none" fill-rule="evenodd" stroke-linecap="round" stroke-linejoin="round">
        <g id="1-/-Basic-Details-/-Public-Auction" transform="translate(-314.000000, -2537.000000)" stroke="#F66F5B" stroke-width="1.2">
            <g id="Group-19" transform="translate(243.000000, 2173.000000)">
                <g id="Group-17" transform="translate(48.000000, 301.000000)">
                    <g id="Table/column/actions-2c" transform="translate(0.970149, 0.000559)">
                        <g id="Buttons-Small---Icon/Button---Medium---Icon---32x32" transform="translate(14.000000, 56.000000)">
                            <g id="delete" transform="translate(9.000000, 8.000000)">
                                <path d="M10.7854041,15.8988082 L3.75585306,15.8988082 C3.23242449,15.8988082 2.7952,15.4994612 2.74785306,14.9779918 L1.64124082,2.75823673 L12.9003429,2.75823673 L11.7934041,14.9779918 C11.7460571,15.4994612 11.3091592,15.8988082 10.7854041,15.8988082 Z" id="Stroke-1"></path>
                                <path d="M9.99859592,2.76453878 L4.54259592,2.76453878 L4.54259592,1.08813061 C4.54259592,0.635885714 4.9092898,0.269518367 5.36120816,0.269518367 L9.1803102,0.269518367 C9.63222857,0.269518367 9.99859592,0.635885714 9.99859592,1.08813061 L9.99859592,2.76453878 Z" id="Stroke-3"></path>
                                <line x1="4.55232653" y1="6.22213878" x2="4.94906122" y2="12.4347102" id="Stroke-5"></line>
                                <line x1="7.27059592" y1="6.22213878" x2="7.27059592" y2="12.4347102" id="Stroke-7"></line>
                                <line x1="9.98902857" y1="6.22213878" x2="9.59229388" y2="12.4347102" id="Stroke-9"></line>
                                <line x1="0.269779592" y1="2.75817143" x2="14.2714122" y2="2.75817143" id="Stroke-11"></line>
                            </g>
                        </g>
                    </g>
                </g>
            </g>
        </g>
    </g>
</svg>