<?xml version="1.0" encoding="UTF-8"?>
<svg width="17px" height="18px" viewBox="0 0 17 18" version="1.1" xmlns="http://www.w3.org/2000/svg" xmlns:xlink="http://www.w3.org/1999/xlink">
    <title>4A393CB0-5CF1-40B7-A0A8-91821FC9CAC8</title>
    <g id="Sprint-3" stroke="none" stroke-width="1" fill="none" fill-rule="evenodd">
        <g id="4.-Send-Invoice" transform="translate(-318.000000, -405.000000)" fill="#08594D" fill-rule="nonzero">
            <g id="Group-6" transform="translate(272.000000, 288.000000)">
                <g id="Group-Copy" transform="translate(47.000000, 114.000000)">
                    <g id="download" transform="translate(-0.600000, 3.400000)">
                        <path d="M15.5333333,12.7289067 C15.8315671,12.7289067 16.0789801,12.9464963 16.1254803,13.2315836 L16.1333333,13.3289067 L16.1333333,16.59984 C16.1333333,16.8980738 15.9157437,17.1454868 15.6306564,17.191987 L15.5333333,17.19984 L0.6,17.19984 C0.301766235,17.19984 0.054353247,16.9822504 0.00785298705,16.6971631 L-3.33066907e-16,16.59984 L-3.33066907e-16,13.3289067 C-3.33066907e-16,12.9975358 0.26862915,12.7289067 0.6,12.7289067 C0.898233765,12.7289067 1.14564675,12.9464963 1.19214701,13.2315836 L1.2,13.3289067 L1.199,15.999 L14.933,15.999 L14.9333333,13.3289067 C14.9333333,13.0306729 15.1509229,12.7832599 15.4360102,12.7367597 L15.5333333,12.7289067 Z" id="Stroke-1"></path>
                        <path d="M11.9592871,8.75630958 C12.1975853,8.52604755 12.5774284,8.53256217 12.8076904,8.77086039 C13.0123678,8.98268102 13.0299624,9.30633961 12.8639809,9.53736905 L12.7931396,9.61926375 L8.50727295,13.7605971 C8.30058069,13.960319 7.98625355,13.9825194 7.75563262,13.8271923 L7.67344722,13.760623 L3.38704722,9.61928968 C3.14873468,9.38904247 3.14219645,9.00919975 3.37244366,8.77088722 C3.57710784,8.55905385 3.89997095,8.5303508 4.1365661,8.68829754 L4.22084612,8.75628366 L8.09,12.494 L11.9592871,8.75630958 Z" id="Stroke-3"></path>
                        <path d="M8.09066667,-4.4408921e-16 C8.38890043,-4.4408921e-16 8.63631342,0.217589612 8.68281368,0.502676883 L8.69066667,0.6 L8.69066667,13.3290667 C8.69066667,13.6604375 8.42203752,13.9290667 8.09066667,13.9290667 C7.7924329,13.9290667 7.54501991,13.7114771 7.49851965,13.4263898 L7.49066667,13.3290667 L7.49066667,0.6 C7.49066667,0.26862915 7.75929582,-4.4408921e-16 8.09066667,-4.4408921e-16 Z" id="Stroke-4"></path>
                    </g>
                </g>
            </g>
        </g>
    </g>
</svg>