<?xml version="1.0" encoding="UTF-8"?>
<svg width="18px" height="14px" viewBox="0 0 18 14" version="1.1" xmlns="http://www.w3.org/2000/svg" xmlns:xlink="http://www.w3.org/1999/xlink">
    <title>41D7AEEB-18DC-43D5-B902-4AE085F89FE2</title>
    <g id="Sprint-1-&amp;-2" stroke="none" stroke-width="1" fill="none" fill-rule="evenodd" stroke-linecap="round" stroke-linejoin="round">
        <g id="1-/-Basic-Details-/-Public-Auction" transform="translate(-359.000000, -2683.000000)" stroke="#32AD71" stroke-width="1.2">
            <g id="Group-19" transform="translate(243.000000, 2173.000000)">
                <g id="Group-17" transform="translate(48.000000, 301.000000)">
                    <g id="Table/column/actions-2c" transform="translate(0.970149, 0.000559)">
                        <g id="Buttons-Small---Icon/Button---Medium---Icon---32x32-Copy-4" transform="translate(60.000000, 200.000000)">
                            <g id="check" transform="translate(8.000000, 8.000000)">
                                <g id="eye-open" transform="translate(0.000000, 2.000000)">
                                    <path d="M16,6 C16,6 12.4184,12 8,12 C3.5816,12 0,6 0,6 C0,6 3.5816,0 8,0 C12.4184,0 16,6 16,6 Z" id="Stroke-1"></path>
                                    <path d="M8,3 C9.65694006,3 11,4.34323649 11,6.00039437 C11,7.65676351 9.65694006,9 8,9 C6.34305994,9 5,7.65676351 5,6.00039437 C5,4.34323649 6.34305994,3 8,3 Z" id="Stroke-3"></path>
                                </g>
                            </g>
                        </g>
                    </g>
                </g>
            </g>
        </g>
    </g>
</svg>