<svg xmlns="http://www.w3.org/2000/svg" viewBox="0 0 99 66">
                    <g id="Header-2">
                        <g id="_2030-vision" data-name="2030-vision">
                            <path id="Path_1593" d="M20.476,12.138,21.7,13.3l1.224-1.224-1.284-1.22Z"
                                transform="translate(12.711 7.426)" fill="#28377b" />
                            <path id="Path_1594" d="M22.938,12.138,24.162,13.3l1.224-1.224L24.1,10.858Z"
                                transform="translate(14.398 7.426)" fill="#9d9fa2" />
                            <path id="Path_1595" d="M21.859,12.972l1,.946.89-1L22.8,11.97Z"
                                transform="translate(13.654 8.184)" fill="#d1da30" />
                            <path id="Path_1596" d="M24.017,13.253l1,.946.89-.946-.946-.946Z"
                                transform="translate(15.133 8.414)" fill="#73ba44" />
                            <path id="Rectangle_510" d="M0,0H1.336V1.336H0Z"
                                transform="translate(33.907 22.643) rotate(-46.256)" fill="#d1da30" />
                            <path id="Rectangle_511" d="M0,0H1.336V1.336H0Z"
                                transform="translate(37.215 22.781) rotate(-46.216)" fill="#27b7bd" />
                            <path id="Rectangle_512" d="M0,0H.946V.946H0Z"
                                transform="translate(35.933 23.912) rotate(-46.216)" fill="#73ba44" />
                            <path id="Path_1597" d="M23.68,14.8l.668.668.668-.723-.723-.612Z"
                                transform="translate(14.897 9.655)" fill="#59b65e" />
                            <path id="Rectangle_513" d="M0,0H2.17V2.17H0Z"
                                transform="translate(44.32 19.175) rotate(-10.393)" fill="#3189c9" />
                            <rect id="Rectangle_514" width="1.725" height="1.725"
                                transform="translate(41.504 20.035) rotate(-10.369)" fill="#213a71" />
                            <path id="Rectangle_515" d="M0,0H1.725V1.725H0Z"
                                transform="matrix(0.984, -0.18, 0.18, 0.984, 44.858, 22.477)" fill="#27b7bd" />
                            <path id="Rectangle_516" d="M0,0H1.336V1.336H0Z"
                                transform="translate(42.442 22.724) rotate(-10.393)" fill="#d1da30" />
                            <path id="Rectangle_517" d="M0,0H1.336V1.336H0Z"
                                transform="translate(45.055 25.281) rotate(-10.393)" fill="#9d9fa2" />
                            <path id="Rectangle_518" d="M0,0H1.336V1.336H0Z"
                                transform="translate(40.4 23.293) rotate(-10.393)" fill="#27b7bd" />
                            <path id="Rectangle_519" d="M0,0H1.336V1.336H0Z"
                                transform="translate(42.898 25.046) rotate(-10.393)" fill="#73ba44" />
                            <path id="Rectangle_520" d="M0,0H.946V.946H0Z"
                                transform="translate(41.172 25.233) rotate(-10.404)" fill="#9d9fa2" />
                            <path id="Rectangle_521" d="M0,0H.946V.946H0Z"
                                transform="translate(42.984 27.164) rotate(-10.369)" fill="#59b65e" />
                            <path id="Rectangle_522" d="M0,0H2.17V2.17H0Z"
                                transform="translate(49.835 28.211) rotate(-64.614)" fill="#28377b" />
                            <path id="Path_1598" d="M28.772,16.592l1.553.723.776-1.553-1.553-.723Z"
                                transform="translate(18.395 10.284)" fill="#27b7bd" />
                            <path id="Path_1599" d="M29.547,18.918l1.553.776.776-1.553-1.553-.776Z"
                                transform="translate(18.926 11.876)" fill="#73ba44" />
                            <path id="Path_1600" d="M28.4,17.88l1.224.556.612-1.165-1.224-.612Z"
                                transform="translate(18.136 11.388)" fill="#d1da30" />
                            <path id="Path_1601" d="M28.772,20.04,30,20.6l.612-1.224-1.224-.556Z"
                                transform="translate(18.39 12.862)" fill="#d1da30" />
                            <path id="Path_1602" d="M27.254,17.443,28.478,18l.556-1.165-1.224-.616Z"
                                transform="translate(17.35 11.087)" fill="#3189c9" />
                            <path id="Path_1603" d="M27.827,19.163l1.165.556L29.6,18.5l-1.224-.556Z"
                                transform="translate(17.742 12.262)" fill="#9d9fa2" />
                            <path id="Rectangle_523" d="M0,0H.946V.946H0Z"
                                transform="matrix(0.43, -0.903, 0.903, 0.43, 44.216, 30.163)" fill="#73ba44" />
                            <g id="Group_408" transform="translate(44.628 32.024)">
                                <path id="Rectangle_524" d="M0,0H.946V.946H0Z"
                                    transform="translate(0 0.854) rotate(-64.537)" fill="#27b7bd" />
                                <path id="Path_1604" d="M4.218,5.931l1.892-1L5.053,3.038l-1.892,1Z"
                                    transform="translate(2.055 0.68)" fill="#3189c9" />
                            </g>
                            <path id="Path_1605" d="M29.58,20.6l.835,1.553,1.5-.835-.835-1.495Z"
                                transform="translate(18.949 13.559)" fill="#27b7bd" />
                            <path id="Path_1606" d="M28.839,22.988l.835,1.5,1.5-.835-.835-1.5Z"
                                transform="translate(18.441 15.15)" fill="#27b7bd" />
                            <path id="Path_1607" d="M28.468,21.506l.612,1.165,1.224-.612-.672-1.22Z"
                                transform="translate(18.182 14.245)" fill="#28377b" />
                            <path id="Path_1608" d="M27.49,23.44l.668,1.165,1.165-.612-.612-1.165Z"
                                transform="translate(17.512 15.605)" fill="#59b65e" />
                            <path id="Path_1609" d="M27.76,20.439l.668,1.165,1.165-.612-.612-1.165Z"
                                transform="translate(17.697 13.553)" fill="#213a71" />
                            <path id="Path_1610" d="M27.22,22.182l.668,1.165,1.165-.612-.612-1.224Z"
                                transform="translate(17.327 14.705)" fill="#d1da30" />
                            <path id="Rectangle_525" d="M0,0H.946V.946H0Z"
                                transform="matrix(0.877, -0.48, 0.48, 0.877, 44.214, 35.141)" fill="#9d9fa2" />
                            <path id="Rectangle_526" d="M0,0H.946V.946H0Z"
                                transform="matrix(0.877, -0.48, 0.48, 0.877, 42.948, 37.452)" fill="#27b7bd" />
                            <path id="Rectangle_527" d="M0,0H2.172V2.172H0Z"
                                transform="translate(44.684 45.973) rotate(-82.939)" fill="#73ba44" />
                            <path id="Rectangle_528" d="M0,0H1.724V1.724H0Z"
                                transform="matrix(0.123, -0.992, 0.992, 0.123, 45.123, 42.618)" fill="#213a71" />
                            <rect id="Rectangle_529" width="1.725" height="1.725"
                                transform="translate(41.836 45.073) rotate(-82.912)" fill="#27b7bd" />
                            <path id="Rectangle_530" d="M0,0H1.336V1.336H0Z"
                                transform="translate(42.743 42.419) rotate(-82.939)" fill="#73ba44" />
                            <path id="Rectangle_531" d="M0,0H1.336V1.336H0Z"
                                transform="translate(39.467 44.147) rotate(-82.939)" fill="#9d9fa2" />
                            <path id="Rectangle_532" d="M0,0H1.336V1.336H0Z"
                                transform="translate(42.82 40.289) rotate(-82.935)" fill="#9d9fa2" />
                            <path id="Rectangle_533" d="M0,0H1.336V1.336H0Z"
                                transform="translate(40.401 42.117) rotate(-82.918)" fill="#73ba44" />
                            <path id="Rectangle_534" d="M0,0H.946V.946H0Z"
                                transform="translate(41.174 40.064) rotate(-82.952)" fill="#9d9fa2" />
                            <path id="Rectangle_535" d="M0,0H.946V.946H0Z"
                                transform="translate(38.781 41.235) rotate(-82.952)" fill="#9d9fa2" />
                            <path id="Path_1611" d="M21.724,29.237l1.614,1.447,1.447-1.553-1.553-1.447Z"
                                transform="translate(13.571 18.942)" fill="#73ba44" />
                            <path id="Path_1612" d="M21.555,10.961l1.614,1.447,1.447-1.553L23.063,9.408Z"
                                transform="translate(13.455 6.437)" fill="#73ba44" />
                            <path id="Path_1613" d="M23.14,27.682l1.224,1.165,1.224-1.224L24.305,26.4Z"
                                transform="translate(14.537 18.057)" fill="#27b7bd" />
                            <path id="Path_1614" d="M20.678,27.694,21.9,28.859l1.224-1.224-1.28-1.165Z"
                                transform="translate(12.85 18.103)" fill="#73ba44" />
                            <path id="Path_1615" d="M22.061,26.606l.946.946.946-1-1-.89Z"
                                transform="translate(13.793 17.542)" fill="#3189c9" />
                            <path id="Rectangle_536" d="M0,0H1.335V1.335H0Z"
                                transform="translate(32.165 43.689) rotate(-47.148)" fill="#d1da30" />
                            <path id="Path_1616" d="M22.8,25.65l1,.946.946-1-1-.946Z"
                                transform="translate(14.302 16.851)" fill="#d1da30" />
                            <path id="Path_1617" d="M21.016,25.684l1,.89.89-.946-1-.946Z"
                                transform="translate(13.077 16.874)" fill="#9d9fa2" />
                            <path id="Rectangle_537" d="M0,0H.946V.946H0Z"
                                transform="translate(35.929 41.382) rotate(-47.148)" fill="#213a71" />
                            <path id="Rectangle_538" d="M0,0H.947V.947H0Z"
                                transform="translate(33.325 40.892) rotate(-47.187)" fill="#9d9fa2" />
                            <rect id="Rectangle_539" width="2.17" height="2.17"
                                transform="translate(26.398 44.522) rotate(-11.321)" fill="#3189c9" />
                            <rect id="Rectangle_540" width="1.724" height="1.724"
                                transform="matrix(0.981, -0.196, 0.196, 0.981, 29.728, 43.901)" fill="#27b7bd" />
                            <path id="Rectangle_541" d="M0,0H1.725V1.725H0Z"
                                transform="translate(26.327 41.576) rotate(-11.338)" fill="#73ba44" />
                            <path id="Rectangle_542" d="M0,0H1.336V1.336H0Z"
                                transform="matrix(0.981, -0.196, 0.196, 0.981, 29.197, 41.582)" fill="#d1da30" />
                            <path id="Rectangle_543" d="M0,0H1.336V1.336H0Z"
                                transform="matrix(0.981, -0.196, 0.196, 0.981, 31.246, 41.009)" fill="#28377b" />
                            <path id="Rectangle_544" d="M0,0H1.336V1.336H0Z"
                                transform="matrix(0.981, -0.196, 0.196, 0.981, 28.74, 39.252)" fill="#3189c9" />
                            <path id="Rectangle_545" d="M0,0H.946V.946H0Z"
                                transform="translate(30.932 39.373) rotate(-11.292)" fill="#73ba44" />
                            <path id="Rectangle_546" d="M0,0H.945V.945H0Z"
                                transform="matrix(0.981, -0.196, 0.196, 0.981, 29.059, 37.447)" fill="#9d9fa2" />
                            <path id="Rectangle_547" d="M0,0H2.17V2.17H0Z"
                                transform="translate(20.445 38.356) rotate(-65.537)" fill="#27b7bd" />
                            <path id="Path_1618" d="M14.845,24.01l1.553.723.723-1.553-1.553-.723Z"
                                transform="translate(8.851 15.357)" fill="#d1da30" />
                            <path id="Path_1619" d="M14.036,21.717l1.553.723.723-1.614L14.7,20.164Z"
                                transform="translate(8.297 13.789)" fill="#3189c9" />
                            <path id="Rectangle_548" d="M0,0H1.336V1.336H0Z"
                                transform="translate(24.776 36.824) rotate(-65.506)" fill="#27b7bd" />
                            <path id="Rectangle_549" d="M0,0H1.336V1.336H0Z"
                                transform="translate(24.064 33.196) rotate(-65.485)" fill="#28377b" />
                            <path id="Rectangle_550" d="M0,0H1.336V1.336H0Z"
                                transform="translate(25.738 34.682) rotate(-65.455)" fill="#d1da30" />
                            <path id="Path_1620" d="M12.721,16.973l1.057,1.892,1.892-1.057-1.057-1.892Z"
                                transform="translate(7.398 10.889)" fill="#27b7bd" />
                            <g id="Group_409" transform="translate(22.184 25.34)">
                                <path id="Path_1621" d="M2.562,9.249l1.224.556.556-1.224L3.119,8.025Z"
                                    transform="translate(1.666 5.216)" fill="#9d9fa2" />
                                <path id="Rectangle_551" d="M0,0H1.336V1.336H0Z"
                                    transform="matrix(0.415, -0.91, 0.91, 0.415, 4.484, 12.079)" fill="#59b65e" />
                                <path id="Rectangle_552" d="M0,0H.946V.946H0Z"
                                    transform="translate(5.333 10.297) rotate(-65.437)" fill="#213a71" />
                                <path id="Path_1622" d="M.675,1.228l.89,1.5,1.5-.89-.89-1.5Z"
                                    transform="translate(0.438 0.219)" fill="#213a71" />
                                <path id="Path_1623" d="M2.326.612l.668,1.165,1.165-.668L3.491,0Z"
                                    transform="translate(1.512)" fill="#73ba44" />
                                <path id="Rectangle_553" d="M0,0H.946V.946H0Z"
                                    transform="matrix(0.416, -0.91, 0.91, 0.416, 4.994, 7.734)" fill="#73ba44" />
                                <path id="Path_1624" d="M.835,5.09l1.5-.89L1.5,2.7,0,3.588Z"
                                    transform="translate(0 1.753)" fill="#73ba44" />
                                <path id="Path_1625" d="M1.416,2.624l.668,1.165,1.165-.668L2.581,1.956Z"
                                    transform="translate(0.921 1.271)" fill="#3189c9" />
                                <path id="Path_1626" d="M3.289,3l-1.165.612.668,1.165,1.165-.612Z"
                                    transform="translate(1.381 1.951)" fill="#27b7bd" />
                                <path id="Path_1627" d="M2.63,1.916,3.3,3.08l1.165-.668L3.795,1.248Z"
                                    transform="translate(1.709 0.811)" fill="#d1da30" />
                                <path id="Rectangle_554" d="M0,0H.946V.946H0Z"
                                    transform="translate(5.226 4.643) rotate(-29.677)" fill="#9d9fa2" />
                            </g>
                            <g id="Group_410" transform="translate(25.779 19.235)">
                                <path id="Rectangle_555" d="M0,0H.946V.946H0Z"
                                    transform="matrix(0.869, -0.495, 0.495, 0.869, 2.913, 8.212)" fill="#73ba44" />
                                <path id="Rectangle_556" d="M0,0H2.169V2.169H0Z"
                                    transform="translate(0 2.157) rotate(-83.913)" fill="#73ba44" />
                                <path id="Rectangle_557" d="M0,0H1.725V1.725H0Z"
                                    transform="translate(0.102 5.051) rotate(-83.892)" fill="#9d9fa2" />
                            </g>
                            <g id="Group_411" transform="translate(28.674 20.112)">
                                <rect id="Rectangle_558" width="1.725" height="1.725"
                                    transform="translate(0.435 1.715) rotate(-83.892)" fill="#27b7bd" />
                                <path id="Rectangle_559" d="M0,0H1.336V1.336H0Z"
                                    transform="translate(0 4.029) rotate(-83.892)" fill="#d1da30" />
                            </g>
                            <path id="Rectangle_560" d="M0,0H1.335V1.335H0Z"
                                transform="translate(31.914 22.362) rotate(-83.913)" fill="#3189c9" />
                            <path id="Rectangle_561" d="M0,0H1.336V1.336H0Z"
                                transform="translate(28.623 26.283) rotate(-83.892)" fill="#27b7bd" />
                            <path id="Rectangle_562" d="M0,0H1.336V1.336H0Z"
                                transform="translate(31.057 24.391) rotate(-83.881)" fill="#73ba44" />
                            <path id="Rectangle_563" d="M0,0H.946V.946H0Z"
                                transform="translate(30.679 26.133) rotate(-83.913)" fill="#213a71" />
                            <path id="Rectangle_564" d="M0,0H.946V.946H0Z"
                                transform="translate(33.092 24.904) rotate(-83.933)" fill="#9d9fa2" />
                            <path id="Path_1628"
                                d="M31.134,23.011a5.072,5.072,0,0,0-2.337-.167,3.378,3.378,0,0,0-1,.278c-.056,0-.056,0-.111.056a5.773,5.773,0,0,1-.556.223,1.211,1.211,0,0,0-.445.278,11.281,11.281,0,0,0-1,.723,23.007,23.007,0,0,1-.111-5.452c.835.5.612,1.941.388,2.337a2.621,2.621,0,0,0,.334-2.838,1.294,1.294,0,0,1,.388.388,1.854,1.854,0,0,1,.445,1.224v.668a2.345,2.345,0,0,0,0-2.115A2.47,2.47,0,0,0,26.68,18l-.167-.167c.056,0,.111.056.167.056a3.3,3.3,0,0,1,.445.223,2.1,2.1,0,0,1,.668.89,2.184,2.184,0,0,1,.167.776,2.124,2.124,0,0,0-.167-1.614,1.416,1.416,0,0,0-.668-.612,3.281,3.281,0,0,0-.445-.223c-.056,0-.167-.056-.223-.056h.223a1.084,1.084,0,0,1,.445.056,1.857,1.857,0,0,1,.668.278,1.563,1.563,0,0,1,.445.445,1.512,1.512,0,0,0-.445-.89,1.27,1.27,0,0,0-.668-.334,1.383,1.383,0,0,0-.445-.056,1.646,1.646,0,0,0-.556.111.941.941,0,0,1,.556-.388,1.383,1.383,0,0,1,.445-.056.8.8,0,0,1,.388.111,2.42,2.42,0,0,0-.388-.334c-.167-.056-.278-.111-.445-.167a1.125,1.125,0,0,0-1.113.556l-.167-.334a4.9,4.9,0,0,1-.278-.835,4.9,4.9,0,0,1-.278.835l-.167.334a1.2,1.2,0,0,0-1.941-.111,1.275,1.275,0,0,1,1.447.388,1.768,1.768,0,0,0-1.836.445,1.057,1.057,0,0,0-.278.723,1.223,1.223,0,0,1,.278-.334,1.961,1.961,0,0,1,1.447-.388A1.9,1.9,0,0,0,22.346,18.5a2.157,2.157,0,0,0,0,1.336v-.056a1.86,1.86,0,0,1,1.447-1.892,2.473,2.473,0,0,0-.668,2.949,2.381,2.381,0,0,1,.835-2.282,2.414,2.414,0,0,0,.334,2.838c-.167-.388-.388-1.836.388-2.337a20.336,20.336,0,0,1-.111,5.452,9.694,9.694,0,0,0-2-1.224c-.111-.056-.167-.056-.223-.111a6.221,6.221,0,0,0-1.892-.278,5.321,5.321,0,0,0-1.941.5c-.111-.056-.167-.056-.223,0v.056c.056,0,.111-.056.167-.056a4.721,4.721,0,0,1,1.941-.167,5.283,5.283,0,0,1,1.9.507,9.007,9.007,0,0,1,2.282,1.5,21.69,21.69,0,0,1-2.282,1.946l-.056.056a.529.529,0,0,0-.556-.223.55.55,0,0,0-.388.388.4.4,0,0,0,.111.445.748.748,0,0,0,.946.111,11.906,11.906,0,0,0,2.5-2.115c.111-.056.167-.167.278-.223.111.056.167.167.278.223.445.445.89.835,1.28,1.165.167.167.334.278.445.388a4.642,4.642,0,0,0,.668.445.831.831,0,0,0,1,0,.054.054,0,0,0,.056-.056.537.537,0,0,0,.1-.439c0-.111-.056-.167-.167-.278a.422.422,0,0,0-.223-.111.529.529,0,0,0-.556.223c-.056-.056-.167-.056-.223-.111q-.25-.167-.668-.5c-.167-.111-.278-.278-.445-.388-.334-.278-.668-.612-1-.946a12.221,12.221,0,0,1,1-.776,1.952,1.952,0,0,1,.445-.278l.668-.334a7.431,7.431,0,0,1,1-.388,5.426,5.426,0,0,1,2.337-.167,4.635,4.635,0,0,1,.835.223s.056,0,0-.056A1.424,1.424,0,0,0,31.134,23.011Z"
                                transform="translate(11.295 10.663)" fill="#005b4e" />
                            <g id="Group_412" transform="translate(0.498 51.855)">
                                <path id="Path_1629"
                                    d="M52.483,4.231a1.314,1.314,0,0,0,.5.334,1.1,1.1,0,0,0,.612.111,2.793,2.793,0,0,0,.668-.111.81.81,0,0,0,.5-.334,1.523,1.523,0,0,0,.445-1.165A2.793,2.793,0,0,0,55.1,2.4a1.131,1.131,0,0,0-.334-.5,1.314,1.314,0,0,0-.5-.334,2.392,2.392,0,0,0-.668-.111,2,2,0,0,0-.612.111l-.5.334a2.614,2.614,0,0,0-.334.5,2.367,2.367,0,0,0-.111.612,2,2,0,0,0,.111.612A1.1,1.1,0,0,0,52.483,4.231Z"
                                    transform="translate(34.557 0.944)" fill="none" fill-rule="evenodd" />
                                <path id="Path_1630"
                                    d="M1.289,2.1a1.122,1.122,0,0,0-.167.612,2,2,0,0,0,.111.612,3.085,3.085,0,0,0,.334.445,1.3,1.3,0,0,0,.556.278,2.793,2.793,0,0,0,.668.111H3.4V1.214H2.847a2,2,0,0,0-.612.111,1.741,1.741,0,0,0-.556.278A1.211,1.211,0,0,0,1.289,2.1Z"
                                    transform="translate(-0.562 0.789)" fill="none" fill-rule="evenodd" />
                                <path id="Path_1631"
                                    d="M34.525,4.163l.946-2.393a2.83,2.83,0,0,0-1.553-.556,3.283,3.283,0,0,0-.776.111,1.963,1.963,0,0,0-.723.445l.946,2.393Z"
                                    transform="translate(20.95 0.789)" fill="none" fill-rule="evenodd" />
                                <path id="Path_1632"
                                    d="M48.841,4.231a1.314,1.314,0,0,0,.5.334,1.1,1.1,0,0,0,.612.111,2.793,2.793,0,0,0,.668-.111.81.81,0,0,0,.5-.334,1.523,1.523,0,0,0,.445-1.165,2.794,2.794,0,0,0-.111-.668,1.131,1.131,0,0,0-.334-.5,1.314,1.314,0,0,0-.5-.334,2.392,2.392,0,0,0-.668-.111,2,2,0,0,0-.612.111l-.5.334a2.613,2.613,0,0,0-.334.5,2.367,2.367,0,0,0-.111.612,2,2,0,0,0,.111.612A1.1,1.1,0,0,0,48.841,4.231Z"
                                    transform="translate(32.19 0.944)" fill="none" fill-rule="evenodd" />
                                <path id="Path_1633"
                                    d="M24.454,2.1a1.122,1.122,0,0,0-.167.612,2,2,0,0,0,.111.612,3.086,3.086,0,0,0,.334.445,1.741,1.741,0,0,0,.556.278,2.793,2.793,0,0,0,.668.111h.612V1.214h-.612a2,2,0,0,0-.612.111,1.741,1.741,0,0,0-.556.278A1.941,1.941,0,0,0,24.454,2.1Z"
                                    transform="translate(15.357 0.789)" fill="none" fill-rule="evenodd" />
                                <path id="Path_1634"
                                    d="M9.484,1.325a1.741,1.741,0,0,0-.556.278,1.211,1.211,0,0,0-.388.5,1.122,1.122,0,0,0-.167.612,2,2,0,0,0,.111.612,1.5,1.5,0,0,0,.388.445,1.741,1.741,0,0,0,.556.278,2.793,2.793,0,0,0,.668.111h.612V1.214H10.1A2,2,0,0,0,9.484,1.325Z"
                                    transform="translate(4.15 0.789)" fill="none" fill-rule="evenodd" />
                                <path id="Path_1635"
                                    d="M13.386,4.163l.946-2.393a2.83,2.83,0,0,0-1.553-.556A3.283,3.283,0,0,0,12,1.325a1.963,1.963,0,0,0-.731.445l.946,2.393Z"
                                    transform="translate(6.423 0.789)" fill="none" fill-rule="evenodd" />
                                <path id="Path_1636"
                                    d="M39.9,2.1a1.122,1.122,0,0,0-.167.612,2,2,0,0,0,.111.612,3.086,3.086,0,0,0,.334.445,1.741,1.741,0,0,0,.556.278,2.794,2.794,0,0,0,.668.111h.612V1.214H41.4a2,2,0,0,0-.612.111,1.741,1.741,0,0,0-.556.278A1.941,1.941,0,0,0,39.9,2.1Z"
                                    transform="translate(25.961 0.789)" fill="none" fill-rule="evenodd" />
                                <path id="Rectangle_565" d="M25.028,0h.612V.612h-.612Z" transform="translate(15.85)"
                                    fill="#005b4e" />
                                <path id="Rectangle_566" d="M27.322,3.81h.612v.612h-.612Z"
                                    transform="translate(17.423 2.477)" fill="#005b4e" />
                                <path id="Path_1637"
                                    d="M1.453,1.4a1.519,1.519,0,0,0-.5.668A2.232,2.232,0,0,0,.785,2.9a1.7,1.7,0,0,0,.223.946,1.636,1.636,0,0,0,.556.668A2.908,2.908,0,0,0,2.4,4.9a5.513,5.513,0,0,0,1,.111H7.462V.843H6.85V4.4H4.291V.843h-1a3.235,3.235,0,0,0-1.057.167A2.055,2.055,0,0,0,1.453,1.4Zm1.614.056h.612V4.4H3.067A2.793,2.793,0,0,1,2.4,4.293a1.741,1.741,0,0,1-.556-.278.866.866,0,0,1-.334-.445A1.1,1.1,0,0,1,1.4,2.958a1.122,1.122,0,0,1,.167-.612A1.5,1.5,0,0,1,1.953,1.9a1.741,1.741,0,0,1,.558-.281C2.622,1.455,2.844,1.455,3.067,1.455Z"
                                    transform="translate(-0.783 0.548)" fill="#005b4e" />
                                <path id="Rectangle_567" d="M29.344,3.81h.612v.612h-.612Z"
                                    transform="translate(18.811 2.477)" fill="#005b4e" />
                                <path id="Rectangle_568" d="M27.962,3.81h.612v.612h-.612Z"
                                    transform="translate(17.863 2.477)" fill="#005b4e" />
                                <path id="Rectangle_569" d="M37.134,0h.612V5.563h-.612Z" transform="translate(24.155)"
                                    fill="#005b4e" />
                                <path id="Path_1638"
                                    d="M40.062,1.941a1.519,1.519,0,0,0-.5.668,2.232,2.232,0,0,0-.167.835,1.7,1.7,0,0,0,.223.946,1.636,1.636,0,0,0,.556.668,2.908,2.908,0,0,0,.835.388,5.512,5.512,0,0,0,1,.111H54.194a2.117,2.117,0,0,0,.723.5,2.306,2.306,0,0,0,.89.167,2.826,2.826,0,0,0,.946-.167,1.694,1.694,0,0,0,.723-.5H60.2a2.117,2.117,0,0,0,.723.5,2.306,2.306,0,0,0,.89.167,2.826,2.826,0,0,0,.946-.167,1.694,1.694,0,0,0,.723-.5h3.172V0h-.612V4.951H63.931a2.52,2.52,0,0,0,.167-.89,2.306,2.306,0,0,0-.167-.89,2.117,2.117,0,0,0-.5-.723,3.347,3.347,0,0,0-.723-.5,2.459,2.459,0,0,0-1.781,0,2.117,2.117,0,0,0-.723.5,1.963,1.963,0,0,0-.445.723,2.306,2.306,0,0,0-.167.89,1.54,1.54,0,0,0,.056.5c.056.167.056.278.111.445H57.865a2.52,2.52,0,0,0,.167-.89,2.306,2.306,0,0,0-.167-.89,2.117,2.117,0,0,0-.5-.723,3.347,3.347,0,0,0-.723-.5A2.459,2.459,0,0,0,54.86,2a2.117,2.117,0,0,0-.723.5,1.963,1.963,0,0,0-.445.723,2.306,2.306,0,0,0-.167.89,1.54,1.54,0,0,0,.056.5c.056.167.056.278.111.445H51.75V.111h-.612V5.063H49.2V4.117a2.793,2.793,0,0,0-.111-.668,1.741,1.741,0,0,0-.278-.556,1.272,1.272,0,0,0-.556-.388,1.65,1.65,0,0,0-.776-.111H44.748L45.913.167H45.3L44.136,2.393a.791.791,0,0,0,.111.334c.056.111.111.167.167.278h3.172a1.112,1.112,0,0,1,.5.111.855.855,0,0,1,.334.223.481.481,0,0,1,.167.334,1.084,1.084,0,0,1,.056.445v.946h-5.73V1.5h-1a3.235,3.235,0,0,0-1.057.167A1.035,1.035,0,0,0,40.062,1.941ZM60.369,3.388a1.534,1.534,0,0,1,.835-.835,1.1,1.1,0,0,1,.612-.111,2.793,2.793,0,0,1,.668.111,1.131,1.131,0,0,1,.5.334,1.313,1.313,0,0,1,.334.5,2.39,2.39,0,0,1,.111.668,2.793,2.793,0,0,1-.111.668,1.941,1.941,0,0,1-.334.5,1.314,1.314,0,0,1-.5.334,2.39,2.39,0,0,1-.668.111,2,2,0,0,1-.612-.111l-.5-.334a1.313,1.313,0,0,1-.334-.5,2.365,2.365,0,0,1-.111-.612,1.061,1.061,0,0,1,.111-.717Zm-6.009,0a1.535,1.535,0,0,1,.835-.835,1.1,1.1,0,0,1,.612-.111,2.793,2.793,0,0,1,.668.111,1.131,1.131,0,0,1,.5.334,1.314,1.314,0,0,1,.334.5,2.39,2.39,0,0,1,.111.668,2.794,2.794,0,0,1-.111.668,1.941,1.941,0,0,1-.334.5,1.314,1.314,0,0,1-.5.334,2.39,2.39,0,0,1-.668.111,2,2,0,0,1-.612-.111l-.5-.334a1.314,1.314,0,0,1-.334-.5,2.366,2.366,0,0,1-.111-.612,1.061,1.061,0,0,1,.111-.717ZM41.678,2h.612V4.946h-.612a2.793,2.793,0,0,1-.668-.111,1.741,1.741,0,0,1-.556-.278.866.866,0,0,1-.334-.445,1.1,1.1,0,0,1-.111-.612,1.122,1.122,0,0,1,.167-.612,1.5,1.5,0,0,1,.388-.445,1.741,1.741,0,0,1,.556-.278c.11-.16.333-.16.555-.16Z"
                                    transform="translate(26.337)" fill="#005b4e" />
                                <path id="Rectangle_570" d="M56.995,0h.612V5.563h-.612Z" transform="translate(37.779)"
                                    fill="#005b4e" />
                                <path id="Rectangle_571" d="M41.113,0h.612V.612h-.612Z" transform="translate(26.884)"
                                    fill="#005b4e" />
                                <path id="Rectangle_572" d="M40.472,0h.612V.612h-.612Z" transform="translate(26.445)"
                                    fill="#005b4e" />
                                <path id="Path_1639"
                                    d="M31.278,1.391V6.179a.424.424,0,0,1-.111.278L31,6.625a.417.417,0,0,1-.278.056h-.167a.2.2,0,0,1-.167-.056l-.167.612a1.54,1.54,0,0,0,.5.056,1.646,1.646,0,0,0,.556-.111.748.748,0,0,0,.388-.334,1.048,1.048,0,0,0,.223-.5,2.293,2.293,0,0,0,.056-.668V5.565H39.9V0h-.612V4.951H36.675l1.052-2.558a3.056,3.056,0,0,0-.5-.388c-.167-.111-.388-.223-.556-.334a2.718,2.718,0,0,0-.612-.223,3.394,3.394,0,0,0-1.224,0,2.718,2.718,0,0,0-.612.223A4.894,4.894,0,0,0,33.665,2c-.167.111-.334.278-.5.388l1.113,2.56H32V1.391Zm2.56,1.165a2.548,2.548,0,0,1,.723-.445A1.768,1.768,0,0,1,35.338,2a2.232,2.232,0,0,1,.835.167,3,3,0,0,1,.723.388L35.95,4.947H34.837Z"
                                    transform="translate(19.527)" fill="#005b4e" />
                                <path id="Rectangle_573" d="M2.5,0h.612V.612H2.5Z" transform="translate(0.337)"
                                    fill="#005b4e" />
                                <path id="Rectangle_574" d="M4.46,3.81h.612v.612H4.46Z"
                                    transform="translate(1.607 2.477)" fill="#005b4e" />
                                <path id="Rectangle_575" d="M1.864,0h.612V.612H1.864Z" transform="translate(-0.08)"
                                    fill="#005b4e" />
                                <path id="Rectangle_576" d="M3.785,3.81H4.4v.612H3.785Z"
                                    transform="translate(1.169 2.477)" fill="#005b4e" />
                                <path id="Path_1640"
                                    d="M5.3,4.406v.612H8.809V2.57A2.793,2.793,0,0,0,8.7,1.9a1.741,1.741,0,0,0-.278-.556A1.272,1.272,0,0,0,7.863.958,1.527,1.527,0,0,0,7.139.846H6.694v.612H7.25A1.31,1.31,0,0,1,7.7,1.57a1.475,1.475,0,0,1,.334.278.481.481,0,0,1,.167.334,1.084,1.084,0,0,1,.056.445V4.408Z"
                                    transform="translate(2.156 0.546)" fill="#005b4e" />
                                <path id="Path_1641"
                                    d="M24.619,1.4a1.519,1.519,0,0,0-.5.668,2.232,2.232,0,0,0-.167.835,1.7,1.7,0,0,0,.223.946,1.636,1.636,0,0,0,.556.668,2.908,2.908,0,0,0,.835.388,5.513,5.513,0,0,0,1,.111h7.01V.843h-.612V4.4H30.627V.843h-.612V4.4H27.568V.843h-1a3.235,3.235,0,0,0-1.057.167A1.883,1.883,0,0,0,24.619,1.4Zm1.614.056h.612V4.4h-.612a2.793,2.793,0,0,1-.668-.111,1.741,1.741,0,0,1-.556-.278.866.866,0,0,1-.334-.445,1.1,1.1,0,0,1-.111-.612,1.122,1.122,0,0,1,.167-.612,1.5,1.5,0,0,1,.388-.445,1.741,1.741,0,0,1,.556-.278C25.787,1.455,26.01,1.455,26.232,1.455Z"
                                    transform="translate(15.199 0.548)" fill="#005b4e" />
                                <path id="Rectangle_577" d="M21.69,0H22.3V5.563H21.69Z" transform="translate(13.56)"
                                    fill="#005b4e" />
                                <path id="Rectangle_578" d="M25.669,0h.612V.612h-.612Z" transform="translate(16.29)"
                                    fill="#005b4e" />
                                <path id="Path_1642"
                                    d="M10.595,1.347a3.235,3.235,0,0,0-1.057.167,2.948,2.948,0,0,0-.835.445,1.519,1.519,0,0,0-.5.668,2.232,2.232,0,0,0-.167.835,1.7,1.7,0,0,0,.223.946,1.636,1.636,0,0,0,.556.668,2.908,2.908,0,0,0,.835.388,5.512,5.512,0,0,0,1,.111h.388v.167a.758.758,0,0,1-.278.668,1.44,1.44,0,0,1-.776.223,1.382,1.382,0,0,1-.5-.056l-.5-.168-.17.613a4.228,4.228,0,0,0,.612.223A1.893,1.893,0,0,0,9.98,7.3a1.832,1.832,0,0,0,1.336-.445A1.567,1.567,0,0,0,11.7,5.69V5.579h9.459a1.777,1.777,0,0,0,.776-.167,1.218,1.218,0,0,0,.556-.5,1.48,1.48,0,0,0,.612.556,2.368,2.368,0,0,0,.946.223A2.4,2.4,0,0,0,25,5.523a1.3,1.3,0,0,0,.612-.612c.056.111.111.167.167.278a.555.555,0,0,0,.278.223,3.833,3.833,0,0,0,.445.167,1.084,1.084,0,0,0,.445.056h1.781V.067H28.12V5.019h-1a1.563,1.563,0,0,1-.836-.163,1.314,1.314,0,0,1-.5-.445,1.715,1.715,0,0,0,.056-.556V1.848h-.612V3.963a1.367,1.367,0,0,1-.278.835,1.1,1.1,0,0,1-.89.334,1.624,1.624,0,0,1-.5-.111.9.9,0,0,1-.388-.223c-.111-.111-.167-.223-.278-.334,0-.278-.056-.388-.056-.556V1.737h-.612V3.851a1.624,1.624,0,0,1-.111.5,1.165,1.165,0,0,1-.223.334.481.481,0,0,1-.334.167.947.947,0,0,1-.388.056H19.941V1.737h-.612V4.907H16.1l1.057-2.56a3.057,3.057,0,0,0-.5-.388c-.167-.111-.388-.223-.556-.334A2.718,2.718,0,0,0,15.49,1.4a3.394,3.394,0,0,0-1.224,0,2.718,2.718,0,0,0-.612.223,4.893,4.893,0,0,0-.556.334c-.167.111-.334.278-.5.388l1.113,2.56H11.541V1.347Zm.334,3.56h-.612A2.793,2.793,0,0,1,9.649,4.8a1.741,1.741,0,0,1-.556-.278A1.5,1.5,0,0,1,8.7,4.073a1.1,1.1,0,0,1-.111-.612,1.122,1.122,0,0,1,.167-.612,3.058,3.058,0,0,1,.388-.5A1.741,1.741,0,0,1,9.7,2.069a2.366,2.366,0,0,1,.612-.111h.612Zm2.448-2.393a2.548,2.548,0,0,1,.723-.445,1.768,1.768,0,0,1,.776-.111,2.232,2.232,0,0,1,.835.167,3,3,0,0,1,.723.388l-.946,2.393H14.376Z"
                                    transform="translate(3.93 0.044)" fill="#005b4e" />
                            </g>
                            <path id="Path_1643"
                                d="M5.263,36.485H4.319L2.2,38.711V36.485H1.425v4.4H2.2V39.6l.723-.668,1.5,1.941h.946l-1.941-2.5Z"
                                transform="translate(-0.368 24.996)" fill="#005b4e" />
                            <path id="Rectangle_579" d="M4.224,36.485H5V40.88H4.224Z"
                                transform="translate(1.451 24.996)" fill="#005b4e" />
                            <path id="Path_1644"
                                d="M8.5,39.545,6.161,36.485H5.438v4.4h.776V37.768l2.393,3.116h.668v-4.4H8.5Z"
                                transform="translate(2.24 24.996)" fill="#005b4e" />
                            <path id="Path_1645"
                                d="M10.62,39.119h1.113v.835a1.712,1.712,0,0,1-1.057.334,1.477,1.477,0,0,1-1.5-1.553,1.5,1.5,0,0,1,1.447-1.553,1.553,1.553,0,0,1,1.224.5l.5-.612a2.41,2.41,0,0,0-1.725-.612A2.256,2.256,0,0,0,8.338,38.74a2.191,2.191,0,0,0,2.282,2.282,3.037,3.037,0,0,0,1.836-.668V38.517H10.564v.612Z"
                                transform="translate(4.124 24.977)" fill="#005b4e" />
                            <g id="Group_413" transform="translate(18.078 61.475)">
                                <path id="Path_1646"
                                    d="M1.363,1.223H.472v3h.89a1.447,1.447,0,0,0,1.553-1.5,1.508,1.508,0,0,0-1.553-1.5Z"
                                    transform="translate(0.307 -0.494)" fill="none" fill-rule="evenodd" />
                                <path id="Path_1647"
                                    d="M1.669.786H0v4.4H1.669a2.2,2.2,0,1,0,0-4.4Zm1.5,2.226a1.447,1.447,0,0,1-1.553,1.5H.729v-3h.89a1.447,1.447,0,0,1,1.553,1.5Z"
                                    transform="translate(0 -0.781)" fill="#005b4e" />
                            </g>
                            <g id="Group_414" transform="translate(22.913 61.424)">
                                <path id="Path_1648"
                                    d="M1.975,1.223a1.508,1.508,0,0,0-1.5,1.553,1.5,1.5,0,1,0,3,0,1.477,1.477,0,0,0-1.5-1.553Z"
                                    transform="translate(0.307 -0.499)" fill="none" fill-rule="evenodd" />
                                <path id="Path_1649"
                                    d="M2.337.785A2.3,2.3,0,0,0,0,3.066,2.256,2.256,0,0,0,2.282,5.348,2.3,2.3,0,0,0,4.619,3.066,2.223,2.223,0,0,0,2.337.785ZM3.784,3.066a1.5,1.5,0,1,1-3,0,1.508,1.508,0,0,1,1.5-1.553,1.477,1.477,0,0,1,1.5,1.553Z"
                                    transform="translate(0 -0.784)" fill="#005b4e" />
                            </g>
                            <path id="Path_1650"
                                d="M19.971,38.6,18.58,36.485h-.835v4.4h.776V37.768l1.391,2.059h.056l1.391-2.059v3.116h.776v-4.4H21.3Z"
                                transform="translate(10.852 24.996)" fill="#005b4e" />
                            <g id="Group_415" transform="translate(35.933 61.421)">
                                <path id="Path_1651"
                                    d="M2.009,1.223a1.508,1.508,0,0,0-1.5,1.553,1.5,1.5,0,1,0,3,0,1.477,1.477,0,0,0-1.5-1.553Z"
                                    transform="translate(0.328 -0.496)" fill="none" fill-rule="evenodd" />
                                <path id="Path_1652"
                                    d="M2.337.786A2.3,2.3,0,0,0,0,3.067,2.256,2.256,0,0,0,2.282,5.349,2.3,2.3,0,0,0,4.619,3.067,2.16,2.16,0,0,0,2.337.786Zm1.5,2.282a1.5,1.5,0,1,1-3,0,1.508,1.508,0,0,1,1.5-1.553,1.477,1.477,0,0,1,1.5,1.553Z"
                                    transform="translate(0 -0.782)" fill="#005b4e" />
                            </g>
                            <path id="Path_1653" d="M25.5,40.885h.776V39.1H28.5v-.723H26.277V37.216h2.5v-.731H25.5Z"
                                transform="translate(16.162 24.996)" fill="#005b4e" />
                            <path id="Path_1654"
                                d="M30.977,38.348c-.835-.223-1.057-.334-1.057-.668,0-.278.278-.5.723-.5a2.362,2.362,0,0,1,1.224.445l.388-.612a2.57,2.57,0,0,0-1.614-.556,1.325,1.325,0,0,0-1.5,1.28c0,.835.556,1.113,1.447,1.336.835.167,1,.334,1,.668s-.278.556-.776.556a2.2,2.2,0,0,1-1.391-.556l-.445.556a2.654,2.654,0,0,0,1.836.723c.946,0,1.553-.5,1.553-1.336C32.424,38.9,31.923,38.57,30.977,38.348Z"
                                transform="translate(18.545 24.969)" fill="#005b4e" />
                            <g id="Group_416" transform="translate(51.512 61.48)">
                                <path id="Path_1655" d="M.911,2.32H2.464L1.687.54Z" transform="translate(0.592 0.351)"
                                    fill="none" fill-rule="evenodd" />
                                <path id="Path_1656"
                                    d="M1.941,0,0,4.45H.776l.445-1.057H3.339L3.784,4.45h.835L2.678,0ZM1.5,2.671,2.272.89l.776,1.781Z"
                                    transform="translate(0)" fill="#005b4e" />
                            </g>
                            <path id="Path_1657"
                                d="M37.411,39.044c0,.835-.445,1.224-1.113,1.224s-1.113-.445-1.113-1.28v-2.5h-.776v2.56a1.9,1.9,0,1,0,3.784-.062v-2.5h-.776Z"
                                transform="translate(22.268 24.996)" fill="#005b4e" />
                            <g id="Group_417" transform="translate(61.681 61.475)">
                                <path id="Path_1658"
                                    d="M1.363,1.224H.472v3h.89a1.447,1.447,0,0,0,1.553-1.5,1.477,1.477,0,0,0-1.553-1.5Z"
                                    transform="translate(0.307 -0.495)" fill="none" fill-rule="evenodd" />
                                <path id="Path_1659"
                                    d="M1.669.786H0v4.4H1.669a2.2,2.2,0,1,0,0-4.4Zm1.5,2.226a1.447,1.447,0,0,1-1.553,1.5H.729v-3h.89a1.424,1.424,0,0,1,1.553,1.5Z"
                                    transform="translate(0 -0.781)" fill="#005b4e" />
                            </g>
                            <path id="Rectangle_580" d="M40.4,36.485h.779V40.88H40.4Z"
                                transform="translate(26.344 24.996)" fill="#005b4e" />
                            <g id="Group_418" transform="translate(70.331 61.48)">
                                <path id="Path_1660" d="M.944,2.32h1.5L1.67.54Z" transform="translate(0.614 0.351)"
                                    fill="none" fill-rule="evenodd" />
                                <path id="Path_1661"
                                    d="M1.941,0,0,4.45H.776l.445-1.057H3.336L3.781,4.45h.835L2.675,0ZM1.553,2.671,2.329.89l.776,1.781Z"
                                    transform="translate(0)" fill="#005b4e" />
                            </g>
                            <g id="Group_419" transform="translate(75.781 61.477)">
                                <path id="Path_1662"
                                    d="M2.509,1.946c0-.5-.334-.723-.89-.723H.506v1.5H1.619C2.175,2.67,2.509,2.387,2.509,1.946Z"
                                    transform="translate(0.322 -0.497)" fill="none" fill-rule="evenodd" />
                                <path id="Path_1663"
                                    d="M3.613,2.177a1.147,1.147,0,0,0-.388-.946A1.779,1.779,0,0,0,1.945.785H0v4.4H.78V3.632h.946L2.839,5.185h.89L2.565,3.516A1.326,1.326,0,0,0,3.613,2.177Zm-1.669.776H.831v-1.5H1.944c.556,0,.89.278.89.723,0,.5-.334.776-.89.776Z"
                                    transform="translate(-0.004 -0.783)" fill="#005b4e" />
                            </g>
                            <g id="Group_420" transform="translate(80.528 61.48)">
                                <path id="Path_1664" d="M.944,2.32h1.5L1.67.54Z" transform="translate(0.614 0.351)"
                                    fill="none" fill-rule="evenodd" />
                                <path id="Path_1665"
                                    d="M1.941,0,0,4.45H.776l.445-1.057H3.336L3.781,4.45h.835L2.675,0ZM1.553,2.671,2.329.89l.776,1.781Z"
                                    transform="translate(0)" fill="#005b4e" />
                            </g>
                            <g id="Group_421" transform="translate(85.813 61.476)">
                                <path id="Path_1666"
                                    d="M1.73,2.3H.506V3.526h1.28c.556,0,.835-.223.835-.612S2.342,2.3,1.73,2.3Z"
                                    transform="translate(0.329 0.206)" fill="none" fill-rule="evenodd" />
                                <path id="Path_1667"
                                    d="M2.4,1.779c0-.334-.278-.556-.776-.556H.507V2.387H1.565C2.058,2.387,2.4,2.169,2.4,1.779Z"
                                    transform="translate(0.33 -0.496)" fill="none" fill-rule="evenodd" />
                                <path id="Path_1668"
                                    d="M2.838,2.9a1.025,1.025,0,0,0,.612-1,1.057,1.057,0,0,0-.278-.723A1.567,1.567,0,0,0,2.007.787H0v4.4H2.059c1,0,1.614-.445,1.614-1.224C3.727,3.4,3.394,3.067,2.838,2.9Zm-2-1.447H1.948c.5,0,.776.223.776.556,0,.388-.334.612-.835.612H.832ZM2.949,3.9c0,.388-.334.612-.835.612H.835V3.29H2.059C2.671,3.29,2.949,3.513,2.949,3.9Z"
                                    transform="translate(0 -0.782)" fill="#005b4e" />
                            </g>
                            <path id="Rectangle_581" d="M54.432,36.485h.779V40.88h-.779Z"
                                transform="translate(36.111 24.996)" fill="#005b4e" />
                            <g id="Group_422" transform="translate(92.044 61.48)">
                                <path id="Path_1669" d="M.911,2.32H2.464L1.687.54Z" transform="translate(0.592 0.351)"
                                    fill="none" fill-rule="evenodd" />
                                <path id="Path_1670"
                                    d="M1.941,0,0,4.45H.776l.445-1.057H3.336L3.781,4.45h.835L2.675,0ZM1.5,2.671,2.272.89l.776,1.781Z"
                                    transform="translate(0)" fill="#005b4e" />
                            </g>
                            <path id="Path_1160_2_"
                                d="M71.332,37.824c0,4.925-3.465,8.412-9.2,8.412a12.361,12.361,0,0,1-9.883-4.406l3.862-3.719A7.729,7.729,0,0,0,62.243,41.2a3.117,3.117,0,0,0,2.33-.633,3.162,3.162,0,0,0,1.192-2.114V38c0-2.06-1.822-3.258-5-3.258H58.434l-.909-3.491,8.179-8.24-3.237,2.056h-8.69V20.256H70.936V24.49l-6.418,6.18c3.465.572,6.816,2.4,6.816,7.153ZM55.425,8.641a4.13,4.13,0,0,1,3.753-4.235H61.9l-.739.286v6.3a3.921,3.921,0,0,0,.114,1.145.624.624,0,0,0,.227.515H59.343a3.992,3.992,0,0,1-3.918-4ZM59.4,13.965h2.329v-.8l.114.114a3.918,3.918,0,0,0,.739.63,6.564,6.564,0,0,0,1.023.229H83.883V3.377H82.747v9.441H63.489a.839.839,0,0,1-.511-.114l-.284-.286c-.114-.229-.114-.286-.227-.515V3.377H59.4a5.26,5.26,0,0,0-5.225,5.035v.229a5.148,5.148,0,0,0,5,5.264c.114-.057.114-.057.227.057ZM91.832,2.232H89.5V1.316a2.154,2.154,0,0,1,.284-1.03A2.114,2.114,0,0,1,90.81,0H91.6V.744H90.81c-.17,0-.4.114-.4.286v.4h1.42Zm2.84,11.846a2.484,2.484,0,0,1-.909-.114l.284-1.03.284.114h.284a.839.839,0,0,0,.511-.114l.284-.286c.114-.229.114-.286.227-.515V3.377h1.136v7.781a3.921,3.921,0,0,1-.114,1.145l-.284.916a3.918,3.918,0,0,1-.739.63,4.78,4.78,0,0,1-.966.229ZM62.468,2.232H61.331V1.145h1.136ZM86.948,6.18a1.991,1.991,0,0,1,.739-.8,2.874,2.874,0,0,1,.909-.515,6.657,6.657,0,0,1,1.136-.229h1.814l-.625.286V9.957h-1.25a4.8,4.8,0,0,1-1.25-.229,2.874,2.874,0,0,1-.909-.515,1.719,1.719,0,0,1-.625-.8,2.579,2.579,0,0,1-.23-1.147,1.84,1.84,0,0,1,.284-1.087Zm-.007,3.89a4,4,0,0,0,1.42.63,16.409,16.409,0,0,0,1.761.229h.284l.4-.744v1.145a1.412,1.412,0,0,1-.511,1.259,2.076,2.076,0,0,1-1.42.4,2.484,2.484,0,0,1-.909-.114l-.909-.286-.284,1.03c.4.114.739.286,1.136.4a6.214,6.214,0,0,0,1.023.114,2.931,2.931,0,0,0,2.329-.8A3.062,3.062,0,0,0,92,11.272v-7.9H90.185a6.357,6.357,0,0,0-1.818.286c-.511.229-1.023.515-1.534.8a2.875,2.875,0,0,0-.909,1.259,3.722,3.722,0,0,0-.284,1.547,3.406,3.406,0,0,0,.4,1.66,1.433,1.433,0,0,0,.909,1.145ZM60.252,2.232H59.116V1.145h1.136ZM48.723,3.377h1.136V13.842H48.95l-7.5-9.437.625,1.545v7.891h-1.13V3.377h1.136l7.043,9.041-.4-1.259ZM5.276,13.962.784,3.377H2.091l.625,1.548,3.066,7.492.287.744-.114-1.145L9.531,3.377h1.25L6.293,13.962ZM25.151,3.377H26.4V13.842h-1.25ZM37.817,8.641a4.085,4.085,0,0,1-3.862,4.291h-.227a4.225,4.225,0,0,1-4.1-4.234V8.583a4.085,4.085,0,0,1,3.862-4.291h.227a4.225,4.225,0,0,1,4.1,4.234ZM33.721,3.2a5.414,5.414,0,0,0-5.4,5.264V8.7a5.426,5.426,0,0,0,2.462,4.812,5.34,5.34,0,0,0,5.368.258,5.417,5.417,0,0,0,2.905-4.554V8.7a5.24,5.24,0,0,0-1.393-3.785,5.162,5.162,0,0,0-3.657-1.65h-.284Zm-10.5,7.9c0,1.831-1.534,2.976-3.579,2.976a5.658,5.658,0,0,1-4.259-1.66l.739-.916A4.606,4.606,0,0,0,19.7,12.932c1.42,0,2.329-.744,2.329-1.774,0-.916-.511-1.545-2.727-1.946C16.858,8.7,15.836,7.9,15.836,6.121A3.117,3.117,0,0,1,19.131,3.2h.17a5.721,5.721,0,0,1,3.691,1.323l-.739.916A4.635,4.635,0,0,0,19.186,4.3c-1.307,0-2.216.744-2.216,1.774s.511,1.545,2.84,2.06,3.409,1.316,3.409,2.976Zm-9.713,2.742H12.371V3.377h1.25ZM82.119,15.1h1.136v1.145H82.119Zm-2.1,0h1.136v1.145H80.017ZM10.156,40.97h9.713v4.806H1.012V41.371L9.475,34.39c3.181-2.575,4.373-4,4.373-6.18A2.994,2.994,0,0,0,13.167,26a2.949,2.949,0,0,0-2.046-1.052h-.68c-1.931,0-3.238,1.145-5.225,3.377L1.352,25.235c2.613-3.377,4.941-5.207,9.542-5.207,5.225,0,8.747,3.091,8.747,7.9v.114c0,4.291-2.159,6.351-6.645,9.843L7.258,42.115l-1.136.8Zm83.72-7.9a7.539,7.539,0,0,1-1.918,5.438,7.428,7.428,0,0,1-5.182,2.459h-.454a7.738,7.738,0,0,1-7.663-7.72v-.343a7.539,7.539,0,0,1,1.918-5.438,7.428,7.428,0,0,1,5.182-2.459h.454a7.738,7.738,0,0,1,7.663,7.72ZM86.322,19.8A13.21,13.21,0,0,0,72.747,32.56v.515A13.043,13.043,0,0,0,85.64,46.235h.568A13.21,13.21,0,0,0,99.784,33.474v-.515A13.044,13.044,0,0,0,86.891,19.8h-.569Z"
                                transform="translate(-0.784)" fill="#005b4e" />
                        </g>
                    </g>
                </svg>