<?xml version="1.0" encoding="UTF-8"?>
<svg width="161px" height="72px" viewBox="0 0 161 72" version="1.1" xmlns="http://www.w3.org/2000/svg" xmlns:xlink="http://www.w3.org/1999/xlink">
    <title>3CE5FE41-5ACA-4AE9-9C67-B4B0361433C6</title>
    <defs>
        <rect id="path-1" x="0" y="0" width="161" height="72"></rect>
        <rect id="path-3" x="0" y="0" width="15.8712174" height="10.7147846"></rect>
        <path d="M9.48475434,0.00465657742 C5.36832178,0.050868782 1.81386653,2.91384056 0.870670809,6.94295693 L0,10.7147846 L0,10.7147846 C0.703946611,10.5192084 1.42641813,10.3608847 2.15352088,10.2165308 L2.80652399,7.39464494 C3.53957083,4.24693835 6.32510929,2.01632651 9.54032908,2.00232829 C10.2276572,2.00176602 10.911263,2.10376966 11.5688068,2.30500582 L14.278075,3.1338766 C14.7605804,2.55324882 15.2937504,2.01716037 15.8712174,1.53201397 L12.1662352,0.39580908 C11.3378759,0.139097744 10.4765914,0.00574646674 9.60979749,0 L9.48475434,0.00465657742 Z" id="path-5"></path>
        <linearGradient x1="38.2996371%" y1="68.0576923%" x2="111.757387%" y2="68.0576923%" id="linearGradient-7">
            <stop stop-color="#FFFFFF" offset="0%"></stop>
            <stop stop-color="#1F754A" offset="100%"></stop>
        </linearGradient>
        <rect id="path-8" x="0" y="0" width="15.1394834" height="10.1513388"></rect>
        <path d="M5.66399149,0.0465657742 C4.80206943,0.0562633793 3.94593061,0.189542299 3.12144747,0.442374854 L0,1.37369034 C0.272611592,1.97938319 0.507709158,2.60144742 0.703946611,3.2363213 L3.69571971,2.30500582 C5.53054254,1.75037588 7.5117194,1.98230978 9.17072921,2.94595834 C10.829739,3.9096069 12.0192657,5.51940044 12.4580025,7.39464494 L13.0322748,9.85797439 C13.739974,9.91484557 14.4436415,10.0143647 15.1394834,10.1559953 L14.3938557,6.93830035 C13.4553084,2.91396852 9.90897311,0.0513809477 5.79829709,0 L5.66399149,0.0465657742 Z" id="path-10"></path>
        <linearGradient x1="27.1963277%" y1="38.0497132%" x2="95.6991525%" y2="38.0497132%" id="linearGradient-12">
            <stop stop-color="#FFFFFF" offset="0%"></stop>
            <stop stop-color="#1F754A" offset="100%"></stop>
        </linearGradient>
        <rect id="path-13" x="0" y="0" width="6.3679381" height="18.4912689"></rect>
        <path d="M2.82119707,2.75203725 C1.02129185,4.44762299 0,6.81689061 0,9.29685681 C0,11.776823 1.02129185,14.1460906 2.82119707,15.8416764 L5.59993369,18.4726426 C5.75984675,17.7529768 5.98621488,17.0498888 6.27609294,16.3725262 L4.1642531,14.3841676 C2.76882299,13.0641476 1.97754714,11.2232662 1.97754714,9.29685681 C1.97754714,7.37044738 2.76882299,5.52956603 4.1642531,4.20954598 L6.36871749,2.16996508 C6.14178733,1.45285215 5.93338209,0.731082654 5.76665789,0 L2.82119707,2.75203725 Z" id="path-15"></path>
        <linearGradient x1="17.0207192%" y1="70.3304982%" x2="88.3948559%" y2="70.3304982%" id="linearGradient-17">
            <stop stop-color="#FFFFFF" offset="0%"></stop>
            <stop stop-color="#1F754A" offset="100%"></stop>
        </linearGradient>
        <rect id="path-18" x="0" y="0" width="6.15027039" height="16.9639115"></rect>
        <path d="M0,2.16996508 L1.96827178,4.03259604 C3.36370189,5.35261609 4.15497774,7.19349744 4.15497774,9.11990687 C4.15497774,11.0463163 3.36370189,12.8871977 1.96827178,14.2072177 L0.722471522,15.3806752 C1.26793287,15.7855705 1.69243684,16.3331983 1.94974686,16.9639115 L1.94974686,16.9639115 L3.33911518,15.6647264 C5.1390204,13.9691407 6.16031224,11.5998731 6.16031224,9.11990687 C6.16031224,6.63994067 5.1390204,4.27067305 3.33911518,2.57508731 L0.597428374,0 C0.440305869,0.736486893 0.243967957,1.46396008 0.00926245541,2.17927823" id="path-20"></path>
        <linearGradient x1="73.9273927%" y1="44.6789133%" x2="73.9273927%" y2="-17.7272962%" id="linearGradient-22">
            <stop stop-color="#FFFFFF" offset="0%"></stop>
            <stop stop-color="#1F754A" offset="100%"></stop>
        </linearGradient>
        <rect id="path-23" x="0" y="0" width="15.5146128" height="10.4074505"></rect>
        <path d="M2.03310896,0 L1.46346796,0.0325960419 C0.976262945,0.0675020191 0.487205011,0.0675020191 0,0.0325960419 L0,0.0325960419 L0.801202393,3.48777648 C1.36637165,5.89966125 2.89879866,7.9689605 5.03490132,9.20471438 C7.17100398,10.4404683 9.72040709,10.7325431 12.0782419,10.0116414 L15.5146128,8.95925495 C15.324598,8.69483255 15.1498665,8.41964002 14.9912841,8.13504075 C14.7372022,7.86300084 14.533333,7.54763911 14.3892245,7.20372526 L11.4993384,8.08381839 C9.66903713,8.63925083 7.69197811,8.4116859 6.03386701,7.4547276 C4.37575591,6.4977693 3.18317976,4.89601853 2.73705557,3.02677532 L2.03774019,0.00931315483 L2.03310896,0 Z" id="path-25"></path>
        <linearGradient x1="13.5360908%" y1="47.2776546%" x2="63.0089213%" y2="47.2776546%" id="linearGradient-27">
            <stop stop-color="#FFFFFF" offset="0%"></stop>
            <stop stop-color="#1F754A" offset="100%"></stop>
        </linearGradient>
        <rect id="path-28" x="0" y="0" width="15.5562939" height="9.82537835"></rect>
        <path d="M13.4490853,0.190919674 L12.9535439,2.41676368 C12.5117602,4.29051717 11.3202153,5.8977579 9.66049178,6.85866704 C8.00076826,7.81957619 6.02012772,8.04889557 4.18662985,7.49243306 L1.15780693,6.56111758 C0.736008394,7.11346501 0.349303975,7.69203081 0,8.29336438 L3.61235761,9.39697322 C4.4312976,9.64569505 5.28095922,9.77736889 6.13637671,9.78812573 L6.30310091,9.78812573 C10.4025299,9.74114908 13.9434162,6.89331879 14.8893971,2.88242142 L15.5562939,0 L15.5562939,0 C14.8569785,0.0884749709 14.1669256,0.153667055 13.4676102,0.214202561" id="path-30"></path>
        <linearGradient x1="39.0361751%" y1="68.1923804%" x2="94.5636226%" y2="68.1923804%" id="linearGradient-32">
            <stop stop-color="#FFFFFF" offset="0%"></stop>
            <stop stop-color="#1F754A" offset="100%"></stop>
        </linearGradient>
        <rect id="path-33" x="0" y="0" width="9.47549189" height="14.4866123"></rect>
        <path d="M6.70601772,1.52270081 L7.19229663,3.12922002 C7.74390724,4.97408603 7.51323596,6.96610715 6.55483336,8.63419779 C5.59643076,10.3022884 3.99540069,11.4983262 2.13036475,11.9394645 L0.500172592,12.3213038 L0,14.4866123 L0,14.4866123 L2.57959383,13.8859139 C4.97675885,13.3153544 7.03275256,11.7738823 8.26061041,9.62659721 C9.48846826,7.47931209 9.77897097,4.91721724 9.06331262,2.54714785 L8.29452882,0 L6.70601772,1.52270081 Z" id="path-35"></path>
        <linearGradient x1="17.7486688%" y1="46.4465335%" x2="90.086262%" y2="46.4465335%" id="linearGradient-37">
            <stop stop-color="#FFFFFF" offset="0%"></stop>
            <stop stop-color="#1F754A" offset="100%"></stop>
        </linearGradient>
        <rect id="path-38" x="0" y="0" width="9.47549189" height="14.4866123"></rect>
        <path d="M0.384311806,2.54249127 C-0.332119455,4.91648758 -0.0385373315,7.48282126 1.1952501,9.63126843 C2.42903752,11.7797156 4.49280099,13.3183293 6.89581796,13.8812573 L9.47541179,14.4819558 L8.97060797,12.3166473 L7.34504705,11.9348079 C5.48193783,11.4924806 3.88294336,10.2967164 2.92562075,8.62986111 C1.96829814,6.96300582 1.73750856,4.97281658 2.28774639,3.12922002 L2.75086916,1.52270081 L1.13457069,0 L0.384311806,2.54249127 Z" id="path-40"></path>
        <linearGradient x1="24.1553869%" y1="67.4893706%" x2="107.524127%" y2="67.4893706%" id="linearGradient-42">
            <stop stop-color="#FFFFFF" offset="0%"></stop>
            <stop stop-color="#1F754A" offset="100%"></stop>
        </linearGradient>
        <rect id="path-43" x="0" y="0" width="16.6353699" height="5.42956927"></rect>
        <path d="M0,0.628637951 L1.81081003,2.57043073 C3.49716526,4.380188 5.85353494,5.40707004 8.32000058,5.40707004 C10.7864662,5.40707004 13.1428359,4.380188 14.8291911,2.57043073 L16.6353699,0.628637951 L14.5188989,0 L13.3796168,1.22467986 C12.0667828,2.62774806 10.2359229,3.42335509 8.32000058,3.42335509 C6.40407823,3.42335509 4.57321836,2.62774806 3.26038431,1.22467986 L2.11647106,0 L0,0.628637951 Z" id="path-45"></path>
        <linearGradient x1="15.3600741%" y1="51.2906872%" x2="100.21578%" y2="51.2906872%" id="linearGradient-47">
            <stop stop-color="#FFFFFF" offset="0%"></stop>
            <stop stop-color="#1F754A" offset="100%"></stop>
        </linearGradient>
        <rect id="path-48" x="0" y="0" width="16.6353699" height="5.42956927"></rect>
        <path d="M1.81081003,2.85060904 L0,4.7970584 L2.11647106,5.44432266 L3.26038431,4.20567307 C4.57321836,2.80260486 6.40407823,2.00699784 8.32000058,2.00699784 C10.2359229,2.00699784 12.0667828,2.80260486 13.3796168,4.20567307 L14.5188989,5.43035293 L16.6353699,4.78308867 L14.8291911,2.83663931 C13.1428359,1.02688204 10.7864662,0 8.32000058,0 C5.85353494,0 3.49716526,1.02688204 1.81081003,2.83663931" id="path-50"></path>
        <linearGradient x1="49.9053004%" y1="62.4124386%" x2="145.170318%" y2="62.4124386%" id="linearGradient-52">
            <stop stop-color="#FFFFFF" offset="0%"></stop>
            <stop stop-color="#1F754A" offset="100%"></stop>
        </linearGradient>
        <rect id="path-53" x="0" y="0" width="9.47549189" height="14.4866123"></rect>
        <path d="M6.89574233,0.605355064 C4.49306585,1.16717537 2.42929942,2.7048564 1.19542271,4.85257666 C-0.0384540031,7.00029692 -0.332139211,9.56606203 0.384236169,11.9394645 L1.15301997,14.4866123 L2.76931844,12.9685681 L2.30619567,11.3620489 C1.75447323,9.51783335 1.98452428,7.52640536 2.94197562,5.85844433 C3.89942696,4.1904833 5.499313,2.99400649 7.36349632,2.55180442 L8.98905725,2.16996508 L9.49386107,0 L6.89574233,0.605355064 Z" id="path-55"></path>
        <linearGradient x1="30.2021019%" y1="51.9174586%" x2="108.940986%" y2="51.9174586%" id="linearGradient-57">
            <stop stop-color="#FFFFFF" offset="0%"></stop>
            <stop stop-color="#1F754A" offset="100%"></stop>
        </linearGradient>
        <rect id="path-58" x="0" y="0" width="9.47549189" height="14.4866123"></rect>
        <path d="M0,0 L0,0 L0.500172592,2.16996508 L2.13036475,2.55180442 C3.99454807,2.99400649 5.5944341,4.1904833 6.55188545,5.85844433 C7.50933679,7.52640536 7.73938784,9.51783335 7.1876654,11.3620489 L6.70138649,12.9685681 L8.31768496,14.4866123 L9.07257508,11.9394645 C9.78817332,9.56999027 9.49756635,7.00846709 8.26962053,4.86191004 C7.04167471,2.71535298 4.98568074,1.17481179 2.58885629,0.605355064 L0,0 Z" id="path-60"></path>
        <linearGradient x1="70.6464032%" y1="66.4153036%" x2="70.6464032%" y2="-43.4821181%" id="linearGradient-62">
            <stop stop-color="#FFFFFF" offset="0%"></stop>
            <stop stop-color="#1F754A" offset="100%"></stop>
        </linearGradient>
        <rect id="path-63" x="0" y="0" width="22.2206305" height="29.0756694"></rect>
        <path d="M1.61166724,13.9231665 C0.579836967,14.9605388 0,16.3675507 0,17.8346915 L0,27.3434226 C0.00125737101,28.0411944 0.41986434,28.6696987 1.06108368,28.9365535 C1.70230303,29.2034082 2.44022542,29.0562139 2.93156714,28.5634459 L21.3870096,10.0069849 C21.9148855,9.4788231 22.2144107,8.7627204 22.2206305,8.01396973 L22.2206305,7.94412107 C22.2141952,7.1967802 21.9146095,6.48220618 21.3870096,5.95576251 L15.4544069,0 L1.61166724,13.9231665 Z" id="path-65"></path>
        <linearGradient x1="46.0788216%" y1="51.0532129%" x2="66.1330921%" y2="51.0532129%" id="linearGradient-67">
            <stop stop-color="#FFFFFF" offset="0%"></stop>
            <stop stop-color="#1F754A" offset="66%"></stop>
            <stop stop-color="#1F754A" offset="100%"></stop>
        </linearGradient>
        <path d="M0,1.72779173 L0,11.2071134 C0,12.6704332 0.574005199,14.0737806 1.59544646,15.1084511 L15.3079792,29 L21.1716801,23.0597489 C21.7019342,22.5246402 22,21.7976349 22,21.0394133 C22,20.2811918 21.7019342,19.5541864 21.1716801,19.0190777 L2.9020569,0.510945926 C2.59106346,0.18450434 2.16247656,0 1.71464601,0 C1.26036894,-0.0036667237 0.823499642,0.176866614 0.501406676,0.501419572 C0.179313711,0.82597253 -0.00123303409,1.26757076 0,1.72779173" id="path-68"></path>
        <linearGradient x1="52.0195462%" y1="-95.4124633%" x2="52.0195462%" y2="54.9514749%" id="linearGradient-70">
            <stop stop-color="#FFFFFF" offset="0%"></stop>
            <stop stop-color="#06675E" offset="100%"></stop>
        </linearGradient>
        <rect id="path-71" x="0" y="0" width="161" height="72"></rect>
    </defs>
    <g id="Landing-Page-" stroke="none" stroke-width="1" fill="none" fill-rule="evenodd">
        <g id="Landing-page-v2/2" transform="translate(-1054.000000, -2099.000000)">
            <g id="Group-25" transform="translate(171.000000, 1957.000000)">
                <g id="try-01" transform="translate(883.000000, 142.000000)">
                    <g id="Clipped">
                        <mask id="mask-2" fill="white">
                            <use xlink:href="#path-1"></use>
                        </mask>
                        <g id="Rectangle"></g>
                        <g id="Group" mask="url(#mask-2)">
                            <g transform="translate(89.391957, 0.000000)">
                                <path d="M49.2670003,68.3818393 C48.3835233,68.3803932 47.5050386,68.2486052 46.6596191,67.9906868 L40.2546312,66.0349243 C37.3550529,65.1455941 34.2576211,65.1455941 31.3580428,66.0349243 L24.9530549,67.9860303 C22.5958669,68.7070434 20.0470545,68.4155918 17.9110812,67.1807948 C15.7751078,65.9459977 14.2422438,63.8778495 13.6760154,61.4668219 L12.1569727,54.9150175 C11.4720178,51.9459998 9.92443705,49.2488435 7.71099413,47.1664726 L2.8250489,42.5657742 C1.02514368,40.8701884 0.00385183407,38.5009208 0.00385183407,36.0209546 C0.00385183407,33.5409884 1.02514368,31.1717208 2.8250489,29.476135 L7.71099413,24.8800931 C9.92443705,22.7977222 11.4720178,20.100566 12.1569727,17.1315483 L13.6760154,10.5750873 C14.2434689,8.16480105 15.7765494,6.09755356 17.912145,4.86297485 C20.0477406,3.62839614 22.5958878,3.33630332 24.9530549,4.05587893 L31.3580428,6.01164144 C34.2582862,6.89647598 37.3543878,6.89647598 40.2546312,6.01164144 L46.6596191,4.05587893 C49.0194529,3.33547427 51.5706571,3.63014454 53.7065554,4.86981715 C55.8424536,6.10948975 57.3722024,8.18339937 57.9320274,10.5983702 L59.4510701,17.1548312 C60.1457868,20.1076669 61.6943986,22.7876087 63.9016799,24.8568102 L68.7829939,29.4528522 C70.5854116,31.1470307 71.6084838,33.5168226 71.6084838,35.9976717 C71.6084838,38.4785208 70.5854116,40.8483127 68.7829939,42.5424913 L63.9016799,47.1431898 C61.6847623,49.2235283 60.1351995,51.9213286 59.4510701,54.8917346 L57.9320274,61.4668219 C56.9933919,65.5201544 53.4060815,68.392602 49.2670003,68.4051222 M22.3456737,5.61583005 C19.1304539,5.62983058 16.3449154,7.86044242 15.6118686,11.008149 L14.0928259,17.5599534 C13.3193504,20.9149357 11.5701078,23.9624716 9.06794385,26.314319 L4.18199862,30.9150175 C2.78180634,32.2314132 1.98706884,34.0725775 1.98706884,36 C1.98706884,37.9274225 2.78180634,39.7685868 4.18199862,41.0849825 L9.06794385,45.685681 C11.5690973,48.0364507 13.3182363,51.0821852 14.0928259,54.43539 L15.6118686,61.0011641 C16.0516634,62.8755514 17.2416268,64.4841946 18.9005077,65.4468867 C20.5593886,66.4095788 22.5399755,66.6408891 24.3741514,66.0861467 L30.7791393,64.1350407 C34.0543633,63.1291038 37.5536795,63.1291038 40.8289035,64.1350407 L47.2292602,66.0768335 C49.062758,66.633296 51.0433986,66.4039767 52.7031221,65.4430675 C54.3628456,64.4821584 55.5543906,62.8749176 55.9961742,61.0011641 L57.5152169,54.4447031 C58.2916437,51.0922277 60.0404921,48.046999 62.540099,45.6949942 L67.4260442,41.0942957 C68.8262365,39.7778999 69.620974,37.9367357 69.620974,36.0093132 C69.620974,34.0818906 68.8262365,32.2407264 67.4260442,30.9243306 L62.540099,26.3236321 C60.039484,23.9705479 58.2905325,20.923519 57.5152169,17.5692666 L55.9961742,11.0174622 C55.5596833,9.13942246 54.370323,7.52642848 52.7099541,6.56073615 C51.0495852,5.59504382 49.0659932,5.36260703 47.2292602,5.9185099 L40.8242722,7.87427241 C37.5483384,8.87541835 34.0504419,8.87541835 30.7745081,7.87427241 L24.3695202,5.9185099 C23.7119763,5.71727374 23.0283705,5.61583005 22.3410425,5.61583005" id="Shape" fill="#46B978" fill-rule="nonzero"></path>
                                <g id="Group" opacity="0.66" style="mix-blend-mode: multiply;" stroke-width="1" fill="none" fill-rule="evenodd" transform="translate(12.800713, 3.613504)">
                                    <g id="Clipped">
                                        <mask id="mask-4" fill="white">
                                            <use xlink:href="#path-3"></use>
                                        </mask>
                                        <g id="Rectangle"></g>
                                        <g mask="url(#mask-4)">
                                            <g transform="translate(0.004631, -0.004657)">
                                                <mask id="mask-6" fill="white">
                                                    <use xlink:href="#path-5"></use>
                                                </mask>
                                                <g id="Path" stroke="none" fill="none"></g>
                                                <polygon id="Rectangle" stroke="none" fill="url(#linearGradient-7)" fill-rule="nonzero" mask="url(#mask-6)" transform="translate(7.934917, 5.371604) rotate(-13.060000) translate(-7.934917, -5.371604) " points="-0.992803283 -1.63776558 16.8794671 -1.65929364 16.8626374 12.380973 -1.00963298 12.4025011"></polygon>
                                            </g>
                                        </g>
                                    </g>
                                </g>
                                <g id="Group" opacity="0.66" style="mix-blend-mode: multiply;" stroke-width="1" fill="none" fill-rule="evenodd" transform="translate(43.538172, 3.613504)">
                                    <g id="Clipped">
                                        <mask id="mask-9" fill="white">
                                            <use xlink:href="#path-8"></use>
                                        </mask>
                                        <g id="Rectangle"></g>
                                        <g mask="url(#mask-9)">
                                            <g transform="translate(0.000000, -0.046566)">
                                                <mask id="mask-11" fill="white">
                                                    <use xlink:href="#path-10"></use>
                                                </mask>
                                                <g id="Path" stroke="none" fill="none"></g>
                                                <polygon id="Rectangle" stroke="none" fill="url(#linearGradient-12)" fill-rule="nonzero" mask="url(#mask-11)" transform="translate(7.575296, 5.126805) rotate(-77.590000) translate(-7.575296, -5.126805) " points="0.993006696 -3.34526669 14.177063 -3.36033438 14.1575847 13.5988764 0.973528395 13.6139441"></polygon>
                                            </g>
                                        </g>
                                    </g>
                                </g>
                                <g id="Group" opacity="0.66" style="mix-blend-mode: multiply;" stroke-width="1" fill="none" fill-rule="evenodd" transform="translate(0.000000, 26.682189)">
                                    <g id="Clipped">
                                        <mask id="mask-14" fill="white">
                                            <use xlink:href="#path-13"></use>
                                        </mask>
                                        <g id="Rectangle"></g>
                                        <g mask="url(#mask-14)">
                                            <g transform="translate(0.003852, 0.018626)">
                                                <mask id="mask-16" fill="white">
                                                    <use xlink:href="#path-15"></use>
                                                </mask>
                                                <g id="Path" stroke="none" fill="none"></g>
                                                <polygon id="Rectangle" stroke="none" fill="url(#linearGradient-17)" fill-rule="nonzero" mask="url(#mask-16)" transform="translate(3.184038, 9.235826) rotate(-73.110000) translate(-3.184038, -9.235826) " points="-6.57922513 3.53068816 12.9647014 3.50109659 12.9473017 14.9408809 -6.59662483 14.9704725"></polygon>
                                            </g>
                                        </g>
                                    </g>
                                </g>
                                <g id="Group" opacity="0.66" style="mix-blend-mode: multiply;" stroke-width="1" fill="none" fill-rule="evenodd" transform="translate(65.457772, 26.877765)">
                                    <g id="Clipped">
                                        <mask id="mask-19" fill="white">
                                            <use xlink:href="#path-18"></use>
                                        </mask>
                                        <g id="Rectangle"></g>
                                        <g mask="url(#mask-19)">
                                            <g transform="translate(0.000000, 0.009313)">
                                                <mask id="mask-21" fill="white">
                                                    <use xlink:href="#path-20"></use>
                                                </mask>
                                                <g id="Path" stroke="none" fill="none"></g>
                                                <polygon id="Rectangle" stroke="none" fill="url(#linearGradient-22)" fill-rule="nonzero" mask="url(#mask-21)" transform="translate(3.078714, 8.484797) rotate(-24.660000) translate(-3.078714, -8.484797) " points="-3.22340638 -0.492322587 9.41798571 -0.518534602 9.38083481 17.4619175 -3.26055728 17.4881296"></polygon>
                                            </g>
                                        </g>
                                    </g>
                                </g>
                                <g id="Group" opacity="0.66" style="mix-blend-mode: multiply;" stroke-width="1" fill="none" fill-rule="evenodd" transform="translate(12.874813, 57.974389)">
                                    <g id="Clipped">
                                        <mask id="mask-24" fill="white">
                                            <use xlink:href="#path-23"></use>
                                        </mask>
                                        <g id="Rectangle"></g>
                                        <g mask="url(#mask-24)">
                                            <g transform="translate(0.000000, 0.000000)">
                                                <mask id="mask-26" fill="white">
                                                    <use xlink:href="#path-25"></use>
                                                </mask>
                                                <g id="Path" stroke="none" fill="none"></g>
                                                <polygon id="Rectangle" stroke="none" fill="url(#linearGradient-27)" fill-rule="nonzero" mask="url(#mask-26)" transform="translate(7.522665, 4.988754) rotate(-59.331073) translate(-7.522665, -4.988754) " points="-1.05361815 -4.4017292 16.1440849 -4.44286226 16.0989487 14.3792379 -1.09875443 14.420371"></polygon>
                                            </g>
                                        </g>
                                    </g>
                                </g>
                                <g id="Group" opacity="0.66" style="mix-blend-mode: multiply;" stroke-width="1" fill="none" fill-rule="evenodd" transform="translate(43.042630, 58.561118)">
                                    <g id="Clipped">
                                        <mask id="mask-29" fill="white">
                                            <use xlink:href="#path-28"></use>
                                        </mask>
                                        <g id="Rectangle"></g>
                                        <g mask="url(#mask-29)">
                                            <g transform="translate(0.000000, 0.023283)">
                                                <mask id="mask-31" fill="white">
                                                    <use xlink:href="#path-30"></use>
                                                </mask>
                                                <g id="Path" stroke="none" fill="none"></g>
                                                <polygon id="Rectangle" stroke="none" fill="url(#linearGradient-32)" fill-rule="nonzero" mask="url(#mask-31)" transform="translate(7.780706, 4.889140) rotate(-36.780000) translate(-7.780706, -4.889140) " points="-1.36838168 -3.6870121 16.9747852 -3.73506739 16.9297934 13.4652919 -1.41337349 13.5133472"></polygon>
                                            </g>
                                        </g>
                                    </g>
                                </g>
                                <path d="M35.8040214,72.0000616 L35.8040214,72.0000616 C33.3355731,72.0090784 30.9759967,70.9790286 29.2971465,69.1594878 L24.7214935,64.2607683 C22.6504587,62.0352098 19.9679854,60.4791581 17.0151306,59.790454 L10.4989932,58.2630966 C8.09597624,57.7001686 6.03221277,56.1615549 4.79842534,54.0131078 C3.56463792,51.8646606 3.27105579,49.2983269 3.98748706,46.9243306 L5.93260269,40.4842841 C6.8170915,37.5688345 6.8170915,34.4544484 5.93260269,31.5389988 L3.98748706,25.0989523 C3.27111168,22.7255498 3.56479688,20.1597847 4.7986736,18.0120644 C6.03255031,15.8643442 8.09631674,14.3266631 10.4989932,13.7648428 L17.0151306,12.2374854 C19.9679854,11.5487813 22.6504587,9.99272965 24.7214935,7.76717113 L29.2971465,2.84982538 C30.9835017,1.04006811 33.3398714,0.0131860725 35.806337,0.0131860725 C38.2728027,0.0131860725 40.6291723,1.04006811 42.3155276,2.84982538 L46.8911805,7.76717113 C48.960967,9.99193703 51.6417213,11.5479266 54.5929122,12.2374854 L61.1229433,13.7508731 C63.5205052,14.3190969 65.5773958,15.8594201 66.805559,18.0063573 C68.0337223,20.1532945 68.3236911,22.7154873 67.6066621,25.0849825 L65.6615464,31.5250291 C64.7815288,34.4411474 64.7815288,37.554196 65.6615464,40.4703143 L67.6066621,46.9103609 C68.3223204,49.2804303 68.0318177,51.8425251 66.8039599,53.9898102 C65.576102,56.1370954 63.5201083,57.6785674 61.1229433,58.2491269 L54.6021747,59.7764843 C51.6509837,60.4660432 48.9702295,62.0220327 46.900443,64.2467986 L42.32479,69.1594878 C40.6441766,70.9792712 38.283108,72.0092394 35.8132839,72.0000616 M35.8132839,1.99767171 C33.8934686,1.9836243 32.0555502,2.77864324 30.7467207,4.19091967 L26.1710678,9.10360885 C23.8318669,11.6168976 20.8032159,13.3753187 17.4689909,14.1559953 L10.9482223,15.6833527 C9.08403897,16.1255548 7.48415294,17.3220316 6.5267016,18.9899926 C5.56925025,20.6579537 5.3391992,22.6493817 5.89092164,24.4935972 L7.83140605,30.9336438 C8.83186684,34.2267952 8.83186684,37.7452654 7.83140605,41.0384168 L5.89092164,47.4970896 C5.3391992,49.3413052 5.56925025,51.3327332 6.5267016,53.0006942 C7.48415294,54.6686552 9.08403897,55.865132 10.9482223,56.3073341 L17.4689909,57.8346915 C20.8019247,58.6052131 23.8312747,60.3559348 26.1710678,62.8637951 L30.7467207,67.7764843 C32.0595548,69.1795525 33.8904147,69.9751595 35.806337,69.9751595 C37.7222594,69.9751595 39.5531192,69.1795525 40.8659533,67.7764843 L45.4416063,62.8637951 C47.7767502,60.3453742 50.8070654,58.5859869 54.1436831,57.8114086 L60.6598205,56.3026775 C62.5237824,55.8614133 64.1239205,54.666088 65.0821942,52.9991033 C66.0404679,51.3321185 66.2718779,49.3413365 65.7217524,47.4970896 L63.7766368,41.0570431 C62.7809409,37.763178 62.7809409,34.2461352 63.7766368,30.9522701 L65.7217524,24.5122235 C66.2748494,22.666739 66.0449177,20.6734782 65.086386,19.0042811 C64.1278543,17.3350841 62.5259313,16.1383339 60.6598205,15.6973225 L54.1390519,14.1699651 C50.8039976,13.3914001 47.7747715,11.6326451 45.436975,9.11757858 L40.8659533,4.19091967 C39.5603225,2.77516066 37.7242294,1.97454598 35.8040214,1.9836243" id="Shape" fill="#46B978" fill-rule="nonzero"></path>
                                <path d="M5.40001151,42.2351572 L7.01630998,43.7718277 L7.83140605,41.0710128 C8.83186684,37.7778614 8.83186684,34.2593912 7.83140605,30.9662398 L7.01630998,28.2607683 L5.40001151,29.7834692 L5.93260269,31.5436554 C6.8170915,34.459105 6.8170915,37.573491 5.93260269,40.4889406 L5.40001151,42.2351572 Z" id="Path" fill="#46B978" fill-rule="nonzero"></path>
                                <path d="M17.4689909,14.1699651 C20.8032159,13.3892884 23.8318669,11.6308674 26.1710678,9.11757858 L28.0930273,7.05471478 L25.971925,6.40745052 L24.7214935,7.7532014 C22.6504587,9.97875992 19.9679854,11.5348116 17.0151306,12.2235157 L15.2321079,12.6426077 L14.7319353,14.8079162 L17.4689909,14.1699651 Z" id="Path" fill="#46B978" fill-rule="nonzero"></path>
                                <path d="M45.4416063,9.11757858 C47.7794027,11.6326451 50.8086288,13.3914001 54.1436831,14.1699651 L56.8807387,14.8079162 L56.3759349,12.6426077 L54.5929122,12.2235157 C51.6417213,11.5339568 48.960967,9.9779673 46.8911805,7.7532014 L45.6361178,6.40745052 L43.524278,7.05471478 L45.4416063,9.11757858 Z" id="Path" fill="#46B978" fill-rule="nonzero"></path>
                                <path d="M54.1436831,57.8300349 C50.8100974,58.6015823 47.7806131,60.3540027 45.4416063,62.8637951 L43.524278,64.9452852 L45.6407491,65.5925495 L46.8958118,64.2467986 C48.9655983,62.0220327 51.6463525,60.4660432 54.5975434,59.7764843 L56.3805661,59.3573923 L56.8853699,57.1874272 L54.1436831,57.8300349 Z" id="Path" fill="#46B978" fill-rule="nonzero"></path>
                                <path d="M65.6754401,40.4703143 L65.6754401,40.4703143 C64.7954225,37.554196 64.7954225,34.4411474 65.6754401,31.5250291 L66.2172938,29.7648428 L64.6009953,28.242142 L63.7858992,30.9476135 C62.7902034,34.2414786 62.7902034,37.7585214 63.7858992,41.0523865 L64.5917328,43.7718277 L66.2172938,42.2351572 L65.6754401,40.4703143 Z" id="Path" fill="#46B978" fill-rule="nonzero"></path>
                                <g id="Group" opacity="0.66" style="mix-blend-mode: multiply;" stroke-width="1" fill="none" fill-rule="evenodd" transform="translate(58.534087, 44.363213)">
                                    <g id="Clipped">
                                        <mask id="mask-34" fill="white">
                                            <use xlink:href="#path-33"></use>
                                        </mask>
                                        <g id="Rectangle"></g>
                                        <g mask="url(#mask-34)">
                                            <g transform="translate(-0.004631, 0.000000)">
                                                <mask id="mask-36" fill="white">
                                                    <use xlink:href="#path-35"></use>
                                                </mask>
                                                <g id="Path" stroke="none" fill="none"></g>
                                                <polygon id="Rectangle" stroke="none" fill="url(#linearGradient-37)" fill-rule="nonzero" mask="url(#mask-36)" transform="translate(5.267466, 7.698859) rotate(-59.331073) translate(-5.267466, -7.698859) " points="-3.44496406 -0.172648274 14.0177483 -0.214415183 13.9798956 15.5703666 -3.48281671 15.6121335"></polygon>
                                            </g>
                                        </g>
                                    </g>
                                </g>
                                <path d="M26.1710678,62.8637951 C23.8330953,60.3489512 20.8039414,58.5902381 17.4689909,57.8114086 L14.7319353,57.1688009 L15.2321079,59.338766 L17.0151306,59.757858 C19.9718309,60.4555934 22.6547386,62.0232451 24.7214935,64.2607683 L25.971925,65.6065192 L28.0930273,64.9592549 L26.1710678,62.8637951 Z" id="Path" fill="#46B978" fill-rule="nonzero"></path>
                                <g id="Group" opacity="0.66" style="mix-blend-mode: multiply;" stroke-width="1" fill="none" fill-rule="evenodd" transform="translate(3.598464, 44.363213)">
                                    <g id="Clipped">
                                        <mask id="mask-39" fill="white">
                                            <use xlink:href="#path-38"></use>
                                        </mask>
                                        <g id="Rectangle"></g>
                                        <g mask="url(#mask-39)">
                                            <g transform="translate(0.004711, 0.004657)">
                                                <mask id="mask-41" fill="white">
                                                    <use xlink:href="#path-40"></use>
                                                </mask>
                                                <g id="Path" stroke="none" fill="none"></g>
                                                <polygon id="Rectangle" stroke="none" fill="url(#linearGradient-42)" fill-rule="nonzero" mask="url(#mask-41)" transform="translate(4.561583, 7.233272) rotate(-84.660000) translate(-4.561583, -7.233272) " points="-3.10688287 1.68176767 12.2356841 1.674028 12.230049 12.7847757 -3.11251799 12.7925154"></polygon>
                                            </g>
                                        </g>
                                    </g>
                                </g>
                                <g id="Group" opacity="0.66" style="mix-blend-mode: multiply;" stroke-width="1" fill="none" fill-rule="evenodd" transform="translate(27.486336, 66.570431)">
                                    <g id="Clipped">
                                        <mask id="mask-44" fill="white">
                                            <use xlink:href="#path-43"></use>
                                        </mask>
                                        <g id="Rectangle"></g>
                                        <g mask="url(#mask-44)">
                                            <g transform="translate(0.000000, 0.018626)">
                                                <mask id="mask-46" fill="white">
                                                    <use xlink:href="#path-45"></use>
                                                </mask>
                                                <g id="Path" stroke="none" fill="none"></g>
                                                <polygon id="Rectangle" stroke="none" fill="url(#linearGradient-47)" fill-rule="nonzero" mask="url(#mask-46)" transform="translate(8.322514, 2.693475) rotate(-17.880000) translate(-8.322514, -2.693475) " points="-0.419880488 -2.44006886 17.0812919 -2.46804538 17.0649075 7.82701814 -0.436264937 7.85499466"></polygon>
                                            </g>
                                        </g>
                                    </g>
                                </g>
                                <g id="Group" opacity="0.66" style="mix-blend-mode: multiply;" stroke-width="1" fill="none" fill-rule="evenodd" transform="translate(27.486336, 0.000000)">
                                    <g id="Clipped">
                                        <mask id="mask-49" fill="white">
                                            <use xlink:href="#path-48"></use>
                                        </mask>
                                        <g id="Rectangle"></g>
                                        <g mask="url(#mask-49)">
                                            <g transform="translate(0.000000, -0.014753)">
                                                <mask id="mask-51" fill="white">
                                                    <use xlink:href="#path-50"></use>
                                                </mask>
                                                <g id="Path" stroke="none" fill="none"></g>
                                                <polygon id="Rectangle" stroke="none" fill="url(#linearGradient-52)" fill-rule="nonzero" mask="url(#mask-51)" transform="translate(8.319823, 2.726344) rotate(-85.970000) translate(-8.319823, -2.726344) " points="5.02862505 -5.76151444 11.6175365 -5.7640291 11.6110216 11.2142567 5.02211012 11.2167713"></polygon>
                                            </g>
                                        </g>
                                    </g>
                                </g>
                                <g id="Group" opacity="0.66" style="mix-blend-mode: multiply;" stroke-width="1" fill="none" fill-rule="evenodd" transform="translate(3.598464, 13.145518)">
                                    <g id="Clipped">
                                        <mask id="mask-54" fill="white">
                                            <use xlink:href="#path-53"></use>
                                        </mask>
                                        <g id="Rectangle"></g>
                                        <g mask="url(#mask-54)">
                                            <g transform="translate(0.004787, 0.000000)">
                                                <mask id="mask-56" fill="white">
                                                    <use xlink:href="#path-55"></use>
                                                </mask>
                                                <g id="Path" stroke="none" fill="none"></g>
                                                <polygon id="Rectangle" stroke="none" fill="url(#linearGradient-57)" fill-rule="nonzero" mask="url(#mask-56)" transform="translate(4.561042, 7.236665) rotate(-46.150000) translate(-4.561042, -7.236665) " points="-4.03334105 -1.29064544 13.202069 -1.33764393 13.1554251 15.7639758 -4.07998493 15.8109743"></polygon>
                                            </g>
                                        </g>
                                    </g>
                                </g>
                                <g id="Group" opacity="0.66" style="mix-blend-mode: multiply;" stroke-width="1" fill="none" fill-rule="evenodd" transform="translate(58.534087, 13.145518)">
                                    <g id="Clipped">
                                        <mask id="mask-59" fill="white">
                                            <use xlink:href="#path-58"></use>
                                        </mask>
                                        <g id="Rectangle"></g>
                                        <g mask="url(#mask-59)">
                                            <g transform="translate(0.000000, -0.000000)">
                                                <mask id="mask-61" fill="white">
                                                    <use xlink:href="#path-60"></use>
                                                </mask>
                                                <g id="Path" stroke="none" fill="none"></g>
                                                <polygon id="Rectangle" stroke="none" fill="url(#linearGradient-62)" fill-rule="nonzero" mask="url(#mask-61)" transform="translate(4.902840, 7.231734) rotate(-17.630000) translate(-4.902840, -7.231734) " points="-1.94393873 -1.15132676 11.7760118 -1.17299237 11.7496192 15.6147957 -1.9703313 15.6364613"></polygon>
                                            </g>
                                        </g>
                                    </g>
                                </g>
                                <path d="M30.9412323,56.5820722 L49.3966747,38.0256112 C49.932322,37.4891052 50.2334194,36.7602014 50.2334194,36 C50.2334194,35.2397986 49.932322,34.5108948 49.3966747,33.9743888 L43.4733345,28.0186263 L29.6305949,41.9417928 C28.5987646,42.9791651 28.0189276,44.386177 28.0189276,45.8533178 L28.0189276,55.3620489 C28.020185,56.0598207 28.438792,56.688325 29.0800113,56.9551798 C29.7212307,57.2220345 30.459153,57.0748402 30.9504948,56.5820722" id="Path" fill="#46B978" fill-rule="nonzero"></path>
                                <g id="Group" opacity="0.66" style="mix-blend-mode: multiply;" stroke-width="1" fill="none" fill-rule="evenodd" transform="translate(28.009665, 28.013970)">
                                    <g id="Clipped">
                                        <mask id="mask-64" fill="white">
                                            <use xlink:href="#path-63"></use>
                                        </mask>
                                        <g id="Rectangle"></g>
                                        <g mask="url(#mask-64)">
                                            <g transform="translate(0.009262, 0.004657)">
                                                <mask id="mask-66" fill="white">
                                                    <use xlink:href="#path-65"></use>
                                                </mask>
                                                <g id="Path" stroke="none" fill="none"></g>
                                                <polygon id="Rectangle" stroke="none" fill="url(#linearGradient-67)" fill-rule="nonzero" mask="url(#mask-66)" transform="translate(11.108258, 14.832299) rotate(-39.090000) translate(-11.108258, -14.832299) " points="-6.80185105 -3.63134722 29.1172182 -3.727358 29.0183664 33.2959448 -6.90070282 33.3919556"></polygon>
                                            </g>
                                        </g>
                                    </g>
                                </g>
                                <path d="M28.0096652,16.6379511 L28.0096652,26.1466822 C28.0119239,27.6138558 28.5952062,29.01972 29.6305949,30.0535506 L43.4825969,43.9813737 L49.4059372,38.0256112 C49.9415844,37.4891052 50.2426819,36.7602014 50.2426819,36 C50.2426819,35.2397986 49.9415844,34.5108948 49.4059372,33.9743888 L30.9412323,15.4179278 C30.4498906,14.9251598 29.7119682,14.7779655 29.0707489,15.0448202 C28.4295295,15.311675 28.0109225,15.9401793 28.0096652,16.6379511" id="Path" fill="#06675E" fill-rule="nonzero"></path>
                            </g>
                        </g>
                    </g>
                    <g id="Clipped" transform="translate(118.000000, 15.000000)">
                        <mask id="mask-69" fill="white">
                            <use xlink:href="#path-68"></use>
                        </mask>
                        <g id="Path"></g>
                        <polygon id="Rectangle" fill="url(#linearGradient-70)" fill-rule="nonzero" mask="url(#mask-69)" transform="translate(11.140429, 14.515885) rotate(-29.740000) translate(-11.140429, -14.515885) " points="-5.58296665 -3.5174873 28.0657049 -3.70609111 27.8638246 32.5492566 -5.78484698 32.7378604"></polygon>
                    </g>
                    <g id="Clipped">
                        <mask id="mask-72" fill="white">
                            <use xlink:href="#path-71"></use>
                        </mask>
                        <g id="Rectangle"></g>
                    </g>
                </g>
            </g>
        </g>
    </g>
</svg>