<?xml version="1.0" encoding="UTF-8"?><svg version="1.1" width="20px" height="22px" viewBox="0 0 21.0 25.0" xmlns="http://www.w3.org/2000/svg" xmlns:xlink="http://www.w3.org/1999/xlink"><defs><clipPath id="i0"><path d="M10.0507836,0.0882746295 C10.3384361,-0.0294248765 10.6615639,-0.0294248765 10.9492164,0.0882746295 L20.2835839,3.93526411 C20.7175287,4.11482535 21,4.53451746 21,4.99970555 C21,5.46489365 20.7175287,5.88458576 20.2835839,6.064147 L10.9492164,9.90998261 C10.6620354,10.0300058 10.3379646,10.0300058 10.0507836,9.90998261 L0.716416103,6.064147 C0.282471324,5.88458576 0,5.46489365 0,4.99970555 C0,4.53451746 0.282471324,4.11482535 0.716416103,3.93526411 Z M10.5,2.40292997 L4.19930196,4.99912862 L10.5,7.59532728 L16.800698,4.99912862 L10.5,2.40292997 Z"></path></clipPath><clipPath id="i1"><path d="M0.0902251551,0.692243548 C0.338287013,0.118774314 1.02148384,-0.152200879 1.61618799,0.0870035146 L10.5001383,3.65656973 L19.3840885,0.0870035146 C19.6696731,-0.0278904028 19.9908947,-0.0286694686 20.277075,0.0848377349 C20.5632553,0.198344938 20.790947,0.416838565 20.9100514,0.692243548 C21.0291997,0.967630841 21.0300076,1.27738265 20.9122973,1.5533444 C20.7945871,1.82930615 20.5680029,2.04886781 20.2824,2.16371932 L10.949294,5.91328257 C10.6618603,6.02890581 10.3384162,6.02890581 10.0509825,5.91328257 L0.717876534,2.16371932 C0.123172391,1.92451492 -0.157836703,1.26571278 0.0902251551,0.692243548 Z"></path></clipPath><clipPath id="i2"><path d="M19.3838333,0.0869872048 C19.9785296,-0.152172347 20.6617174,0.118752049 20.909776,0.692113779 C21.1578346,1.26547551 20.8768292,1.92415415 20.2821329,2.1633137 L10.9491498,5.91329883 C10.6617199,6.02890039 10.3382801,6.02890039 10.0508502,5.91329883 L0.717867081,2.1633137 C0.123170769,1.92415415 -0.157834624,1.26547551 0.0902239671,0.692113779 C0.338282559,0.118752049 1.02147039,-0.152172347 1.61616671,0.0869872048 L10.5,3.6547595 Z"></path></clipPath><clipPath id="i3"><path d="M19.358961,0.0990060718 C19.7449535,-0.0687293785 20.1948939,-0.0208846714 20.5337825,0.223931494 C20.8726712,0.468747659 21.0470137,0.871890479 20.9890013,1.27656176 C20.930989,1.68123305 20.6497792,2.02355449 20.2547456,2.17038373 L10.9478923,5.9134586 C10.6612671,6.02884713 10.3387329,6.02884713 10.0521077,5.9134586 L0.74525441,2.17038373 C0.350220791,2.02355449 0.0690110087,1.68123305 0.0109986715,1.27656176 C-0.0470136657,0.871890479 0.127328825,0.468747659 0.466217452,0.223931494 C0.80510608,-0.0208846714 1.25504648,-0.0687293785 1.64103904,0.0990060718 L10.5,3.66132657 Z"></path></clipPath></defs><g transform="translate(-1.0 0.0)"><g transform="translate(1.0 0.0)"><g clip-path="url(#i0)"><polygon points="0,-1.38777878e-17 21,-1.38777878e-17 21,10 0,10 0,-1.38777878e-17" stroke="none" fill="#005B4F"></polygon></g><g transform="translate(0.0 9.0)"><g clip-path="url(#i1)"><polygon points="-2.63677968e-16,-1.66533454e-16 21,-1.66533454e-16 21,6 -2.63677968e-16,6 -2.63677968e-16,-1.66533454e-16" stroke="none" fill="#005B4F"></polygon></g></g><g transform="translate(0.0 14.0)"><g clip-path="url(#i2)"><polygon points="-2.63677968e-16,7.77156117e-16 21,7.77156117e-16 21,6 -2.63677968e-16,6 -2.63677968e-16,7.77156117e-16" stroke="none" fill="#005B4F"></polygon></g></g><g transform="translate(0.0 19.0)"><g clip-path="url(#i3)"><polygon points="-1.11022302e-16,2.49800181e-16 21,2.49800181e-16 21,6 -1.11022302e-16,6 -1.11022302e-16,2.49800181e-16" stroke="none" fill="#005B4F"></polygon></g></g></g></g></svg>