<svg xmlns="http://www.w3.org/2000/svg" xmlns:xlink="http://www.w3.org/1999/xlink" width="123px" height="56px" viewBox="0 0 123 56" version="1.1">
    <title>9450BDFE-A9C2-4095-B38C-7E990C0D76DB</title>
    <defs>
        <rect id="path-1" x="0" y="0" width="122.070312" height="54.2271807"/>
        <rect id="path-3" x="-9.97999929e-15" y="6.22990708e-16" width="12.0335681" height="8.0698967"/>
        <path d="M7.19134737,0.0035071259 C4.07026533,0.0383120921 1.37527487,2.19457443 0.660143216,5.22912472 L9.97999929e-15,8.0698967 L9.97999929e-15,8.0698967 C0.533732813,7.92259741 1.08151123,7.80335513 1.63280104,7.69463423 L2.12790845,5.56931593 C2.68370508,3.19860407 4.79570228,1.51860697 7.23348417,1.50806414 C7.7546168,1.50764066 8.2729272,1.58446524 8.77147741,1.73602732 L10.8256465,2.36029573 C11.1914823,1.92299285 11.5957323,1.519235 12.0335681,1.15384442 L9.22444802,0.298105702 C8.59638542,0.104762201 7.9433589,0.00432798181 7.28615517,9.34486062e-16 L7.19134737,0.0035071259 Z" id="path-5"/>
        <linearGradient x1="38.2996371%" y1="68.0576923%" x2="111.757387%" y2="68.0576923%" id="linearGradient-7">
            <stop stop-color="#FFFFFF" offset="0%"/>
            <stop stop-color="#1F754A" offset="100%"/>
        </linearGradient>
        <rect id="path-8" x="0" y="-6.22990708e-16" width="11.4787669" height="7.64553446"/>
        <path d="M4.2944423,0.035071259 C3.6409324,0.0423750616 2.99180735,0.142754784 2.36668366,0.333176961 L0,1.03460214 C0.2066943,1.49078292 0.384945438,1.95929388 0.533732813,2.4374525 L2.80209727,1.73602732 C4.19326122,1.31830485 5.6953909,1.49298709 6.95325329,2.2187641 C8.21111569,2.94454111 9.11301564,4.15696563 9.44566622,5.56931593 L9.88107983,7.42458553 C10.4176579,7.46741836 10.951179,7.54237176 11.4787669,7.64904159 L10.9134315,5.22561759 C10.2018242,2.1946708 7.51299034,0.0386978324 4.3962729,3.11495354e-16 L4.2944423,0.035071259 Z" id="path-10"/>
        <linearGradient x1="27.1963277%" y1="38.0497132%" x2="95.6991525%" y2="38.0497132%" id="linearGradient-12">
            <stop stop-color="#FFFFFF" offset="0%"/>
            <stop stop-color="#1F754A" offset="100%"/>
        </linearGradient>
        <rect id="path-13" x="0" y="-2.49196283e-15" width="4.82817511" height="13.926797"/>
        <path d="M2.13903359,2.07271141 C0.774344191,3.34975077 0,5.1341772 0,7.00197686 C0,8.86977652 0.774344191,10.654203 2.13903359,11.9312423 L4.24587364,13.9127685 C4.36711983,13.3707483 4.53875231,12.8412139 4.75853805,12.3310547 L3.15733961,10.8335119 C2.09932353,9.83933183 1.49937762,8.45286231 1.49937762,7.00197686 C1.49937762,5.55109141 2.09932353,4.16462189 3.15733961,3.17044181 L4.82876605,1.63432067 C4.65670745,1.09422328 4.49869444,0.550618767 4.37228404,0 L2.13903359,2.07271141 Z" id="path-15"/>
        <linearGradient x1="17.0207192%" y1="70.3304982%" x2="88.3948559%" y2="70.3304982%" id="linearGradient-17">
            <stop stop-color="#FFFFFF" offset="0%"/>
            <stop stop-color="#1F754A" offset="100%"/>
        </linearGradient>
        <rect id="path-18" x="0" y="0" width="4.66313931" height="12.7764597"/>
        <path d="M0,1.63432067 L1.49234504,3.03717103 C2.55036112,4.03135111 3.15030703,5.41782063 3.15030703,6.86870608 C3.15030703,8.31959153 2.55036112,9.70606105 1.49234504,10.7002411 L0.547778413,11.5840369 C0.961347589,11.8889859 1.2832068,12.3014347 1.47829944,12.7764597 L1.47829944,12.7764597 L2.53171946,11.7979715 C3.89640886,10.5209322 4.67075305,8.73650574 4.67075305,6.86870608 C4.67075305,5.00090642 3.89640886,3.21647999 2.53171946,1.93944062 L0.452970611,-4.98392567e-15 C0.333840217,0.554688998 0.184976676,1.10258928 0.00702280017,1.64133492" id="path-20"/>
        <linearGradient x1="73.9273927%" y1="44.6789133%" x2="73.9273927%" y2="-17.7272962%" id="linearGradient-22">
            <stop stop-color="#FFFFFF" offset="0%"/>
            <stop stop-color="#1F754A" offset="100%"/>
        </linearGradient>
        <rect id="path-23" x="0" y="0" width="11.7631903" height="7.83842639"/>
        <path d="M1.54150464,0 L1.10960243,0.0245498813 C0.740203247,0.0508395026 0.369399179,0.0508395026 9.97999929e-15,0.0245498813 L9.97999929e-15,0.0245498813 L0.607472214,2.6268373 C1.03598394,4.44336106 2.19787117,6.00186473 3.8174657,6.9325793 C5.43706023,7.86329387 7.37001945,8.08327156 9.15773142,7.54032069 L11.7631903,6.74771023 C11.6191209,6.5485591 11.4866394,6.3412964 11.3664021,6.12694895 C11.173757,5.92206065 11.0191832,5.6845443 10.9099201,5.42552377 L8.71880641,6.08837056 C7.33107071,6.50669744 5.83206318,6.33530571 4.57488218,5.61456751 C3.31770119,4.89382931 2.41348912,3.68746224 2.07523745,2.27963184 L1.54501604,0.0070142518 L1.54150464,0 Z" id="path-25"/>
        <linearGradient x1="13.5360908%" y1="47.2776546%" x2="63.0089213%" y2="47.2776546%" id="linearGradient-27">
            <stop stop-color="#FFFFFF" offset="0%"/>
            <stop stop-color="#1F754A" offset="100%"/>
        </linearGradient>
        <rect id="path-28" x="-1.99599986e-14" y="4.98392567e-15" width="11.7947929" height="7.40003565"/>
        <path d="M10.1971058,0.143792162 L9.82138603,1.82019834 C9.48642536,3.23142569 8.58299515,4.44192755 7.32459162,5.16564135 C6.06618809,5.88935515 4.56446505,6.06206826 3.17430568,5.64296558 L0.877850021,4.94154039 C0.558042078,5.35754378 0.264842518,5.79329368 0,6.24619123 L2.73889207,7.07738007 C3.35981294,7.26470623 4.00402697,7.36387707 4.65260511,7.37197864 L4.77901551,7.37197864 C7.8872054,7.33659793 10.5719079,5.19173949 11.2891513,2.17091093 L11.7947929,0 L11.7947929,0 C11.2645715,0.0666353921 10.7413729,0.115735155 10.2111514,0.161327791" id="path-30"/>
        <linearGradient x1="39.0361751%" y1="68.1923804%" x2="94.5636226%" y2="68.1923804%" id="linearGradient-32">
            <stop stop-color="#FFFFFF" offset="0%"/>
            <stop stop-color="#1F754A" offset="100%"/>
        </linearGradient>
        <rect id="path-33" x="1.99599986e-14" y="4.98392567e-15" width="7.18432457" height="10.9106687"/>
        <path d="M5.08450732,1.14683017 L5.45320433,2.35678861 C5.87143588,3.74625919 5.69654075,5.24656043 4.96987923,6.50289172 C4.24321771,7.75922301 3.02931559,8.66002514 1.61524404,8.99227081 L0.379231209,9.27985513 L0,10.9106687 L0,10.9106687 L1.95584985,10.4582494 C3.77338204,10.0285295 5.3322379,8.86756172 6.26320058,7.25032258 C7.19416327,5.63308344 7.41442262,3.70342816 6.87180996,1.91839787 L6.28891755,-4.98392567e-15 L5.08450732,1.14683017 Z" id="path-35"/>
        <linearGradient x1="17.7486688%" y1="46.4465335%" x2="90.086262%" y2="46.4465335%" id="linearGradient-37">
            <stop stop-color="#FFFFFF" offset="0%"/>
            <stop stop-color="#1F754A" offset="100%"/>
        </linearGradient>
        <rect id="path-38" x="9.97999929e-15" y="4.98392567e-15" width="7.18432457" height="10.9106687"/>
        <path d="M0.29138548,1.91489074 C-0.251813203,3.70287861 -0.0292190317,5.6357264 0.906239457,7.25384074 C1.84169795,8.87195508 3.40644485,10.0307701 5.228414,10.4547423 L7.18426384,10.9071616 L6.80152123,9.27634801 L5.56901981,8.98876369 C4.15640909,8.65562252 2.94405037,7.7550264 2.2182077,6.49962553 C1.49236503,5.24422465 1.3173802,3.7453031 1.73457091,2.35678861 L2.08571092,1.14683017 L0.860232293,0 L0.29138548,1.91489074 Z" id="path-40"/>
        <linearGradient x1="24.1553869%" y1="67.4893706%" x2="107.524127%" y2="67.4893706%" id="linearGradient-42">
            <stop stop-color="#FFFFFF" offset="0%"/>
            <stop stop-color="#1F754A" offset="100%"/>
        </linearGradient>
        <rect id="path-43" x="0" y="-9.96785133e-15" width="12.6129491" height="4.0893088"/>
        <path d="M0,0.473461997 L1.37295743,1.9359335 C2.65155314,3.29896175 4.43815428,4.07236339 6.30823025,4.07236339 C8.17830622,4.07236339 9.96490736,3.29896175 11.2435031,1.9359335 L12.6129491,0.473461997 L11.0082393,0 L10.1444348,0.922374112 C9.14904314,1.97910235 7.76088391,2.57831798 6.30823025,2.57831798 C4.85557659,2.57831798 3.46741736,1.97910235 2.47202566,0.922374112 L1.60470984,0 L0,0.473461997 Z" id="path-45"/>
        <linearGradient x1="15.3600741%" y1="51.2906872%" x2="100.21578%" y2="51.2906872%" id="linearGradient-47">
            <stop stop-color="#FFFFFF" offset="0%"/>
            <stop stop-color="#1F754A" offset="100%"/>
        </linearGradient>
        <rect id="path-48" x="0" y="0" width="12.6129491" height="4.0893088"/>
        <path d="M1.37295743,2.14695127 L1.99599986e-14,3.6129299 L1.60470984,4.1004204 L2.47202566,3.16752491 C3.46741736,2.11079667 4.85557659,1.51158104 6.30823025,1.51158104 C7.76088391,1.51158104 9.14904314,2.11079667 10.1444348,3.16752491 L11.0082393,4.08989902 L12.6129491,3.60240852 L11.2435031,2.13642989 C9.96490736,0.773401636 8.17830622,-3.89369193e-17 6.30823025,-3.89369193e-17 C4.43815428,-3.89369193e-17 2.65155314,0.773401636 1.37295743,2.13642989" id="path-50"/>
        <linearGradient x1="49.9053004%" y1="62.4124386%" x2="145.170318%" y2="62.4124386%" id="linearGradient-52">
            <stop stop-color="#FFFFFF" offset="0%"/>
            <stop stop-color="#1F754A" offset="100%"/>
        </linearGradient>
        <rect id="path-53" x="9.97999929e-15" y="1.24598142e-15" width="7.18432457" height="10.9106687"/>
        <path d="M5.22835665,0.455926367 C3.40664567,0.879064302 1.84189652,2.0371769 0.906370334,3.65474377 C-0.029155852,5.27231064 -0.251828182,7.2047302 0.291328132,8.99227081 L0.874220546,10.9106687 L2.09969917,9.76734564 L1.74855917,8.5573872 C1.33024283,7.16840651 1.50466769,5.66855199 2.23060797,4.41231833 C2.95654825,3.15608466 4.16958296,2.25495182 5.58300806,1.92190499 L6.81550949,1.63432067 L7.1982521,0 L5.22835665,0.455926367 Z" id="path-55"/>
        <linearGradient x1="30.2021019%" y1="51.9174586%" x2="108.940986%" y2="51.9174586%" id="linearGradient-57">
            <stop stop-color="#FFFFFF" offset="0%"/>
            <stop stop-color="#1F754A" offset="100%"/>
        </linearGradient>
        <rect id="path-58" x="1.99599986e-14" y="1.24598142e-15" width="7.18432457" height="10.9106687"/>
        <path d="M0,-1.24598142e-15 L0,-1.24598142e-15 L0.379231209,1.63432067 L1.61524404,1.92190499 C3.02866914,2.25495182 4.24170385,3.15608466 4.96764413,4.41231833 C5.6935844,5.66855199 5.86800927,7.16840651 5.44969293,8.5573872 L5.08099592,9.76734564 L6.30647455,10.9106687 L6.87883276,8.99227081 C7.42139985,7.20768877 7.20106144,5.27846405 6.27003206,3.66177325 C5.33900268,2.04508246 3.78014662,0.884815708 1.96287265,0.455926367 L0,-1.24598142e-15 Z" id="path-60"/>
        <linearGradient x1="70.6464032%" y1="66.4153036%" x2="70.6464032%" y2="-43.4821181%" id="linearGradient-62">
            <stop stop-color="#FFFFFF" offset="0%"/>
            <stop stop-color="#1F754A" offset="100%"/>
        </linearGradient>
        <rect id="path-63" x="0" y="0" width="16.8476976" height="21.8984941"/>
        <path d="M1.22196723,10.4863064 C0.439632793,11.2676089 1.99599986e-14,12.3273073 1.99599986e-14,13.4322922 L1.99599986e-14,20.5938433 C0.000953339581,21.1193738 0.318341436,21.5927352 0.80451439,21.7937182 C1.29068735,21.9947013 1.85018062,21.8838411 2.22271625,21.5127103 L16.2156456,7.53681356 C16.6158815,7.13902574 16.8429817,6.5996892 16.8476976,6.03576368 L16.8476976,5.98315679 C16.8428183,5.42029306 16.6156722,4.88210786 16.2156456,4.48561403 L11.7175421,4.98392567e-15 L1.22196723,10.4863064 Z" id="path-65"/>
        <linearGradient x1="46.0788216%" y1="51.0532129%" x2="66.1330921%" y2="51.0532129%" id="linearGradient-67">
            <stop stop-color="#FFFFFF" offset="0%"/>
            <stop stop-color="#1F754A" offset="66%"/>
            <stop stop-color="#1F754A" offset="100%"/>
        </linearGradient>
        <path d="M0,1.30469347 L0,8.46273744 C0,9.5677223 0.439637648,10.6274208 1.22197208,11.4087232 L11.7245697,21.8985368 L16.2156504,17.4129227 C16.6217786,17.0088504 16.8500708,16.4598727 16.8500708,15.887323 C16.8500708,15.3147732 16.6217786,14.7657955 16.2156504,14.3617232 L2.22272111,0.385826488 C1.9845274,0.139323278 1.65626742,-2.49196283e-15 1.31326849,-2.49196283e-15 C0.965332085,-0.00276882358 0.630728514,0.133555864 0.384033546,0.378632929 C0.137338578,0.623709994 -0.000944395991,0.957170513 0,1.30469347" id="path-68"/>
        <linearGradient x1="52.0195462%" y1="-95.4124633%" x2="52.0195462%" y2="54.9514749%" id="linearGradient-70">
            <stop stop-color="#FFFFFF" offset="0%"/>
            <stop stop-color="#06675E" offset="100%"/>
        </linearGradient>
        <rect id="path-71" x="0" y="0" width="122.070312" height="54.2271807"/>
    </defs>
    <g id="Sprint-1-&amp;-2" stroke="none" stroke-width="1" fill="none" fill-rule="evenodd">
        <g id="Internal-Markter-/-Auctions" transform="translate(-1294.000000, -24.000000)">
            <g id="try-01" transform="translate(1294.107854, 24.975374)">
                <g id="Clipped">
                    <mask id="mask-2" fill="white">
                        <use xlink:href="#path-1"/>
                    </mask>
                    <g id="Rectangle"/>
                    <g id="Group" mask="url(#mask-2)">
                        <g transform="translate(67.777044, 0.000000)">
                            <path d="M37.3542741,51.5021439 C36.6844212,51.5010547 36.0183535,51.4017979 35.3773558,51.2075453 L30.5210895,49.7345524 C28.3226272,49.0647487 25.9741523,49.0647487 23.77569,49.7345524 L18.9194236,51.2040382 C17.1322021,51.747073 15.1996907,51.5275647 13.5801942,50.5975708 C11.9606978,49.6675769 10.7984792,48.1099401 10.3691644,46.2940619 L9.21742522,41.3595358 C8.69809193,39.1234044 7.5247151,37.0920269 5.84648114,35.5236783 L2.14195405,32.0586379 C0.777264655,30.7815985 0.00292046328,28.9971721 0.00292046328,27.1293724 C0.00292046328,25.2615728 0.777264655,23.4771463 2.14195405,22.200107 L5.84648114,18.7385737 C7.5247151,17.170225 8.69809193,15.1388475 9.21742522,12.9027162 L10.3691644,7.96468292 C10.799408,6.14936308 11.9617908,4.59240471 13.5810008,3.66257522 C15.2002109,2.73274574 17.1322179,2.51275449 18.9194236,3.05470666 L23.77569,4.52769954 C25.9746565,5.19411735 28.3221229,5.19411735 30.5210895,4.52769954 L35.3773558,3.05470666 C37.1665834,2.51213008 39.1009083,2.73406256 40.7203478,3.66772853 C42.3397874,4.60139451 43.499644,6.16337051 43.9241036,7.98221855 L45.0758429,12.9202518 C45.6025776,15.1441956 46.7767361,17.162608 48.4502984,18.7210381 L52.151314,22.1825713 C53.5179084,23.4585508 54.2936025,25.2433721 54.2936025,27.1118368 C54.2936025,28.9803014 53.5179084,30.7651227 52.151314,32.0411022 L48.4502984,35.5061426 C46.7694299,37.0729606 45.5945503,39.1048232 45.0758429,41.3420001 L43.9241036,46.2940619 C43.2124296,49.3468507 40.4925283,51.5102498 37.3542741,51.5196795 M16.9425054,4.2295921 C14.5047235,4.24013667 12.3927263,5.92013377 11.8369297,8.29084563 L10.6851905,13.2253718 C10.0987408,15.7521944 8.77246385,18.0474622 6.87532136,19.8187685 L3.17079428,23.2838089 C2.10916751,24.2752593 1.50659698,25.6619419 1.50659698,27.1135903 C1.50659698,28.5652388 2.10916751,29.9519214 3.17079428,30.9433718 L6.87532136,34.4084122 C8.77169767,36.1789068 10.097896,38.4728179 10.6851905,40.9983018 L11.8369297,45.9433493 C12.1703824,47.3550539 13.0726135,48.5666121 14.3303781,49.2916688 C15.5881428,50.0167254 17.0898252,50.1909379 18.4804986,49.7731308 L23.336765,48.303645 C25.8200421,47.5460183 28.473226,47.5460183 30.9565031,48.303645 L35.8092581,49.7661165 C37.1994174,50.1852192 38.7011405,50.0125061 39.959544,49.2887923 C41.2179475,48.5650785 42.1213777,47.3545767 42.4563384,45.9433493 L43.6080776,41.005316 C44.196765,38.4803815 45.5227431,36.1868514 47.4179467,34.4154265 L51.1224738,30.9503861 C52.1841006,29.9589357 52.7866711,28.572253 52.7866711,27.1206046 C52.7866711,25.6689561 52.1841006,24.2822735 51.1224738,23.2908231 L47.4179467,19.8257827 C45.5219787,18.0535449 44.1959224,15.7586589 43.6080776,13.232386 L42.4563384,8.29785988 C42.1253907,6.88340435 41.2236169,5.6685694 39.964724,4.94125312 C38.7058312,4.21393684 37.2018703,4.03887584 35.8092581,4.45755702 L30.9529917,5.9305499 C28.4691764,6.68456825 25.8170689,6.68456825 23.3332536,5.9305499 L18.4769872,4.45755702 C17.978437,4.30599494 17.4601266,4.2295921 16.938994,4.2295921" id="Shape" fill="#46B978" fill-rule="nonzero"/>
                            <g id="Group" opacity="0.66" style="mix-blend-mode: multiply;" stroke-width="1" fill="none" fill-rule="evenodd" transform="translate(9.705510, 2.721530)">
                                <g id="Clipped">
                                    <mask id="mask-4" fill="white">
                                        <use xlink:href="#path-3"/>
                                    </mask>
                                    <g id="Rectangle"/>
                                    <g mask="url(#mask-4)">
                                        <g transform="translate(0.003511, -0.003507)">
                                            <mask id="mask-6" fill="white">
                                                <use xlink:href="#path-5"/>
                                            </mask>
                                            <g id="Path" stroke="none" fill="none"/>
                                            <polygon id="Rectangle" stroke="none" fill="url(#linearGradient-7)" fill-rule="nonzero" mask="url(#mask-6)" transform="translate(6.016265, 4.045676) rotate(0) translate(-6.016265, -4.045676) " points="-0.758223163 -1.24521361 12.7879163 -1.24158377 12.790754 9.3365662 -0.75538553 9.33293636"/>
                                        </g>
                                    </g>
                                </g>
                            </g>
                            <g id="Group" opacity="0.66" style="mix-blend-mode: multiply;" stroke-width="1" fill="none" fill-rule="evenodd" transform="translate(33.010672, 2.721530)">
                                <g id="Clipped">
                                    <mask id="mask-9" fill="white">
                                        <use xlink:href="#path-8"/>
                                    </mask>
                                    <g id="Rectangle"/>
                                    <g mask="url(#mask-9)">
                                        <g transform="translate(0.000000, -0.035071)">
                                            <mask id="mask-11" fill="white">
                                                <use xlink:href="#path-10"/>
                                            </mask>
                                            <g id="Path" stroke="none" fill="none"/>
                                            <polygon id="Rectangle" stroke="none" fill="url(#linearGradient-12)" fill-rule="nonzero" mask="url(#mask-11)" transform="translate(5.743599, 3.861260) rotate(-0) translate(-5.743599, -3.861260) " points="0.775587113 -2.56726695 10.7083267 -2.56472641 10.7116109 10.2897866 0.778871339 10.2872461"/>
                                        </g>
                                    </g>
                                </g>
                            </g>
                            <g id="Group" opacity="0.66" style="mix-blend-mode: multiply;" stroke-width="1" fill="none" fill-rule="evenodd" transform="translate(0.000000, 20.095831)">
                                <g id="Clipped" transform="translate(0.000000, -0.000000)">
                                    <mask id="mask-14" fill="white">
                                        <use xlink:href="#path-13"/>
                                    </mask>
                                    <g id="Rectangle"/>
                                    <g mask="url(#mask-14)">
                                        <g transform="translate(0.002920, 0.014029)">
                                            <mask id="mask-16" fill="white">
                                                <use xlink:href="#path-15"/>
                                            </mask>
                                            <g id="Path" stroke="none" fill="none"/>
                                            <polygon id="Rectangle" stroke="none" fill="url(#linearGradient-17)" fill-rule="nonzero" mask="url(#mask-16)" transform="translate(2.414116, 6.955982) rotate(0) translate(-2.414116, -6.955982) " points="-4.95131917 2.619109 9.77661744 2.6240984 9.77955119 11.2928544 -4.94838542 11.287865"/>
                                        </g>
                                    </g>
                                </g>
                            </g>
                            <g id="Group" opacity="0.66" style="mix-blend-mode: multiply;" stroke-width="1" fill="none" fill-rule="evenodd" transform="translate(49.630129, 20.243131)">
                                <g id="Clipped">
                                    <mask id="mask-19" fill="white">
                                        <use xlink:href="#path-18"/>
                                    </mask>
                                    <g id="Rectangle"/>
                                    <g mask="url(#mask-19)">
                                        <g transform="translate(0.000000, 0.007014)">
                                            <mask id="mask-21" fill="white">
                                                <use xlink:href="#path-20"/>
                                            </mask>
                                            <g id="Path" stroke="none" fill="none"/>
                                            <polygon id="Rectangle" stroke="none" fill="url(#linearGradient-22)" fill-rule="nonzero" mask="url(#mask-21)" transform="translate(2.334309, 6.390426) rotate(0) translate(-2.334309, -6.390426) " points="-2.45560229 -0.390742398 7.11795668 -0.386322781 7.12422064 13.1715946 -2.44933833 13.167175"/>
                                        </g>
                                    </g>
                                </g>
                            </g>
                            <g id="Group" opacity="0.66" style="mix-blend-mode: multiply;" stroke-width="1" fill="none" fill-rule="evenodd" transform="translate(9.761692, 43.663717)">
                                <g id="Clipped">
                                    <mask id="mask-24" fill="white">
                                        <use xlink:href="#path-23"/>
                                    </mask>
                                    <g id="Rectangle"/>
                                    <g mask="url(#mask-24)">
                                        <mask id="mask-26" fill="white">
                                            <use xlink:href="#path-25"/>
                                        </mask>
                                        <g id="Path"/>
                                        <polygon id="Rectangle" fill="url(#linearGradient-27)" fill-rule="nonzero" mask="url(#mask-26)" transform="translate(5.703690, 3.757307) rotate(0) translate(-5.703690, -3.757307) " points="-0.787627873 -3.36922184 12.1873976 -3.36228644 12.195008 10.8838353 -0.780017502 10.8768999"/>
                                    </g>
                                </g>
                            </g>
                            <g id="Group" opacity="0.66" style="mix-blend-mode: multiply;" stroke-width="1" fill="none" fill-rule="evenodd" transform="translate(32.634952, 44.105615)">
                                <g id="Clipped">
                                    <mask id="mask-29" fill="white">
                                        <use xlink:href="#path-28"/>
                                    </mask>
                                    <g id="Rectangle"/>
                                    <g mask="url(#mask-29)">
                                        <g transform="translate(-0.000000, 0.017536)">
                                            <mask id="mask-31" fill="white">
                                                <use xlink:href="#path-30"/>
                                            </mask>
                                            <g id="Path" stroke="none" fill="none"/>
                                            <polygon id="Rectangle" stroke="none" fill="url(#linearGradient-32)" fill-rule="nonzero" mask="url(#mask-31)" transform="translate(5.899337, 3.682282) rotate(0) translate(-5.899337, -3.682282) " points="-1.04171011 -2.81454164 12.8327974 -2.80643909 12.8403834 10.1791048 -1.0341241 10.1710023"/>
                                        </g>
                                    </g>
                                </g>
                            </g>
                            <path d="M27.146634,54.2272271 L27.146634,54.2272271 C25.2750548,54.2340181 23.4860224,53.4582307 22.2131169,52.0878339 L18.7438536,48.3983374 C17.1735936,46.7221463 15.1397405,45.5501977 12.9008839,45.0314966 L7.96034399,43.8811593 C6.13837484,43.4571871 4.57362794,42.298372 3.63816945,40.6802577 C2.70271096,39.0621434 2.48011679,37.1292956 3.02331547,35.3413077 L4.49810351,30.4909526 C5.16872354,28.2951663 5.16872354,25.94955 4.49810351,23.7537637 L3.02331547,18.9034086 C2.48015916,17.115868 2.70283149,15.1834484 3.63835767,13.5658816 C4.57388386,11.9483147 6.13863301,10.7902021 7.96034399,10.3670642 L12.9008839,9.21672687 C15.1397405,8.69802573 17.1735936,7.52607717 18.7438536,5.849886 L22.2131169,2.14636105 C23.4917126,0.783332796 25.2783138,0.00993116021 27.1483897,0.00993116021 C29.0184657,0.00993116021 30.8050669,0.783332796 32.0836626,2.14636105 L35.5529258,5.849886 C37.1222394,7.5254802 39.1547891,8.69738196 41.3923842,9.21672687 L46.3434583,10.3565428 C48.1612915,10.7845035 49.7208273,11.9446061 50.6520215,13.5615832 C51.5832158,15.1785603 51.8030703,17.1082893 51.2594184,18.8928872 L49.7846304,23.7432424 C49.1174004,25.9395323 49.1174004,28.2841413 49.7846304,30.4804312 L51.2594184,35.3307863 C51.8020311,37.1158166 51.5817717,39.0454719 50.650809,40.662711 C49.7198464,42.2799502 48.1609905,43.440918 46.3434583,43.8706379 L41.399407,45.0209752 C39.1618119,45.5403201 37.1292622,46.7122219 35.5599486,48.3878161 L32.0906854,52.0878339 C30.8164431,53.4584134 29.0262792,54.2341394 27.1536568,54.2272271 M27.1536568,1.50455701 C25.6980516,1.49397713 24.3045406,2.09274985 23.3121852,3.15641331 L19.8429219,6.85643114 C18.0693381,8.74932787 15.7730129,10.073692 13.2450011,10.6616627 L8.3009498,11.812 C6.8875247,12.1450469 5.67448999,13.0461797 4.94854971,14.3024134 C4.22260943,15.558647 4.04818457,17.0585016 4.46650091,18.4474822 L5.93777754,23.2978374 C6.69632761,25.7780917 6.69632761,28.4280462 5.93777754,30.9083006 L4.46650091,35.7726842 C4.04818457,37.1616649 4.22260943,38.6615194 4.94854971,39.9177531 C5.67448999,41.1739867 6.8875247,42.0751196 8.3009498,42.4081664 L13.2450011,43.5585037 C15.7720338,44.1388261 18.0688891,45.4573914 19.8429219,47.3461997 L23.3121852,51.0462175 C24.3075769,52.1029457 25.6957361,52.7021614 27.1483897,52.7021614 C28.6010434,52.7021614 29.9892026,52.1029457 30.9845943,51.0462175 L34.4538576,47.3461997 C36.2243654,45.4494376 38.5219525,44.1243458 41.0517784,43.5409681 L45.9923183,42.4046593 C47.4055755,42.0723188 48.6188014,41.1720532 49.3453651,39.9165549 C50.0719289,38.6610565 50.2473841,37.1616885 49.8302786,35.7726842 L48.3554905,30.9223291 C47.6005533,28.4415372 47.6005533,25.7926578 48.3554905,23.3118659 L49.8302786,18.4615107 C50.2496372,17.0715743 50.0753027,15.5703394 49.3485433,14.3131748 C48.621784,13.0560102 47.4072048,12.1546715 45.9923183,11.8225214 L41.048267,10.6721841 C38.5196265,10.0858038 36.2228651,8.76118818 34.4503462,6.86695251 L30.9845943,3.15641331 C29.9946641,2.09012692 28.6025371,1.48713974 27.146634,1.49397713" id="Shape" fill="#46B978" fill-rule="nonzero"/>
                            <path d="M4.0942925,31.8096319 L5.31977113,32.9669835 L5.93777754,30.9328504 C6.69632761,28.4525961 6.69632761,25.8026416 5.93777754,23.3223872 L5.31977113,21.2847471 L4.0942925,22.4315773 L4.49810351,23.7572709 C5.16872354,25.9530571 5.16872354,28.2986734 4.49810351,30.4944597 L4.0942925,31.8096319 Z" id="Path" fill="#46B978" fill-rule="nonzero"/>
                            <path d="M13.2450011,10.6721841 C15.7730129,10.0842134 18.0693381,8.75984925 19.8429219,6.86695251 L21.3001529,5.31329574 L19.6919317,4.82580524 L18.7438536,5.83936463 C17.1735936,7.51555579 15.1397405,8.68750435 12.9008839,9.20620549 L11.5489949,9.52184682 L11.1697637,11.1526604 L13.2450011,10.6721841 Z" id="Path" fill="#46B978" fill-rule="nonzero"/>
                            <path d="M34.4538576,6.86695251 C36.2263765,8.76118818 38.5231379,10.0858038 41.0517784,10.6721841 L43.1270158,11.1526604 L42.7442732,9.52184682 L41.3923842,9.20620549 C39.1547891,8.68686058 37.1222394,7.51495883 35.5529258,5.83936463 L34.6013364,4.82580524 L33.000138,5.31329574 L34.4538576,6.86695251 Z" id="Path" fill="#46B978" fill-rule="nonzero"/>
                            <path d="M41.0517784,43.5549966 C38.5242514,44.1360915 36.2272943,45.4559363 34.4538576,47.3461997 L33.000138,48.9138849 L34.6048478,49.4013754 L35.5564372,48.3878161 C37.1257508,46.7122219 39.1583005,45.5403201 41.3958956,45.0209752 L42.7477846,44.7053339 L43.1305272,43.0710132 L41.0517784,43.5549966 Z" id="Path" fill="#46B978" fill-rule="nonzero"/>
                            <path d="M49.7951646,30.4804312 L49.7951646,30.4804312 C49.1279346,28.2841413 49.1279346,25.9395323 49.7951646,23.7432424 L50.2059984,22.4175488 L48.9805198,21.2707186 L48.3625133,23.3083587 C47.6075761,25.7891507 47.6075761,28.43803 48.3625133,30.9188219 L48.973497,32.9669835 L50.2059984,31.8096319 L49.7951646,30.4804312 Z" id="Path" fill="#46B978" fill-rule="nonzero"/>
                            <g id="Group" opacity="0.66" style="mix-blend-mode: multiply;" stroke-width="1" fill="none" fill-rule="evenodd" transform="translate(44.380586, 33.412388)">
                                <g id="Clipped">
                                    <mask id="mask-34" fill="white">
                                        <use xlink:href="#path-33"/>
                                    </mask>
                                    <g id="Rectangle"/>
                                    <g mask="url(#mask-34)">
                                        <g transform="translate(-0.003511, 0.000000)">
                                            <mask id="mask-36" fill="white">
                                                <use xlink:href="#path-35"/>
                                            </mask>
                                            <g id="Path" stroke="none" fill="none"/>
                                            <polygon id="Rectangle" stroke="none" fill="url(#linearGradient-37)" fill-rule="nonzero" mask="url(#mask-36)" transform="translate(3.993796, 5.798436) rotate(0) translate(-3.993796, -5.798436) " points="-2.59687744 -0.178698658 10.5780876 -0.171656393 10.5844699 11.7755716 -2.59049515 11.7685293"/>
                                        </g>
                                    </g>
                                </g>
                            </g>
                            <path d="M19.8429219,47.3461997 C18.0702695,45.4521317 15.7735629,44.1275476 13.2450011,43.5409681 L11.1697637,43.0569847 L11.5489949,44.6913054 L12.9008839,45.0069467 C15.1426561,45.5324498 17.1768386,46.713135 18.7438536,48.3983374 L19.6919317,49.4118968 L21.3001529,48.9244063 L19.8429219,47.3461997 Z" id="Path" fill="#46B978" fill-rule="nonzero"/>
                            <g id="Group" opacity="0.66" style="mix-blend-mode: multiply;" stroke-width="1" fill="none" fill-rule="evenodd" transform="translate(2.728358, 33.412388)">
                                <g id="Clipped">
                                    <mask id="mask-39" fill="white">
                                        <use xlink:href="#path-38"/>
                                    </mask>
                                    <g id="Rectangle"/>
                                    <g mask="url(#mask-39)">
                                        <g transform="translate(0.003572, 0.003507)">
                                            <mask id="mask-41" fill="white">
                                                <use xlink:href="#path-40"/>
                                            </mask>
                                            <g id="Path" stroke="none" fill="none"/>
                                            <polygon id="Rectangle" stroke="none" fill="url(#linearGradient-42)" fill-rule="nonzero" mask="url(#mask-41)" transform="translate(3.458564, 5.447724) rotate(0) translate(-3.458564, -5.447724) " points="-2.31996148 1.23519146 9.23614034 1.23649645 9.23709047 9.66025644 -2.31901135 9.65895145"/>
                                        </g>
                                    </g>
                                </g>
                            </g>
                            <g id="Group" opacity="0.66" style="mix-blend-mode: multiply;" stroke-width="1" fill="none" fill-rule="evenodd" transform="translate(20.840159, 50.137872)">
                                <g id="Clipped">
                                    <mask id="mask-44" fill="white">
                                        <use xlink:href="#path-43"/>
                                    </mask>
                                    <g id="Rectangle"/>
                                    <g mask="url(#mask-44)">
                                        <g transform="translate(0.000000, 0.014029)">
                                            <mask id="mask-46" fill="white">
                                                <use xlink:href="#path-45"/>
                                            </mask>
                                            <g id="Path" stroke="none" fill="none"/>
                                            <polygon id="Rectangle" stroke="none" fill="url(#linearGradient-47)" fill-rule="nonzero" mask="url(#mask-46)" transform="translate(6.310136, 2.028605) rotate(0) translate(-6.310136, -2.028605) " points="-0.321763904 -1.85308073 12.9392725 -1.84836365 12.942035 5.91029006 -0.319001343 5.90557298"/>
                                        </g>
                                    </g>
                                </g>
                            </g>
                            <g id="Group" opacity="0.66" style="mix-blend-mode: multiply;" stroke-width="1" fill="none" fill-rule="evenodd" transform="translate(20.840159, 0.000000)">
                                <g id="Clipped">
                                    <mask id="mask-49" fill="white">
                                        <use xlink:href="#path-48"/>
                                    </mask>
                                    <g id="Rectangle"/>
                                    <g mask="url(#mask-49)">
                                        <g transform="translate(-0.000000, -0.011112)">
                                            <mask id="mask-51" fill="white">
                                                <use xlink:href="#path-50"/>
                                            </mask>
                                            <g id="Path" stroke="none" fill="none"/>
                                            <polygon id="Rectangle" stroke="none" fill="url(#linearGradient-52)" fill-rule="nonzero" mask="url(#mask-51)" transform="translate(6.308020, 2.053367) rotate(0) translate(-6.308020, -2.053367) " points="3.82616405 -4.38320302 8.78877708 -4.38277903 8.78987556 8.48993628 3.82726254 8.48951229"/>
                                        </g>
                                    </g>
                                </g>
                            </g>
                            <g id="Group" opacity="0.66" style="mix-blend-mode: multiply;" stroke-width="1" fill="none" fill-rule="evenodd" transform="translate(2.728358, 9.900616)">
                                <g id="Clipped">
                                    <mask id="mask-54" fill="white">
                                        <use xlink:href="#path-53"/>
                                    </mask>
                                    <g id="Rectangle"/>
                                    <g mask="url(#mask-54)">
                                        <g transform="translate(0.003629, -0.000000)">
                                            <mask id="mask-56" fill="white">
                                                <use xlink:href="#path-55"/>
                                            </mask>
                                            <g id="Path" stroke="none" fill="none"/>
                                            <polygon id="Rectangle" stroke="none" fill="url(#linearGradient-57)" fill-rule="nonzero" mask="url(#mask-56)" transform="translate(3.458185, 5.450333) rotate(0) translate(-3.458185, -5.450333) " points="-3.05702536 -1.01609528 9.96553133 -1.00817092 9.97339589 11.9167606 -3.0491608 11.9088362"/>
                                        </g>
                                    </g>
                                </g>
                            </g>
                            <g id="Group" opacity="0.66" style="mix-blend-mode: multiply;" stroke-width="1" fill="none" fill-rule="evenodd" transform="translate(44.380586, 9.900616)">
                                <g id="Clipped">
                                    <mask id="mask-59" fill="white">
                                        <use xlink:href="#path-58"/>
                                    </mask>
                                    <g id="Rectangle"/>
                                    <g mask="url(#mask-59)">
                                        <g transform="translate(0.000000, 0.000000)">
                                            <mask id="mask-61" fill="white">
                                                <use xlink:href="#path-60"/>
                                            </mask>
                                            <g id="Path" stroke="none" fill="none"/>
                                            <polygon id="Rectangle" stroke="none" fill="url(#linearGradient-62)" fill-rule="nonzero" mask="url(#mask-61)" transform="translate(3.717348, 5.446655) rotate(0) translate(-3.717348, -5.446655) " points="-1.48292406 -0.880980457 8.91317067 -0.877327422 8.91762068 11.7742899 -1.47847405 11.7706369"/>
                                        </g>
                                    </g>
                                </g>
                            </g>
                            <path d="M23.459664,42.6150868 L37.4525933,28.6391901 C37.8587214,28.2351178 38.0870137,27.6861401 38.0870137,27.1135903 C38.0870137,26.5410406 37.8587214,25.9920629 37.4525933,25.5879906 L32.9615126,21.1023765 L22.4659377,31.588683 C21.6836033,32.3699854 21.2439705,33.4296839 21.2439705,34.5346688 L21.2439705,41.6962198 C21.2449238,42.2217504 21.5623119,42.6951117 22.0484849,42.8960948 C22.5346578,43.0970778 23.0941511,42.9862177 23.4666868,42.6150868" id="Path" fill="#46B978" fill-rule="nonzero"/>
                            <g id="Group" opacity="0.66" style="mix-blend-mode: multiply;" stroke-width="1" fill="none" fill-rule="evenodd" transform="translate(21.236948, 21.098869)">
                                <g id="Clipped">
                                    <mask id="mask-64" fill="white">
                                        <use xlink:href="#path-63"/>
                                    </mask>
                                    <g id="Rectangle"/>
                                    <g mask="url(#mask-64)">
                                        <g transform="translate(0.007023, 0.003507)">
                                            <mask id="mask-66" fill="white">
                                                <use xlink:href="#path-65"/>
                                            </mask>
                                            <g id="Path" stroke="none" fill="none"/>
                                            <polygon id="Rectangle" stroke="none" fill="url(#linearGradient-67)" fill-rule="nonzero" mask="url(#mask-66)" transform="translate(8.422289, 11.171024) rotate(0) translate(-8.422289, -11.171024) " points="-5.16683195 -2.8162296 21.9947422 -2.80004134 22.0114094 25.1582781 -5.15016467 25.1420899"/>
                                        </g>
                                    </g>
                                </g>
                            </g>
                            <path d="M21.2369477,12.5309608 L21.2369477,19.6925119 C21.2386603,20.7975215 21.6809053,21.8563555 22.4659377,22.6349906 L32.9685354,33.1248041 L37.4596161,28.6391901 C37.8657442,28.2351178 38.0940365,27.6861401 38.0940365,27.1135903 C38.0940365,26.5410406 37.8657442,25.9920629 37.4596161,25.5879906 L23.459664,11.6120939 C23.0871283,11.240963 22.527635,11.1301029 22.0414621,11.3310859 C21.5552891,11.5320689 21.237901,12.0054303 21.2369477,12.5309608" id="Path" fill="#06675E" fill-rule="nonzero"/>
                        </g>
                    </g>
                </g>
                <g id="Clipped" transform="translate(89.013987, 11.226267)">
                    <mask id="mask-69" fill="white">
                        <use xlink:href="#path-68"/>
                    </mask>
                    <g id="Path"/>
                    <polygon id="Rectangle" fill="url(#linearGradient-70)" fill-rule="nonzero" mask="url(#mask-69)" transform="translate(8.532592, 10.961263) rotate(0) translate(-8.532592, -10.961263) " points="-4.31547078 -2.7817409 21.3662373 -2.76827214 21.3806542 24.7042674 -4.3010539 24.6907986"/>
                </g>
                <g id="Clipped">
                    <mask id="mask-72" fill="white">
                        <use xlink:href="#path-71"/>
                    </mask>
                    <g id="Rectangle"/>
                    <g id="Group" mask="url(#mask-72)" fill-rule="nonzero">
                        <g transform="translate(0.000000, 14.484430)">
                            <path d="M7.74965998,12.0539917 C7.74965998,9.78137414 7.24870024,7.99507801 6.24678075,6.69510335 C5.34552139,5.52606138 3.94096136,4.64577278 2.03310065,4.05423754 C1.95161273,4.029172 1.86347452,4.03767421 1.78829567,4.07785252 C1.71311681,4.11803084 1.6571334,4.18655247 1.63280104,4.26817222 L1.29921803,5.37291688 C1.24920825,5.54138753 1.34495647,5.71854128 1.51341344,5.76922211 C2.91797347,6.21579614 3.95734789,6.87864293 4.63153671,7.75776249 C5.33381673,8.69299607 5.70836607,9.94036385 5.75518474,11.4998658 L0.319537408,11.4998658 C0.234790818,11.4998658 0.153515228,11.5334903 0.0935903398,11.5933422 C0.0336654516,11.6531942 0,11.7343709 0,11.8190143 L0,12.7975024 C0,12.9737632 0.14306177,13.1166509 0.319537408,13.1166509 L7.43012258,13.1166509 C7.60659821,13.1166509 7.74965998,12.9737632 7.74965998,12.7975024 L7.74965998,12.0539917 Z" id="Path" fill="#009652"/>
                            <path d="M21.6372473,13.1166509 L22.2271625,13.1166509 L22.2271625,13.1166509 C23.6317226,13.0465084 24.4885042,12.5169323 24.8080416,11.5138943 C25.5267081,12.5894129 26.9312682,13.1283413 29.0217217,13.1306794 L51.291021,13.1306794 C51.4674967,13.1306794 51.6105584,12.9877917 51.6105584,12.8115309 L51.6105584,11.8190143 C51.6105584,11.6427535 51.4674967,11.4998658 51.291021,11.4998658 L50.1252362,11.4998658 C48.5802202,11.4998658 47.4097535,11.2029292 46.6138361,10.6090559 C45.987549,10.125139 45.5909463,9.40289445 45.5190179,8.61530596 C45.4470896,7.82771748 45.706314,7.04572363 46.2346049,6.45661878 C46.7284964,5.97615652 47.3999739,5.72211859 48.0886241,5.7551936 C48.6867487,5.74823632 49.2813121,5.84800139 49.8443242,6.04979218 C49.9300156,6.08004836 50.0246011,6.07199085 50.1039246,6.02767748 C50.1832481,5.98336411 50.2396294,5.90708529 50.2586694,5.81832187 L50.483399,4.83281949 C50.5226202,4.67189715 50.4306396,4.50806488 50.272715,4.45755702 C49.5896715,4.2518841 48.8792384,4.15136193 48.1658749,4.15945132 C46.6629957,4.15945132 45.4855062,4.58615164 44.6334065,5.43955227 C43.8511896,6.24483236 43.4325583,7.33448316 43.4746444,8.45568055 C43.4746444,9.91464492 44.0540254,10.9317114 45.2127875,11.5068801 L39.5945473,11.5068801 L39.5945473,4.68902733 C39.5945473,4.5127665 39.4514856,4.36987887 39.2750099,4.36987887 L37.8704499,4.36987887 C37.6939743,4.36987887 37.5509125,4.5127665 37.5509125,4.68902733 L37.5509125,11.4998658 L32.6560208,11.4998658 L32.6560208,8.34345252 C32.6560208,5.5377518 31.294768,4.13490144 28.5722625,4.13490144 C27.0881107,4.13490144 25.917644,4.59199685 25.0608624,5.50618767 C24.2627883,6.36010086 23.8360204,7.49508192 23.8740092,8.66260098 C23.8740092,9.721753 23.6715184,10.4687708 23.266537,10.9036544 C22.8315049,11.3125773 22.2431141,11.5178172 21.6477815,11.4683017 L12.5181413,11.4683017 L12.5181413,0.319148457 C12.5181413,0.142887631 12.3750795,0 12.1986039,0 L10.7940439,0 C10.6175682,0 10.4745064,0.142887631 10.4745064,0.319148457 L10.4745064,12.7975024 C10.4745064,12.9737632 10.6175682,13.1166509 10.7940439,13.1166509 L21.6372473,13.1166509 Z M26.5742758,6.55832544 C27.0437981,6.02438597 27.7317214,5.7337951 28.4423407,5.76922211 C29.9358562,5.76922211 30.6826139,6.73718886 30.6826139,8.67312235 L30.6826139,11.4998658 L29.0322559,11.4998658 C26.9581889,11.4998658 25.9199849,10.53073 25.917644,8.59245846 C25.876604,7.85657357 26.1106038,7.13168227 26.5742758,6.55832544" id="Shape" fill="#009652"/>
                            <path d="M39.7279805,2.78816509 C40.0220149,2.79288438 40.3046394,2.67463176 40.5075114,2.46200238 C40.9284393,2.02264185 40.9284393,1.33017051 40.5075114,0.890809979 C40.3046394,0.6781806 40.0220149,0.559927987 39.7279805,0.56464727 C39.436999,0.559846913 39.1575935,0.678354127 38.9589839,0.890809979 C38.7522308,1.09819135 38.6382459,1.38027691 38.6429579,1.67289905 C38.634668,1.97133995 38.7488326,2.26020471 38.9589839,2.47252376 C39.1611466,2.67859132 39.4391614,2.79270493 39.7279805,2.78816509" id="Path" fill="#009652"/>
                            <path d="M36.8416097,2.78816509 C37.1361479,2.79552802 37.4198017,2.67684468 37.6211405,2.46200238 C38.0420684,2.02264185 38.0420684,1.33017051 37.6211405,0.890809979 C37.4198017,0.67596768 37.1361479,0.557284344 36.8416097,0.56464727 C36.552887,0.560956112 36.2760788,0.679443806 36.0796359,0.890809979 C35.8728828,1.09819135 35.7588978,1.38027691 35.7636098,1.67289905 C35.7581259,1.97084024 35.8718757,2.25865542 36.0796359,2.47252376 C36.2781814,2.67964562 36.5545754,2.79413954 36.8416097,2.78816509" id="Path" fill="#009652"/>
                            <path d="M55.7785903,-2.49196283e-15 L54.3740303,-2.49196283e-15 C54.1975547,-2.49196283e-15 54.0544929,0.142887631 54.0544929,0.319148457 L54.0544929,12.7975024 C54.0544929,12.9737632 54.1975547,13.1166509 54.3740303,13.1166509 L55.7785903,13.1166509 C55.955066,13.1166509 56.0981277,12.9737632 56.0981277,12.7975024 L56.0981277,0.319148457 C56.0981277,0.142887631 55.955066,-2.49196283e-15 55.7785903,-2.49196283e-15" id="Path" fill="#009652"/>
                            <path d="M22.3781527,25.1461259 L25.9843606,25.1461259 C26.0358703,25.1470546 26.0855544,25.1270411 26.1219836,25.0906563 C26.1584128,25.0542714 26.1784507,25.0046478 26.1774876,24.9532008 L26.1774876,24.2973682 C26.180384,24.2444128 26.1613227,24.1926024 26.1247857,24.1541193 C26.0882487,24.1156363 26.0374596,24.093876 25.9843606,24.0939549 L23.406993,24.0939549 L23.406993,21.726645 L25.864973,21.726645 C25.9716341,21.726645 26.0581,21.6402843 26.0581,21.533753 L26.0581,20.9375416 C26.0581,20.8310104 25.9716341,20.7446497 25.864973,20.7446497 L23.406993,20.7446497 L23.406993,18.580753 L25.9843606,18.580753 C26.0358703,18.5817149 26.0855544,18.5617015 26.1219836,18.5253166 C26.1584128,18.4889317 26.1784507,18.4393081 26.1774876,18.3878611 L26.1774876,17.7530713 C26.1774876,17.64654 26.0910217,17.5601794 25.9843606,17.5601794 L22.3781527,17.5601794 C22.2714916,17.5601794 22.1850257,17.64654 22.1850257,17.7530713 L22.1850257,24.9532008 C22.1850257,25.0597321 22.2714916,25.1461259 22.3781527,25.1461259" id="Path" fill="#46B978"/>
                            <path d="M30.3104055,24.2237186 C30.094967,24.2507941 29.879893,24.1708945 29.7345359,24.0097839 C29.6087667,23.7493146 29.5565607,23.4594997 29.5835457,23.1715808 L29.5835457,20.4921366 L30.8441383,20.4921366 C30.9507994,20.4921366 31.0372653,20.405776 31.0372653,20.2992447 L31.0372653,19.7521331 C31.0372653,19.6456018 30.9507994,19.5592412 30.8441383,19.5592412 L29.5835457,19.5592412 L29.5835457,17.7811283 C29.5835457,17.6687863 29.4923635,17.577715 29.3798845,17.577715 L28.5863081,17.577715 C28.4738291,17.577715 28.3826469,17.6687863 28.3826469,17.7811283 L28.3826469,19.5732697 L27.5083083,19.5732697 C27.4016472,19.5732697 27.3151812,19.6596303 27.3151812,19.7661616 L27.3151812,20.3132732 C27.3151812,20.4198045 27.4016472,20.5061651 27.5083083,20.5061651 L28.3826469,20.5061651 L28.3826469,23.5538576 C28.3374199,24.0184004 28.4513084,24.4845276 28.7056957,24.876044 C29.0401798,25.1712495 29.4840683,25.3113883 29.9276629,25.2618279 C30.2613662,25.2625075 30.5942892,25.2296082 30.9213891,25.1636283 C31.0192639,25.1458172 31.0867137,25.0554832 31.0758907,24.9567079 L31.0161969,24.3710179 C31.0110173,24.3183423 30.9843937,24.2701068 30.9425631,24.2376115 C30.9007326,24.2051162 30.8473707,24.1912165 30.7949787,24.1991687 C30.6348339,24.2256644 30.4727306,24.23857 30.3104055,24.2377471" id="Path" fill="#46B978"/>
                            <path d="M32.92991,25.1461259 L33.7410434,25.1461259 C33.8477045,25.1461259 33.9341704,25.0597321 33.9341704,24.9532008 L33.9341704,19.7521331 C33.9341704,19.6456018 33.8477045,19.5592412 33.7410434,19.5592412 L32.92991,19.5592412 C32.8232489,19.5592412 32.736783,19.6456018 32.736783,19.7521331 L32.736783,24.9532008 C32.7358199,25.0046478 32.7558578,25.0542714 32.792287,25.0906563 C32.8287162,25.1270411 32.8784003,25.1470546 32.92991,25.1461259" id="Path" fill="#46B978"/>
                            <path d="M33.2354018,17.0797031 C33.029591,17.0756584 32.8312906,17.1569133 32.6876234,17.3041592 C32.5478175,17.443621 32.4692607,17.6328763 32.4692607,17.8302281 C32.4692607,18.0275799 32.5478175,18.2168351 32.6876234,18.356297 C32.8329448,18.5002667 33.0307789,18.5787974 33.2354018,18.5737388 C33.6519784,18.5719473 33.9913799,18.2391789 34.000887,17.8232138 C34.0044411,17.62041 33.9199229,17.425999 33.7691346,17.2901307 C33.6293391,17.1472821 33.435196,17.07074 33.2354018,17.0797031" id="Path" fill="#46B978"/>
                            <path d="M42.013902,19.4505202 C41.1981488,19.4065086 40.4468045,19.8921641 40.15286,20.6534644 C40.012404,19.8503326 39.4962281,19.4505202 38.6113553,19.4505202 C37.7838284,19.4047652 37.0221154,19.9001276 36.7292449,20.6745072 L36.7046651,20.6745072 C36.7527333,20.3740333 36.7785536,20.0704283 36.7819159,19.7661616 C36.781933,19.6590484 36.6960155,19.5716753 36.5887889,19.5697625 L35.8338379,19.5697625 C35.7271768,19.5697625 35.6406777,19.6561232 35.6406777,19.7626545 L35.6406777,24.9637222 C35.6397478,25.0151691 35.6597856,25.0647928 35.6962148,25.1011777 C35.732644,25.1375625 35.7823282,25.157576 35.8338379,25.1566141 L36.6449713,25.1566141 C36.7516324,25.1566141 36.8380983,25.0702534 36.8380983,24.9637222 L36.8380983,22.508734 C36.8192244,21.989465 36.9681969,21.4779185 37.2629777,21.0497697 C37.472792,20.6878915 37.8557144,20.4608082 38.2742609,20.4500511 C38.8150165,20.4500511 39.0853943,20.8288207 39.0853943,21.5863599 L39.0853943,24.9532008 C39.0844313,25.0046478 39.1044691,25.0542714 39.1408983,25.0906563 C39.1773275,25.1270411 39.2270117,25.1470546 39.2785213,25.1460927 L40.0685864,25.1460927 C40.1752475,25.1460927 40.2617134,25.0597321 40.2617134,24.9532008 L40.2617134,22.4982127 C40.2397541,21.9683197 40.3981855,21.4466271 40.7111726,21.0182055 C40.9261315,20.6815632 41.2947191,20.4738276 41.6943646,20.4640796 C42.2316088,20.4640796 42.4984752,20.8428492 42.4984752,21.6003884 L42.4984752,24.9672293 C42.4984752,25.0737606 42.5849411,25.1601544 42.6916022,25.1601544 L43.4922014,25.1601544 C43.5437111,25.1610831 43.5933952,25.1410696 43.6298244,25.1046848 C43.6662536,25.0682999 43.6862915,25.0186763 43.6853616,24.9672293 L43.6853616,21.2882542 C43.6853616,20.0584221 43.1328682,19.443506 42.0279476,19.443506" id="Path" fill="#46B978"/>
                            <path d="M49.728448,21.4039894 C49.7705505,20.8851445 49.608002,20.3704049 49.2754774,19.9695749 C48.938383,19.6235385 48.3800703,19.4505202 47.6005395,19.4505202 C46.9516281,19.4472433 46.3072706,19.5588593 45.6973607,19.7801901 C45.6057438,19.8132682 45.5541303,19.9103048 45.5779731,20.0046461 L45.7008721,20.5482507 C45.7139463,20.6035692 45.7507825,20.6503125 45.8015466,20.6760017 C45.8523107,20.7016908 45.9118345,20.7037105 45.9642271,20.6815214 C46.4299207,20.4894081 46.928162,20.3882145 47.4319923,20.3834157 C47.7455508,20.3514801 48.0580186,20.4533862 48.2922853,20.6639858 C48.4739251,20.9184979 48.558601,21.2294275 48.5310606,21.5407673 L48.5310606,21.7757447 C47.7000789,21.7315646 46.8717083,21.9018684 46.1257515,22.2702495 C45.5801371,22.5405324 45.2386155,23.0999462 45.2479015,23.7081711 C45.2290514,24.1219474 45.3814276,24.5252528 45.6692695,24.8234371 C45.9719472,25.1193353 46.3838301,25.2767775 46.8069631,25.2583207 C47.7269499,25.2583207 48.3437859,24.8737059 48.657471,24.1044763 L48.657471,24.1044763 C48.6201927,24.3811522 48.6014236,24.6600025 48.6012886,24.9391723 C48.5993476,24.9912189 48.6189526,25.0417667 48.6554919,25.0789249 C48.6920311,25.1160832 48.742279,25.1365719 48.7944156,25.1355713 L49.552878,25.1355713 C49.6053758,25.1367114 49.6559127,25.1156475 49.6920263,25.077574 C49.7281399,25.0395004 49.746469,24.9879609 49.7424936,24.9356652 C49.7424936,24.5218243 49.7179138,24.0764193 49.7179138,23.6064644 L49.728448,21.4039894 Z M48.5310606,22.7331901 C48.5362466,23.1292782 48.403428,23.5148511 48.1553407,23.8239062 C47.9250822,24.1328837 47.5612928,24.3139058 47.1756601,24.3113967 C46.9677983,24.321159 46.765334,24.2435785 46.6173475,24.0974621 C46.4785597,23.9541244 46.4049109,23.7600804 46.4136863,23.5608718 C46.4136863,22.9085464 47.1159663,22.5823837 48.5205264,22.5823837 L48.5310606,22.7331901 Z" id="Shape" fill="#46B978"/>
                            <path d="M54.9112745,17.13231 L54.9112745,19.5136485 C54.506293,19.4855915 54.225381,19.471563 54.0685385,19.471563 C53.2680423,19.4321085 52.4904099,19.7448335 51.94063,20.3273017 C51.3926601,20.964829 51.1121592,21.7889752 51.1575878,22.6279763 C51.1158895,23.3076216 51.297098,23.9823248 51.6737636,24.5498813 C52.0371886,25.0233284 52.611952,25.2860578 53.2082455,25.2513065 C54.0004919,25.2996958 54.7342083,24.8342541 55.0271507,24.0974621 L55.0482191,24.0974621 C55.0002109,24.3779715 54.9732153,24.6616665 54.9674569,24.9461865 C54.9674569,25.0527178 55.0539228,25.1390785 55.1605839,25.1390785 L55.9050007,25.1390785 C55.9565104,25.1400403 56.0061945,25.1200269 56.0426237,25.083642 C56.0790529,25.0472572 56.0990908,24.9976335 56.0981609,24.9461865 L56.0981609,17.13231 C56.0981609,17.0811519 56.0777805,17.0320891 56.0415621,16.9959148 C56.0053438,16.9597406 55.9562212,16.9394181 55.9050007,16.9394181 L55.1044015,16.9394181 C54.9977404,16.9394181 54.9112745,17.0257788 54.9112745,17.13231 M54.9112745,22.2597281 C54.9230317,22.7370853 54.801442,23.2082792 54.5601345,23.6204929 C54.3656998,24.0103288 53.9707701,24.2602366 53.5348057,24.2693112 C52.7974117,24.2693112 52.4252032,23.6836212 52.4252032,22.5157483 C52.4252032,21.1128979 52.9601065,20.4114727 54.0299131,20.4114727 C54.3274686,20.4136984 54.6239987,20.446606 54.9147859,20.5096723 L54.9112745,22.2597281 Z" id="Shape" fill="#46B978"/>
                        </g>
                    </g>
                </g>
            </g>
        </g>
    </g>
</svg>