<svg xmlns="http://www.w3.org/2000/svg" xmlns:xlink="http://www.w3.org/1999/xlink" id="Group_3975" viewBox="0 0 58 56"><style>.st0{fill:#00ce7c}.st1{fill:url(#Path_6867_1_)}.st1,.st2,.st3,.st4,.st5,.st6,.st7{opacity:.66;enable-background:new}.st2{fill:url(#Path_6868_1_)}.st3{fill:url(#Path_6869_1_)}.st4{fill:url(#Path_6870_1_)}.st5{fill:url(#Path_6871_1_)}.st6{fill:url(#Path_6872_1_)}.st7{fill:url(#Path_6879_1_)}.st10,.st11,.st12,.st13,.st8,.st9{opacity:.66;enable-background:new}.st8{fill:url(#Path_6881_1_)}.st9{fill:url(#Path_6882_1_)}.st10{fill:url(#Path_6883_1_)}.st11{fill:url(#Path_6884_1_)}.st12{fill:url(#Path_6885_1_)}.st13{fill:url(#Path_6887_1_)}.st14{fill:#00665e}.st15{fill:url(#Path_6889_1_)}</style><g id="Group_3969" transform="translate(69.931)"><g id="Group_3966" transform="translate(.055 2.789)"><path id="Path_6866" class="st0" d="M-30.5 50.4c-.7 0-1.4-.1-2-.3l-5-1.5c-2.3-.7-4.7-.7-6.9 0l-5 1.5c-1.8.6-3.8.3-5.5-.7-1.7-1-2.9-2.6-3.3-4.5l-1.2-5.1c-.5-2.3-1.7-4.4-3.5-6l-3.8-3.6c-2.8-2.6-3-7-.3-9.8l.3-.3 3.8-3.6c1.7-1.6 2.9-3.7 3.5-6l1.2-5.1c.4-1.9 1.6-3.5 3.3-4.5 1.7-1 3.7-1.2 5.5-.7l5 1.5c2.3.7 4.7.7 6.9 0l5-1.5c1.8-.5 3.8-.2 5.5.8 1.7 1 2.9 2.6 3.3 4.5l1.2 5.1c.5 2.3 1.7 4.4 3.5 6l3.8 3.6c2.8 2.6 3 7 .3 9.8l-.3.3-3.8 3.6c-1.7 1.6-2.9 3.7-3.5 6l-1.2 5.1c-.4 1.9-1.6 3.5-3.3 4.5-1.1.6-2.3.9-3.5.9zm-21-48.8c-.9 0-1.9.2-2.7.7-1.3.8-2.2 2-2.6 3.5l-1.2 5.1c-.6 2.6-2 5-3.9 6.8l-3.8 3.6c-2.2 2.1-2.3 5.5-.2 7.7l.2.2 3.8 3.6c2 1.8 3.3 4.2 3.9 6.8l1.2 5.1c.7 2.9 3.6 4.7 6.6 4 .1 0 .2-.1.3-.1l5-1.5c2.6-.8 5.3-.8 7.9 0l5 1.5c1.4.4 3 .3 4.3-.5 1.3-.8 2.2-2 2.6-3.5l1.2-5.1c.6-2.6 2-5 3.9-6.8l3.8-3.6c2.2-2.1 2.3-5.5.2-7.7l-.2-.2-3.8-3.6c-2-1.8-3.3-4.2-3.9-6.8l-1.2-5.1c-.7-2.9-3.6-4.7-6.6-4-.1 0-.2.1-.3.1l-5 1.5c-2.6.8-5.3.8-7.9 0l-5-1.5c-.6-.1-1.1-.2-1.6-.2z"/></g><linearGradient id="Path_6867_1_" gradientUnits="userSpaceOnUse" x1="-211.346" y1="278.358" x2="-210.538" y2="278.637" gradientTransform="matrix(12.398 0 0 -8.3342 2563.796 2327.056)"><stop offset="0" stop-color="#fff"/><stop offset="1" stop-color="#1e754a"/></linearGradient><path id="Path_6867" class="st1" d="M-57.3 10.7l.5-2.2c.3-1.5 1.3-2.7 2.6-3.5.8-.5 1.8-.7 2.7-.7.5 0 1.1.1 1.6.2l2.1.7c.4-.5.8-.9 1.3-1.3l-2.9-.9c-1.8-.6-3.8-.3-5.5.7-1.7 1-2.9 2.6-3.3 4.5l-.7 2.9c.5-.1 1-.3 1.6-.4z"/><linearGradient id="Path_6868_1_" gradientUnits="userSpaceOnUse" x1="-210.776" y1="276.603" x2="-210.649" y2="277.473" gradientTransform="matrix(11.89 0 0 -7.8952 2477.11 2191.461)"><stop offset="0" stop-color="#fff"/><stop offset="1" stop-color="#1e754a"/></linearGradient><path id="Path_6868" class="st2" d="M-34.3 5.3l2.4-.7c1.4-.4 3-.3 4.3.5 1.3.8 2.2 2 2.6 3.5l.4 1.9c.6.1 1.1.1 1.7.2l-.6-2.5c-.4-1.9-1.6-3.5-3.3-4.5-1.7-1-3.7-1.2-5.5-.7l-2.5.7c.1.6.3 1.1.5 1.6z"/><linearGradient id="Path_6869_1_" gradientUnits="userSpaceOnUse" x1="-201.924" y1="290.493" x2="-201.294" y2="291.219" gradientTransform="matrix(5.0097 0 0 -14.319 943.71 4194.327)"><stop offset="0" stop-color="#fff"/><stop offset="1" stop-color="#1e754a"/></linearGradient><path id="Path_6869" class="st3" d="M-64 33.5l-1.7-1.5c-2.2-2.1-2.3-5.5-.2-7.7l.2-.2 1.7-1.6c-.2-.6-.3-1.1-.5-1.7l-2.3 2.2c-2.8 2.6-3 7-.3 9.8l.3.3 2.2 2c.1-.6.3-1.1.6-1.6z"/><linearGradient id="Path_6870_1_" gradientUnits="userSpaceOnUse" x1="-200.905" y1="289.374" x2="-201.666" y2="289.976" gradientTransform="matrix(4.7898 0 0 -13.215 947.05 3853.36)"><stop offset="0" stop-color="#fff"/><stop offset="1" stop-color="#1e754a"/></linearGradient><path id="Path_6870" class="st4" d="M-15.1 22.9l-2.1-2c-.1.6-.3 1.1-.4 1.7l1.5 1.4c2.2 2.1 2.3 5.5.2 7.7l-.2.2-1 .9c.4.3.8.7.9 1.2l1.1-1c2.8-2.7 2.9-7.1.3-10-.1.1-.2 0-.3-.1z"/><linearGradient id="Path_6871_1_" gradientUnits="userSpaceOnUse" x1="-211.109" y1="277.104" x2="-210.828" y2="277.806" gradientTransform="matrix(12.112 0 0 -8.1172 2501.419 2302.253)"><stop offset="0" stop-color="#fff"/><stop offset="1" stop-color="#1e754a"/></linearGradient><path id="Path_6871" class="st5" d="M-47.2 51.4c-.2-.2-.4-.5-.5-.7l-2.3.7c-1.4.4-3 .3-4.3-.5-1.3-.8-2.2-2-2.6-3.5l-.5-2.4H-59l.6 2.7c.4 1.9 1.6 3.5 3.3 4.5 1.7 1 3.7 1.2 5.5.7l2.7-.8c0-.2-.2-.5-.3-.7z"/><linearGradient id="Path_6872_1_" gradientUnits="userSpaceOnUse" x1="-211.146" y1="275.306" x2="-210.622" y2="275.929" gradientTransform="matrix(12.165 0 0 -7.654 2536.644 2159.679)"><stop offset="0" stop-color="#fff"/><stop offset="1" stop-color="#1e754a"/></linearGradient><path id="Path_6872" class="st6" d="M-24.8 45.8l-.4 1.7c-.7 2.9-3.6 4.7-6.6 4-.1 0-.2-.1-.3-.1l-2.4-.7c-.3.4-.6.9-.9 1.3l2.8.9c.7.2 1.3.3 2 .3 1.2 0 2.4-.3 3.5-.9 1.7-1 2.9-2.6 3.3-4.5l.6-2.3-1.6.3z"/><g id="Group_3967" transform="translate(2.844 .055)"><path id="Path_6873" class="st0" d="M-43.8 55.9c-1.9 0-3.8-.8-5.1-2.2l-3.6-3.8c-1.6-1.7-3.7-2.9-6-3.5l-5.1-1.2c-1.9-.4-3.5-1.6-4.5-3.3-1-1.7-1.2-3.7-.7-5.5l1.5-5c.7-2.3.7-4.7 0-6.9l-1.5-5c-.6-1.8-.3-3.8.7-5.5 1-1.7 2.6-2.9 4.5-3.3l5.1-1.2c2.3-.5 4.4-1.7 6-3.5l3.6-3.8c2.6-2.8 7-3 9.8-.3l.3.3 3.6 3.8c1.6 1.7 3.7 2.9 6 3.5l5.1 1.2c1.9.4 3.5 1.6 4.5 3.3 1 1.7 1.2 3.7.7 5.5l-1.5 5c-.7 2.3-.7 4.7 0 6.9l1.5 5c.6 1.8.3 3.8-.7 5.5-1 1.7-2.6 2.9-4.5 3.3l-5.1 1.2c-2.3.5-4.4 1.7-6 3.5l-3.6 3.8c-1.2 1.5-3.1 2.3-5 2.2zm0-54.4c-1.5 0-2.9.6-4 1.7L-51.3 7c-1.8 2-4.2 3.3-6.8 3.9l-5.1 1.2c-2.9.7-4.7 3.6-4 6.6 0 .1.1.2.1.3l1.5 5c.8 2.6.8 5.3 0 7.9l-1.5 5c-.4 1.4-.3 3 .5 4.3.8 1.3 2 2.2 3.5 2.6L-58 45c2.6.6 5 2 6.8 3.9l3.6 3.8c2.1 2.2 5.5 2.3 7.7.2l.2-.2 3.6-3.8c1.8-2 4.2-3.3 6.8-3.9l5.1-1.2c2.9-.7 4.7-3.6 4-6.6 0-.1-.1-.2-.1-.3l-1.5-5c-.8-2.6-.8-5.3 0-7.9l1.5-5c.4-1.4.3-3-.5-4.3-.8-1.3-2-2.2-3.5-2.6l-5.1-1.2c-2.6-.6-5-2-6.8-3.9l-3.6-3.8c-1-1.1-2.5-1.7-4-1.7z"/></g><g id="Group_3968" transform="translate(2.789)"><path id="Path_6874" class="st0" d="M-67.5 32.9l1.3 1.2.7-2.1c.8-2.6.8-5.3 0-7.9l-.7-2.1-1.3 1.2.4 1.4c.7 2.3.7 4.7 0 6.9l-.4 1.4z"/><path id="Path_6875" class="st0" d="M-58.1 11c2.6-.6 5-2 6.8-3.9l1.5-1.6-1.7-.5-1 1c-1.6 1.7-3.7 2.9-6 3.5l-1.4.3-.4 1.7 2.2-.5z"/><path id="Path_6876" class="st0" d="M-36.2 7.1c1.8 2 4.2 3.3 6.8 3.9l2.1.5-.4-1.7-1.3-.3c-2.3-.5-4.4-1.7-6-3.5l-1-1-1.7.5 1.5 1.6z"/><path id="Path_6877" class="st0" d="M-29.4 45c-2.6.6-5 2-6.8 3.9l-1.5 1.6 1.7.5 1-1c1.6-1.7 3.7-2.9 6-3.5l1.4-.3.4-1.7-2.2.5z"/><path id="Path_6878" class="st0" d="M-20.4 31.5c-.7-2.3-.7-4.7 0-6.9l.4-1.4-1.3-1.2-.7 2.1c-.8 2.6-.8 5.3 0 7.9l.7 2.1 1.3-1.2-.4-1.4z"/><linearGradient id="Path_6879_1_" gradientUnits="userSpaceOnUse" x1="-209.736" y1="286.018" x2="-209.066" y2="286.766" gradientTransform="matrix(7.4542 0 0 -11.342 1540.207 3288.203)"><stop offset="0" stop-color="#fff"/><stop offset="1" stop-color="#1e754a"/></linearGradient><path id="Path_6879" class="st7" d="M-19.5 34.5l-1.3 1.2.4 1.3c.4 1.4.3 3-.5 4.3-.8 1.3-2 2.2-3.5 2.6l-1.3.3-.4 1.7 2-.5c1.9-.4 3.5-1.6 4.5-3.3 1-1.7 1.2-3.7.7-5.5l-.6-2.1z"/><path id="Path_6880" class="st0" d="M-51.3 49c-1.8-2-4.2-3.3-6.8-3.9l-2.1-.5.4 1.7 1.4.3c2.3.5 4.4 1.7 6 3.5l1 1 1.7-.5-1.6-1.6z"/><linearGradient id="Path_6881_1_" gradientUnits="userSpaceOnUse" x1="-209.642" y1="285.844" x2="-209.518" y2="286.721" gradientTransform="matrix(7.4542 0 0 -11.288 1497.24 3271.463)"><stop offset="0" stop-color="#fff"/><stop offset="1" stop-color="#1e754a"/></linearGradient><path id="Path_6881" class="st8" d="M-61.9 44.1l-1.3-.3c-2.9-.7-4.7-3.6-4-6.6 0-.1.1-.2.1-.3l.4-1.3-1.3-1.2-.6 2c-.6 1.8-.3 3.8.7 5.5 1 1.7 2.6 2.9 4.5 3.3l2 .5-.5-1.6z"/><linearGradient id="Path_6882_1_" gradientUnits="userSpaceOnUse" x1="-214.495" y1="248.332" x2="-213.646" y2="249.184" gradientTransform="matrix(13 0 0 -4.1871 2739.903 1094.637)"><stop offset="0" stop-color="#fff"/><stop offset="1" stop-color="#1e754a"/></linearGradient><path id="Path_6882" class="st9" d="M-38.9 51.8l-.9.9c-2.1 2.2-5.5 2.3-7.7.2l-.2-.2-.9-.9-1.7.5 1.4 1.5c1.3 1.4 3.1 2.2 5.1 2.2 1.9 0 3.8-.8 5.1-2.2l1.4-1.5-1.6-.5z"/><linearGradient id="Path_6883_1_" gradientUnits="userSpaceOnUse" x1="-214.1" y1="248.94" x2="-214.073" y2="250.089" gradientTransform="matrix(12.943 0 0 -4.2427 2727.376 1060.002)"><stop offset="0" stop-color="#fff"/><stop offset="1" stop-color="#1e754a"/></linearGradient><path id="Path_6883" class="st10" d="M-48.6 4.2l.9-.9c2.1-2.2 5.5-2.3 7.7-.2l.2.2.9.9 1.7-.5-1.4-1.5c-2.6-2.8-7-3-9.8-.3l-.3.3-1.4 1.5 1.5.5z"/><linearGradient id="Path_6884_1_" gradientUnits="userSpaceOnUse" x1="-209.959" y1="286.223" x2="-208.976" y2="286.896" gradientTransform="matrix(7.4542 0 0 -11.342 1497.19 3263.866)"><stop offset="0" stop-color="#fff"/><stop offset="1" stop-color="#1e754a"/></linearGradient><path id="Path_6884" class="st11" d="M-68 21.5l1.3-1.2-.4-1.3c-.4-1.4-.3-3 .5-4.3.8-1.3 2-2.2 3.5-2.6l1.3-.3.4-1.7-2 .5c-1.9.4-3.5 1.6-4.5 3.3-1 1.7-1.2 3.7-.7 5.5l.6 2.1z"/><linearGradient id="Path_6885_1_" gradientUnits="userSpaceOnUse" x1="-209.325" y1="285.897" x2="-209.909" y2="287.109" gradientTransform="matrix(7.4527 0 0 -11.287 1539.822 3246.925)"><stop offset="0" stop-color="#fff"/><stop offset="1" stop-color="#1e754a"/></linearGradient><path id="Path_6885" class="st12" d="M-25.6 11.9l1.3.3c2.9.7 4.7 3.6 4 6.6 0 .1-.1.2-.1.3l-.4 1.3 1.3 1.2.6-2c.6-1.8.3-3.8-.7-5.5-1-1.7-2.6-2.9-4.5-3.3l-2-.5.5 1.6z"/></g></g><g id="Group_3972" transform="translate(91.847 11.586)"><path id="Path_6886" class="st0" d="M-66.7 32.5L-52.2 18c.9-.8.9-2.2 0-3.1l-4.6-4.6-10.8 10.8c-.8.8-1.3 1.9-1.3 3v7.4c0 .8.7 1.3 1.4 1.3.3 0 .6-.1.8-.3z"/><linearGradient id="Path_6887_1_" gradientUnits="userSpaceOnUse" x1="-234.901" y1="285.786" x2="-234.65" y2="285.943" gradientTransform="matrix(17.4009 0 0 -22.5696 4025.293 6471.799)"><stop offset="0" stop-color="#fff"/><stop offset=".664" stop-color="#1e754a"/></linearGradient><path id="Path_6887" class="st13" d="M-66.7 32.5L-52.2 18c.9-.8.9-2.2 0-3.1l-4.6-4.6-10.8 10.8c-.8.8-1.3 1.9-1.3 3v7.4c0 .8.7 1.3 1.4 1.3.3 0 .6-.1.8-.3z"/><g id="Group_3970"><path id="Path_6888" class="st14" d="M-69 1.4v7.4c0 1.1.4 2.2 1.3 3l10.8 10.8 4.6-4.6c.9-.8.9-2.2 0-3.1L-66.7.4c-.5-.5-1.4-.6-1.9 0-.2.2-.4.6-.4 1z"/></g><g id="Group_3971"><linearGradient id="Path_6889_1_" gradientUnits="userSpaceOnUse" x1="-235.993" y1="287.362" x2="-234.777" y2="285.723" gradientTransform="matrix(17.4004 0 0 -22.6037 4025.153 6471.658)"><stop offset="0" stop-color="#fff"/><stop offset="1" stop-color="#00665e"/></linearGradient><path id="Path_6889" class="st15" d="M-69 1.4v7.4c0 1.1.4 2.2 1.3 3l10.8 10.8 4.6-4.6c.9-.8.9-2.2 0-3.1L-66.7.4c-.5-.5-1.4-.6-1.9 0-.2.2-.4.6-.4 1z"/></g></g></svg>