<?xml version="1.0" encoding="UTF-8"?>
<svg width="50px" height="40px" viewBox="0 0 50 40" version="1.1" xmlns="http://www.w3.org/2000/svg" xmlns:xlink="http://www.w3.org/1999/xlink">
    <title>396321D5-EEFA-4276-B4A7-E5EF3A0F951F</title>
    <g id="Sprint-3" stroke="none" stroke-width="1" fill="none" fill-rule="evenodd">
        <g id="No-Photo-Preview" transform="translate(-504.000000, -715.000000)">
            <g id="Group-6" transform="translate(99.000000, 579.000000)">
                <g id="Group-2" style="mix-blend-mode: luminosity;" transform="translate(405.000000, 136.394286)">
                    <g id="gallery" fill="#A7A9AC" fill-rule="nonzero">
                        <path d="M23,14.04 C20.7909128,14.04 19,15.8359383 19,18.0514286 C19,20.2668274 20.7908217,22.0628571 23,22.0628571 C25.2090872,22.0628571 27,20.2669188 27,18.0514286 C27,15.8359383 25.2091783,14.04 23,14.04 Z M23,20.1525704 C21.84282,20.1525704 20.9047532,19.2118234 20.9047532,18.0513372 C20.9047532,16.890851 21.84282,15.950104 23,15.950104 L23,15.950104 C24.15718,15.950104 25.0952468,16.890851 25.0952468,18.0513372 C25.0952468,19.2118234 24.15718,20.1525704 23,20.1525704 Z" id="Shape"></path>
                        <path d="M41.0949859,3.40014358 L11.2585181,0.040479967 C10.1005464,-0.122778671 8.92730382,0.212451264 8.03448055,0.961739954 C7.14176187,1.64817303 6.5695224,2.66568716 6.44976108,3.77955915 L5.90335658,8.22311906 L4.20923069,8.22311906 C1.80479988,8.22311906 0.00147676855,10.3364575 0.00147676855,12.7208219 L0.00147676855,34.8842711 C-0.0590837605,37.157964 1.75051505,39.0499594 4.04344755,39.1100145 C4.09867373,39.1114286 4.15400451,39.1114286 4.20923069,39.1114286 L34.2095989,39.1114286 C36.6140297,39.1114286 38.7998569,37.2686355 38.7998569,34.8842711 L38.7998569,34.0172578 C39.5453057,33.8744324 40.2524728,33.5791355 40.8763822,33.1502445 C41.7617793,32.4110168 42.3286844,31.3641493 42.4611017,30.2240356 L44.9748343,8.22311906 C45.2310922,5.83325739 43.5016132,3.68340873 41.0949859,3.40014358 Z M36.6141343,34.8842711 C36.6141343,36.0764533 35.4118143,36.9434666 34.2095989,36.9434666 L4.20923069,36.9434666 C3.12322038,36.9751018 2.21700894,36.127692 2.18510745,35.0507451 C2.18343393,34.9952538 2.18423431,34.9397624 2.18730395,34.8842711 L2.18730395,30.8742697 L10.6574104,24.6966831 C11.674911,23.9219825 13.1080722,23.990854 14.045453,24.8592157 L20.0018268,30.0613993 C20.9063647,30.8145257 22.0449864,31.2355339 23.225969,31.2535815 C24.149334,31.2647835 25.0575327,31.0209328 25.8490034,30.5491008 L36.6141343,24.3715143 L36.6141343,34.8842711 L36.6141343,34.8842711 Z M36.6140297,21.8246173 L24.701282,28.7066845 C23.6783425,29.3076506 22.3835605,29.1988461 21.4771399,28.4357623 L15.4661674,23.1793321 C13.7433825,21.7113527 11.2253615,21.6213219 9.40049179,22.9625528 L2.18730395,28.1647364 L2.18730395,12.7208219 C2.18730395,11.5286397 3.00701529,10.3907042 4.20923069,10.3907042 L34.2095989,10.3907042 C35.494026,10.4434988 36.531295,11.4487737 36.6140297,12.7208219 L36.6140297,21.8246173 L36.6140297,21.8246173 Z M42.7910991,7.93051892 C42.7903669,7.93767575 42.7897393,7.9449363 42.7889026,7.95209312 L40.2205713,29.9530097 C40.2249643,30.5234814 39.9626399,31.06377 39.5101618,31.4161141 C39.2915582,31.6328934 38.7997523,31.741283 38.7997523,31.8496726 L38.7997523,12.7208219 C38.7134614,10.2521314 36.6997976,8.27902529 34.2094943,8.22311906 L8.08907916,8.22311906 L8.58088505,3.99633841 C8.68757199,3.44899671 8.97614971,2.95299747 9.40059639,2.58737695 C9.87985087,2.25878523 10.4593074,2.10558764 11.0400191,2.15381843 L40.8218882,5.56772873 C42.023476,5.68088957 42.9052122,6.73875161 42.7910991,7.93051892 Z" id="Shape"></path>
                    </g>
                    <g id="Group" transform="translate(30.000000, 0.000000)">
                        <path d="M10,20.0571429 C15.5230035,20.0571429 20,15.5673549 20,10.0285714 C20,4.48978795 15.5230035,0 10,0 C4.47699653,0 0,4.48978795 0,10.0285714 C0.00651041667,15.5646345 4.47970917,20.0506138 10,20.0571429 Z M10,2.00571429 C14.4185269,2.00571429 18,5.59742021 18,10.0285714 C18,14.4597226 14.4185269,18.0514286 10,18.0514286 C5.58147314,18.0514286 2,14.4597226 2,10.0285714 C2.00502229,5.59965887 5.58370543,2.01075092 10,2.00571429 Z" id="Shape" fill="#A7A9AC" fill-rule="nonzero"></path>
                        <line x1="16.5333333" y1="4.51285714" x2="3.46666667" y2="14.5414286" id="Line-7" stroke="#A7A9AC" stroke-width="2" stroke-linecap="square"></line>
                    </g>
                </g>
            </g>
        </g>
    </g>
</svg>