<?xml version="1.0" encoding="UTF-8"?>
<svg width="23px" height="23px" viewBox="0 0 27 28" version="1.1" xmlns="http://www.w3.org/2000/svg" xmlns:xlink="http://www.w3.org/1999/xlink">
    <title>909C3596-4088-4B13-9E96-6E1E98C73B86</title>
    <g id="Sprint-3" stroke="none" stroke-width="1" fill="none" fill-rule="evenodd">
        <g id="2.-Primary-Awarding" transform="translate(-1265.000000, -947.000000)" fill="#32AD71">
            <g id="Cards/Moniter-Auction" transform="translate(1059.000000, 536.000000)">
                <g id="Cards/tiny-card-Copy-6" transform="translate(160.200000, 382.800000)">
                    <g id="Group-24" transform="translate(6.199496, 29.136954)">
                        <g id="Icons/auction" transform="translate(39.662500, 0.000000)">
                            <path d="M21.25,0 C24.3566017,0 26.875,2.51839828 26.875,5.625 L26.875,5.625 L26.875,21.25 C26.875,24.3566017 24.3566017,26.875 21.25,26.875 L21.25,26.875 L5.625,26.875 C2.51839828,26.875 0,24.3566017 0,21.25 L0,21.25 L0,5.625 C0,2.51839828 2.51839828,0 5.625,0 L5.625,0 Z M21.25,1.875 L5.625,1.875 C3.55393219,1.875 1.875,3.55393219 1.875,5.625 L1.875,5.625 L1.875,21.25 C1.875,23.3210678 3.55393219,25 5.625,25 L5.625,25 L21.25,25 C23.3210678,25 25,23.3210678 25,21.25 L25,21.25 L25,5.625 C25,3.55393219 23.3210678,1.875 21.25,1.875 L21.25,1.875 Z M20.3173829,8.05562703 C20.6582643,8.36484898 20.7189534,8.8676629 20.4839079,9.24492019 L20.381873,9.37988286 L11.8775791,18.7548829 C11.5427226,19.1240234 10.9870944,19.1609375 10.6080836,18.865625 L10.4888331,18.7548829 L6.49312703,14.3500792 C6.14525233,13.9665876 6.17412553,13.3736981 6.55761714,13.0258234 C6.89849856,12.7166014 7.4048302,12.7050568 7.75746346,12.9756473 L7.88187297,13.0903135 L11.1828125,16.728125 L18.993127,8.12011714 C19.3410017,7.73662553 19.9338913,7.70775233 20.3173829,8.05562703 Z" id="Combined-Shape"></path>
                        </g>
                    </g>
                </g>
            </g>
        </g>
    </g>
</svg>