<?xml version="1.0" encoding="UTF-8"?><svg version="1.1" width="33px" height="34px" viewBox="0 0 25.0 26.0" xmlns="http://www.w3.org/2000/svg" xmlns:xlink="http://www.w3.org/1999/xlink"><defs><clipPath id="i0"><path d="M6.6125,0 C10.2642831,0 13.225,2.9607169 13.225,6.6125 C13.225,10.2642831 10.2642831,13.225 6.6125,13.225 C2.9607169,13.225 0,10.2642831 0,6.6125 C0,2.9607169 2.9607169,0 6.6125,0 Z M6.6125,1.725 C3.9134081,1.725 1.725,3.9134081 1.725,6.6125 C1.725,9.3115919 3.9134081,11.5 6.6125,11.5 C9.3115919,11.5 11.5,9.3115919 11.5,6.6125 C11.5,3.9134081 9.3115919,1.725 6.6125,1.725 Z"></path></clipPath><clipPath id="i1"><path d="M12.3630156,0 C14.4107231,0 16.3876063,0.5888088 18.1610937,1.69759606 C18.5649973,1.95011728 18.687717,2.48225479 18.4351958,2.88615844 C18.1826746,3.29006208 17.6505371,3.41278178 17.2466334,3.16026055 C15.7424143,2.21982028 14.0810908,1.725 12.3630156,1.725 C7.20099777,1.725 2.73200821,6.24919393 1.71391725,12.5011271 C1.63735564,12.9712796 1.19415622,13.2903482 0.724003638,13.2137865 C0.25385106,13.1372249 -0.0652174589,12.6940255 0.0113441548,12.2238729 C1.15637462,5.19242469 6.28544116,0 12.3630156,0 Z"></path></clipPath><clipPath id="i2"><path d="M0.8625,0 C1.29121104,0 1.64686721,0.312785067 1.71371133,0.72259802 L1.725,0.8625 L1.725,7.86173513 C1.725,8.33808072 1.3388456,8.72423513 0.8625,8.72423513 C0.433788963,8.72423513 0.0781327926,8.41145006 0.0112886689,8.00163711 L0,7.86173513 L0,0.8625 C0,0.386154403 0.386154403,0 0.8625,0 Z"></path></clipPath><clipPath id="i3"><path d="M8.05,0 C8.5263456,0 8.9125,0.386154403 8.9125,0.8625 C8.9125,1.29121104 8.59971493,1.64686721 8.18990198,1.71371133 L8.05,1.725 L0.8625,1.725 C0.386154403,1.725 0,1.3388456 0,0.8625 C0,0.433788963 0.312785067,0.0781327926 0.72259802,0.0112886689 L0.8625,0 L8.05,0 Z"></path></clipPath></defs><g transform="translate(-213.0 -801.0)"><g transform="translate(30.799999999999272 697.599999999999)"><g transform="translate(9.73012048192686 104.0)"><g transform="translate(146.0 1.0)"><g transform="translate(27.523076923076587 0.0)"><g transform="translate(4.887499999999999 -0.8624999999999998)"><g clip-path="url(#i0)"><polygon points="0,0 13.225,0 13.225,13.225 0,13.225 0,0" stroke="none" fill="#31AD71"></polygon></g></g><g transform="translate(-0.8626307028827771 10.6375)"><g clip-path="url(#i1)"><polygon points="0,0 18.5664789,0 18.5664789,13.2251307 0,13.2251307 0,0" stroke="none" fill="#31AD71"></polygon></g></g><g transform="translate(17.825 15.138264872880871)"><g clip-path="url(#i2)"><polygon points="0,0 1.725,0 1.725,8.72423513 0,8.72423513 0,0" stroke="none" fill="#31AD71"></polygon></g></g><g transform="translate(14.23125 18.543749999999356)"><g clip-path="url(#i3)"><polygon points="0,0 8.9125,0 8.9125,1.725 0,1.725 0,0" stroke="none" fill="#31AD71"></polygon></g></g></g></g></g></g></g></svg>