<?xml version="1.0" encoding="UTF-8"?>
<svg width="23px" height="23px" viewBox="0 0 24 24" version="1.1" xmlns="http://www.w3.org/2000/svg" xmlns:xlink="http://www.w3.org/1999/xlink">
    <title>D6797A96-1F5C-45E2-B180-9A762E4E186A</title>
    <g id="Sprint-3" stroke="none" stroke-width="1" fill="none" fill-rule="evenodd">
        <g id="4.-Auction-Instructions" transform="translate(-1142.000000, -601.000000)" fill="#414042">
            <g id="Cards/Moniter-Auction" transform="translate(1062.469880, 448.000000)">
                <g id="Cards/tiny-card-Copy-3" transform="translate(30.800000, 124.600000)">
                    <g id="Group-24" transform="translate(6.199496, 29.049567)">
                        <g id="Icons/auction" transform="translate(42.575196, 0.000000)">
                            <path d="M16.5001118,1.9921651 L9.04386179,1.9921651 C8.52609484,1.9921651 8.10636179,2.41189815 8.10636179,2.9296651 L8.10636179,5.3309151 L8.11863209,5.48298247 C8.19128874,5.92843133 8.57787154,6.2684151 9.04386179,6.2684151 L9.7935543,6.26707459 L9.7935543,13.3311371 L6.60559987,17.5765149 C6.14131361,18.1944462 6.58219475,19.0771651 7.35511179,19.0771651 L18.1882368,19.0771651 L18.3291211,19.0671018 C19.0126913,18.9678689 19.372994,18.155902 18.9377988,17.5765815 L15.7482418,13.3311371 L15.7482418,6.26707459 L16.5001118,6.2684151 C17.0178787,6.2684151 17.4376118,5.84868205 17.4376118,5.3309151 L17.4376118,2.9296651 C17.4376118,2.41189815 17.0178787,1.9921651 16.5001118,1.9921651 Z M15.5623043,3.86707459 L15.5623043,4.39207459 L14.8119868,4.3934151 C14.2942198,4.3934151 13.8744868,4.81314815 13.8744868,5.3309151 L13.8744868,13.6452901 L13.886698,13.7961183 C13.9109655,13.9449876 13.9709365,14.0865868 14.0624248,14.2083737 L16.3107418,17.2014496 L9.2310543,17.2014496 L11.4814987,14.2084403 C11.6035147,14.0460459 11.6694868,13.8484153 11.6694868,13.6452901 L11.6694868,5.3309151 L11.6572165,5.17884773 C11.5845598,4.73339887 11.1979771,4.3934151 10.7319868,4.3934151 L9.9810543,4.39207459 L9.9810543,3.86707459 L15.5623043,3.86707459 Z" id="Stroke-1" transform="translate(12.771674, 10.534665) rotate(-315.000000) translate(-12.771674, -10.534665) "></path>
                            <path d="M4.36019719,13.7181877 C4.82618745,13.7181877 5.21277024,14.0581715 5.2854269,14.5036203 L5.29769719,14.6556877 L5.29769719,23.2381877 C5.29769719,23.7559547 4.87796414,24.1756877 4.36019719,24.1756877 C3.89420693,24.1756877 3.50762414,23.8357039 3.43496748,23.3902551 L3.42269719,23.2381877 L3.42269719,14.6556877 C3.42269719,14.1379207 3.84243024,13.7181877 4.36019719,13.7181877 Z" id="Stroke-3" transform="translate(4.360197, 18.946938) rotate(-315.000000) translate(-4.360197, -18.946938) "></path>
                            <path d="M12.6122187,11.7967975 C13.1299856,11.7967975 13.5497187,12.2165306 13.5497187,12.7342975 C13.5497187,13.2002878 13.2097349,13.5868706 12.764286,13.6595272 L12.6122187,13.6717975 L8.53221865,13.6717975 C8.0144517,13.6717975 7.59471865,13.2520645 7.59471865,12.7342975 C7.59471865,12.2683073 7.93470242,11.8817245 8.38015128,11.8090678 L8.53221865,11.7967975 L12.6122187,11.7967975 Z" id="Stroke-6" transform="translate(10.572219, 12.734298) rotate(-315.000000) translate(-10.572219, -12.734298) "></path>
                        </g>
                    </g>
                </g>
            </g>
        </g>
    </g>
</svg>