<?xml version="1.0" encoding="UTF-8"?>
<svg width="51px" height="18px" viewBox="0 0 51 18" version="1.1" xmlns="http://www.w3.org/2000/svg" xmlns:xlink="http://www.w3.org/1999/xlink">
    <title>3C5F4710-78AB-46D0-8133-21D5E5CBA2DB</title>
    <g id="Sprint-3" stroke="none" stroke-width="1" fill="none" fill-rule="evenodd">
        <g id="Invoice---Delivery-address-for-each-product" transform="translate(-1057.000000, -675.000000)" fill-rule="nonzero">
            <g id="Group-7" transform="translate(291.000000, 288.000000)">
                <g id="Group-24-Copy" transform="translate(0.000000, 67.000000)">
                    <g id="Group-5" transform="translate(48.000000, 48.000000)">
                        <g id="Group-4" transform="translate(417.879949, 217.000000)">
                            <g id="Group-Copy-2" transform="translate(294.120051, 32.000000)">
                                <g id="Sadad-01-Copy" transform="translate(6.000000, 23.000000)">
                                    <path d="M20.6373874,0 L18.0274024,0 C16.7957958,3.3828892 14.7218468,9 13.5795796,12.0799439 C13.4647147,12.3765778 13.3243243,12.6605891 13.152027,12.9319776 L14.957958,12.9319776 C15.4493243,12.9004208 15.8896396,12.6290323 16.1257508,12.1998597 C16.164039,12.1367461 16.2023273,12.0673212 16.2278529,11.9978962 L17.3190691,9.05049088 L17.3190691,9.05049088 C18.6719219,5.38359046 20.5033784,0.403927069 20.6373874,0" id="Path_13" fill="#929497"></path>
                                    <path d="M48.3772523,6.46914446 L47.286036,9.42286115 C47.0818318,9.94670407 46.5904655,10.3064516 46.0225225,10.3443198 L44.2165916,10.3443198 C44.4016517,10.0539972 44.5611862,9.74474053 44.6760511,9.42286115 L45.7672673,6.46914446 L43.1509009,6.46914446 L42.0660661,9.42286115 C41.8618619,9.94670407 41.3641141,10.3064516 40.8025526,10.3443198 L38.9838589,10.3443198 C39.1689189,10.0539972 39.3220721,9.74474053 39.4433183,9.42286115 L40.5345345,6.46914446 L37.9181682,6.46914446 L36.8333333,9.42286115 C36.6291291,9.94670407 36.1377628,10.3064516 35.5698198,10.3443198 L27.2102102,10.3443198 C27.4016517,10.0603086 27.5548048,9.75736325 27.6760511,9.44179523 L27.9504505,8.68443198 C28.6651652,6.74053296 27.6505255,5.17531557 25.6914414,5.17531557 L22.7177177,5.17531557 L21.7668919,7.75666199 L24.7533784,7.75666199 C25.2702703,7.75666199 25.5382883,8.16690042 25.3468468,8.67812062 L25.0596847,9.43548387 C24.8554805,9.95301543 24.3641141,10.3064516 23.8025526,10.3380084 L19.5015015,10.3380084 L18.5506757,12.9256662 L45.0908408,12.9256662 C47.0563063,12.9256662 49.1876877,11.3667602 49.9024024,9.43548387 L51,6.4628331 L48.3772523,6.46914446 Z" id="Path_14" fill="#ED7624"></path>
                                    <path d="M6.91103604,12.9319776 L0,12.9319776 L0.950825826,10.3443198 L7.86824324,10.3443198 C8.43618619,10.3064516 8.93393393,9.94670407 9.14451952,9.42286115 L9.41253754,8.69074334 C9.5975976,8.17952314 9.33596096,7.76928471 8.81906907,7.76928471 L4.5243994,7.76928471 L5.47522523,5.18162693 L9.76351351,5.18162693 C11.728979,5.18162693 12.7308559,6.75315568 12.0225225,8.69074334 L11.7545045,9.42286115 C11.0397898,11.3667602 8.87012012,12.9256662 6.91103604,12.9319776" id="Path_15" fill="#ED7624"></path>
                                    <polygon id="Path_16" fill="#929497" points="18.5379129 15.8793829 18.2188438 15.8793829 18.0975976 16.2012623 18.4166667 16.2012623"></polygon>
                                    <path d="M19.2207207,16.8323983 C19.1824324,16.9586255 19.0930931,17.0659187 18.9782282,17.1353436 C18.8761261,17.1795231 18.7612613,17.1984572 18.6463964,17.1921459 L17.8423423,17.1921459 C17.7147147,17.2047686 17.5807057,17.1732118 17.4722222,17.0974755 C17.3892643,17.0217391 17.3828829,16.8892006 17.4530781,16.6998597 L17.6381381,16.213885 L17.3126877,16.213885 L17.1276276,16.6998597 C16.9234234,17.2489481 17.1276276,17.526648 17.7593844,17.526648 L18.8250751,17.526648 C19.1122372,17.526648 19.3674925,17.3373072 19.4504505,17.0596073 L19.7695195,16.2012623 L19.4504505,16.2012623 L19.2207207,16.8323983 Z" id="Path_17" fill="#929497"></path>
                                    <polygon id="Path_18" fill="#929497" points="19.0994745 15.8793829 18.774024 15.8793829 18.6591592 16.2012623 18.9782282 16.2012623"></polygon>
                                    <path d="M21.3074324,16.8828892 C21.3457207,16.7755961 21.4095345,16.6809257 21.4924925,16.598878 C21.5690691,16.5168303 21.6775526,16.4726508 21.7924174,16.4726508 C21.9455706,16.4726508 22.0221471,16.5483871 22.0221471,16.6998597 L22.353979,16.5673212 C22.3475976,16.3527349 22.1689189,16.1823282 21.951952,16.1886396 C21.9391892,16.1886396 21.9264264,16.1886396 21.9136637,16.1886396 C21.7094595,16.1886396 21.5116366,16.2643759 21.3521021,16.3906031 C21.1861862,16.5168303 21.0521772,16.6809257 20.9756006,16.8765778 C20.9373123,16.9712482 20.9181682,17.0785414 20.9245495,17.1858345 L20.3948949,17.1858345 C20.3119369,17.1984572 20.2225976,17.1795231 20.1524024,17.1353436 C20.1077327,17.0911641 20.1077327,16.9964937 20.1524024,16.8576438 L20.6054805,15.6395512 L20.2864114,15.6395512 L19.795045,16.983871 C19.7376126,17.1037868 19.7312312,17.2363254 19.7759009,17.3625526 C19.8397147,17.4698457 19.960961,17.5329593 20.0885886,17.5140252 L22.0093844,17.5140252 L22.1306306,17.1795231 L21.2946697,17.1795231 C21.25,17.0785414 21.25,16.9649369 21.2946697,16.8702665" id="Path_19" fill="#929497"></path>
                                    <polygon id="Path_20" fill="#929497" points="25.8063063 15.6079944 25.4872372 15.6079944 25.365991 15.9298738 25.6850601 15.9298738"></polygon>
                                    <path d="M25.4361862,16.1760168 C25.0213964,16.1949509 24.6576577,16.4600281 24.5236486,16.845021 C24.478979,16.9523142 24.4662162,17.07223 24.478979,17.1921459 L23.6749249,17.1921459 L23.8025526,16.8513324 C23.9429429,16.4726508 23.8025526,16.1949509 23.4324324,16.1949509 C23.0304054,16.2075736 22.673048,16.4663394 22.5326577,16.8387097 C22.3922673,17.2237027 22.5709459,17.5140252 22.9283033,17.5140252 L23.240991,17.5140252 C23.158033,17.6591865 22.9984985,17.7412342 22.8325826,17.7412342 L22.7368619,17.9936886 C23.0878378,18.0126227 23.4069069,17.8232819 23.5536787,17.5077139 L24.9384384,17.5077139 C25.3532282,17.4887798 25.7105856,17.2237027 25.8445946,16.8387097 C25.984985,16.4600281 25.8318318,16.1570827 25.4361862,16.1570827 M23.3430931,17.1795231 L23.0495495,17.1795231 C22.8708709,17.1795231 22.8070571,17.0154278 22.8708709,16.8197756 C22.9346847,16.6304348 23.106982,16.5042076 23.3111862,16.4915849 C23.4834835,16.4915849 23.5409159,16.6115007 23.4898649,16.7882188 L23.3430931,17.1795231 Z M25.0533033,17.2110799 C24.8554805,17.2110799 24.7852853,17.0406732 24.8618619,16.8323983 C24.9192943,16.6304348 25.097973,16.4789621 25.3149399,16.4600281 C25.5127628,16.4600281 25.5893393,16.6241234 25.5063814,16.845021 C25.4425676,17.0469846 25.2638889,17.1921459 25.0533033,17.2110799" id="Path_21" fill="#929497"></path>
                                    <path d="M31.4793544,16.8892006 C31.4538288,16.9649369 31.4219219,17.0343619 31.3772523,17.0974755 C31.3134384,17.1669004 31.2240991,17.1984572 31.1347598,17.1921459 L30.3945195,17.1921459 C30.4838589,17.0974755 30.5540541,16.9775596 30.585961,16.8513324 L31.0326577,15.6332398 L30.7072072,15.6332398 L30.2541291,16.8513324 C30.2286036,16.9333801 30.1903153,17.0091164 30.1392643,17.07223 C30.0754505,17.141655 29.9861111,17.1795231 29.8967718,17.1732118 L29.4054054,17.1732118 L29.4373123,17.0911641 C29.5075075,16.9396914 29.5075075,16.756662 29.4373123,16.6051893 C29.3543544,16.4663394 29.1948198,16.3906031 29.0352853,16.4095372 C28.8374625,16.4095372 28.6396396,16.4789621 28.4864865,16.598878 C28.3205706,16.7251052 28.1993243,16.8892006 28.1291291,17.0848527 C28.1291291,17.1164095 28.1036036,17.1479663 28.0972222,17.1795231 L27.4144144,17.1795231 C27.5994745,16.6809257 27.5165165,16.3653576 27.1719219,16.2328191 C27.1208709,16.213885 27.0634384,16.1949509 27.0123874,16.1886396 L26.7060811,16.1886396 L26.5975976,16.4852735 C26.6933183,16.4852735 26.789039,16.4915849 26.8847598,16.5105189 C27.1591592,16.5736325 27.2293544,16.7945302 27.088964,17.1795231 L26.0232733,17.1795231 L25.902027,17.5077139 L28.1163664,17.5077139 C28.1865616,17.6781206 28.3652402,17.772791 28.5503003,17.7475456 C28.78003,17.7475456 29.0097598,17.6591865 29.1756757,17.5077139 L31.1092342,17.5077139 C31.4346847,17.5140252 31.7218468,17.2931276 31.7984234,16.9775596 L32.2897898,15.6269285 L31.957958,15.6269285 L31.4793544,16.8892006 Z M28.914039,17.3751753 C28.8374625,17.4446003 28.7417417,17.4824684 28.6396396,17.4824684 C28.4354354,17.4824684 28.3716216,17.3120617 28.4481982,17.1037868 C28.4864865,17.0091164 28.5439189,16.9207574 28.6204955,16.8513324 C28.6970721,16.7755961 28.7991742,16.7377279 28.9012763,16.7377279 C28.9906156,16.7314165 29.0735736,16.7755961 29.1054805,16.8576438 C29.131006,16.9460028 29.1246246,17.0406732 29.0863363,17.1227209 C29.0544294,17.2110799 28.996997,17.299439 28.914039,17.3751753" id="Path_22" fill="#929497"></path>
                                    <path d="M33.8340841,16.2517532 C33.783033,16.2328191 33.7256006,16.213885 33.6745495,16.2075736 L33.3682432,16.2075736 L33.2597598,16.5042076 C33.3554805,16.5042076 33.4512012,16.5105189 33.5469219,16.529453 C33.8213213,16.5925666 33.8915165,16.8134642 33.7511261,17.1984572 L32.6918168,17.1984572 L32.5705706,17.526648 L33.9680931,17.526648 L34.0893393,17.1984572 C34.2616366,16.6998597 34.1786787,16.3842917 33.8340841,16.2517532" id="Path_23" fill="#929497"></path>
                                    <polygon id="Path_24" fill="#929497" points="34.2616366 17.526648 34.5870871 17.526648 35.2826577 15.6458626 34.9572072 15.6458626"></polygon>
                                    <path d="M39.0412913,16.8702665 C38.9647147,17.0848527 38.8370871,17.1921459 38.6711712,17.1921459 L38.3584835,17.1921459 C38.4542042,17.0911641 38.5243994,16.9712482 38.5563063,16.8387097 L38.7987988,16.2012623 L38.4733483,16.2012623 L38.2308559,16.8702665 C38.1542793,17.0848527 38.0266517,17.1921459 37.8607357,17.1921459 L37.5544294,17.1921459 L37.5544294,17.1732118 C37.6373874,17.07223 37.6948198,16.9586255 37.7331081,16.8323983 L37.9756006,16.1949509 L37.6246246,16.1949509 L37.3821321,16.8387097 C37.2991742,17.07223 37.1715465,17.1795231 37.0056306,17.1795231 L36.3993994,17.1795231 C36.5780781,16.6935484 36.5015015,16.3653576 36.1569069,16.2328191 C36.1058559,16.213885 36.0484234,16.1949509 35.9973724,16.1886396 L35.6910661,16.1886396 L35.5825826,16.4852735 C35.6783033,16.4852735 35.774024,16.4915849 35.8697447,16.5105189 C36.1441441,16.5736325 36.2143393,16.7945302 36.0739489,17.1795231 L35.0082583,17.1795231 L34.887012,17.5077139 L38.5882132,17.5077139 C38.9838589,17.4635344 39.3093093,17.1921459 39.4114114,16.8134642 L39.6475225,16.1886396 L39.3029279,16.1886396 L39.0412913,16.8702665 Z" id="Path_25" fill="#929497"></path>
                                    <path d="M42.0469219,16.2012623 L41.2173423,16.2012623 C40.7578829,16.2201964 40.3622372,16.5357644 40.2346096,16.9775596 L39.8708709,18 L40.2027027,18 L40.5600601,17.0280505 C40.6749249,16.7124825 40.8918919,16.5168303 41.1088589,16.5168303 L41.3513514,16.5168303 C41.262012,16.6178121 41.1854354,16.7314165 41.1407658,16.8576438 C41.0003754,17.2363254 41.1599099,17.5329593 41.5555556,17.5329593 C41.963964,17.5140252 42.3213213,17.2489481 42.4617117,16.8639551 C42.6021021,16.4789621 42.4489489,16.1823282 42.0533033,16.1823282 M41.6768018,17.2363254 C41.478979,17.2363254 41.4024024,17.0659187 41.4853604,16.8576438 C41.5427928,16.6556802 41.7214715,16.5042076 41.9384384,16.4852735 C42.1426426,16.4852735 42.2064565,16.6493689 42.1298799,16.8702665 C42.0660661,17.07223 41.8873874,17.2173913 41.6768018,17.2363254" id="Path_26" fill="#929497"></path>
                                    <polygon id="Path_27" fill="#929497" points="45.8502252 15.6143058 45.5311562 15.6143058 45.4099099 15.9361851 45.728979 15.9361851"></polygon>
                                    <polygon id="Path_28" fill="#929497" points="47.585961 15.6143058 47.2668919 15.6143058 47.152027 15.9361851 47.4710961 15.9361851"></polygon>
                                    <path d="M47.0435435,16.2012623 L46.8010511,16.8828892 C46.7755255,16.9586255 46.7436186,17.0280505 46.6989489,17.0911641 C46.6351351,17.1605891 46.5457958,17.1921459 46.4564565,17.1858345 L45.9268018,17.1858345 C46.1692943,16.5231417 46.0289039,16.1886396 45.5311562,16.1886396 C45.2184685,16.1886396 44.8802553,16.3464236 44.4782282,16.6935484 L44.9057808,15.6395512 L44.5803303,15.6395512 L44.0123874,17.1858345 L43.335961,17.1858345 C43.253003,17.1984572 43.1636637,17.1795231 43.0934685,17.1353436 C43.0487988,17.0911641 43.0487988,16.9964937 43.0934685,16.8576438 L43.5465465,15.6395512 L43.2274775,15.6395512 L42.7361111,16.983871 C42.6786787,17.1037868 42.6659159,17.2363254 42.716967,17.3625526 C42.7807808,17.4698457 42.902027,17.5329593 43.0296547,17.5140252 L46.4054054,17.5140252 C46.7308559,17.5203366 47.018018,17.299439 47.0945946,16.983871 L47.3881381,16.1886396 L47.0435435,16.2012623 Z M45.5694444,17.1921459 L44.2612613,17.1921459 C44.6058559,16.7882188 45.0589339,16.4852735 45.3843844,16.4852735 C45.6651652,16.4852735 45.7481231,16.7251052 45.6141141,17.0974755 C45.6077327,17.1290323 45.59497,17.1605891 45.5758258,17.1921459" id="Path_29" fill="#929497"></path>
                                </g>
                            </g>
                        </g>
                    </g>
                </g>
            </g>
        </g>
    </g>
</svg>