<?xml version="1.0" encoding="utf-8"?>
<!-- Generator: Adobe Illustrator 21.0.0, SVG Export Plug-In . SVG Version: 6.00 Build 0)  -->
<svg version="1.1" id="Layer_1" xmlns="http://www.w3.org/2000/svg" xmlns:xlink="http://www.w3.org/1999/xlink" x="0px" y="0px"
	 viewBox="0 0 490 1000" style="enable-background:new 0 0 490 1000;" xml:space="preserve">
<style type="text/css">
	.st0{opacity:0.5;fill:#FFFFFF;}
</style>
<path d="M256-86L256-86L256-86z"/>
<path class="st0" d="M475.9,662.2c0,11.1-2.9,20.7-8.5,28.9L265.8,977.9C260,986,253.3,990,245.5,990c-7.8,0-14.6-4.1-20.3-12.1
	L23.5,691c-5.7-8.2-8.5-17.7-8.5-28.9c0-11.2,2.9-20.7,8.5-28.9c5.7-8.2,12.5-12.1,20.3-12.1h403.3c7.8,0,14.6,4.1,20.3,12.1
	C473.1,641.5,475.9,651.1,475.9,662.2z M475.9,341.8c0,11.1-2.9,20.7-8.5,28.9c-5.7,8.2-12.5,12.1-20.3,12.1H43.8
	c-7.8,0-14.6-4.1-20.3-12.1c-5.7-8.2-8.5-17.7-8.5-28.9c0-11.1,2.9-20.7,8.5-28.9L225.2,26.1C230.9,18,237.6,14,245.5,14
	c7.8,0,14.6,4.1,20.3,12.1L467.4,313C473.1,321.1,475.9,330.8,475.9,341.8z"/>
</svg>
