<?xml version="1.0" encoding="UTF-8"?>
<svg width="40px" height="40px" viewBox="0 0 40 40" version="1.1" xmlns="http://www.w3.org/2000/svg" xmlns:xlink="http://www.w3.org/1999/xlink">
    <title>9E025793-3EAF-4BE9-8C1B-D01BC65BC516</title>
    <defs>
        <linearGradient x1="50%" y1="0%" x2="50%" y2="100%" id="linearGradient-1">
            <stop stop-color="#FFFFFF" offset="0%"></stop>
            <stop stop-color="#33A566" offset="100%"></stop>
        </linearGradient>
    </defs>
    <g id="Auction-Moderater" stroke="none" stroke-width="1" fill="none" fill-rule="evenodd">
        <g id="3.-Assign-Pricing-Committee" transform="translate(-1107.000000, -712.000000)">
            <g id="Group" transform="translate(228.000000, 660.000000)">
                <g id="Group-5" transform="translate(688.000000, 0.000000)">
                    <g id="Group-2" transform="translate(64.000000, 52.000000)">
                        <g id="User" transform="translate(127.870817, 0.000000)">
                            <rect id="icon-fild" x="0" y="0" width="39.1291827" height="40"></rect>
                            <g fill-rule="nonzero">
                                <polygon id="Path_4512" fill="url(#linearGradient-1)" opacity="0.1" points="0 0 0 26.441 12.7430705 35 39.1291827 19.0465 39.1291827 0"></polygon>
                                <g id="Group_3225" transform="translate(0.000000, 10.000000)">
                                    <path d="M23.4736635,0 L2.94138001,0 C1.31887704,0.00286855134 0.00429356054,1.31633061 0.00142256005,2.93744947 L0.00142256005,5.14716953 C0.00142256005,5.35649966 0.171263048,5.52619527 0.380771908,5.52619527 C0.481381611,5.52619527 0.577870602,5.48626231 0.649012404,5.4151812 C0.720154207,5.34410008 0.760121256,5.2476934 0.760121256,5.14716953 L0.760121256,2.93744947 C0.760121256,2.35943719 0.989931786,1.80509878 1.39899715,1.39638237 C1.80806252,0.987665964 2.36287422,0.758051477 2.94138001,0.758051477 L23.4736635,0.758051477 C24.6783394,0.758051477 25.6549222,1.7338012 25.6549222,2.93744947 L25.6549222,22.2611292 C25.6549222,23.4647775 24.6783394,24.4405272 23.4736635,24.4405272 L21.6214903,24.4405272 L21.6214903,20.0817312 C21.6179728,16.7455448 19.6434764,13.7260292 16.5870502,12.3827709 L15.5590135,11.9303089 L16.3594406,11.1428829 C17.2217341,10.3012519 17.7066168,9.1468998 17.7037599,7.94248435 C17.7008855,5.46206616 15.6891093,3.45200613 13.2065734,3.44913422 C10.7240374,3.45200613 8.71226121,5.46206616 8.70938684,7.94248435 C8.70656415,9.1470316 9.19143143,10.301518 10.0537061,11.1433567 L10.8541332,11.9307827 L9.82657067,12.3832447 C6.77014455,13.726503 4.79564807,16.7460185 4.79213064,20.082205 L4.79213064,24.441001 L2.93995745,24.441001 C2.36145166,24.441001 1.80663996,24.2113865 1.39757459,23.8026701 C0.988509226,23.3939537 0.758698696,22.8396152 0.758698696,22.261603 L0.758698696,9.94705672 C0.758698696,9.73772659 0.588858208,9.56803098 0.379349348,9.56803098 C0.169840488,9.56803098 0,9.73772659 0,9.94705672 L0,22.2625505 C0.00287100049,23.8836694 1.31745448,25.1971314 2.93995745,25.2 L23.4722409,25.2 C25.0946359,25.1968716 26.4090673,23.8835615 26.4121984,22.2625505 L26.4121984,2.9393446 C26.4103736,1.31803928 25.0963499,0.00365350542 23.4736635,0 L23.4736635,0 Z M9.47187903,7.94248435 C9.47397006,5.88223352 11.1450377,4.21259141 13.2070475,4.21050217 C15.2690574,4.21259141 16.940125,5.88223352 16.9422161,7.94248435 C16.9398642,10.0026271 15.2689492,11.6721167 13.2070475,11.6744665 C11.1451459,11.6721167 9.47423086,10.0026271 9.47187903,7.94248435 L9.47187903,7.94248435 Z M20.8594723,24.4405272 L5.5555712,24.4405272 L5.5555712,20.0817312 C5.56027511,15.8609673 8.98362841,12.4405344 13.2079959,12.4358345 C17.4323634,12.4405344 20.8557167,15.8609673 20.8604206,20.0817312 L20.8594723,24.4405272 Z" id="Path_4853" fill="#2BAD6D"></path>
                                    <path d="M24.8659747,29.4 L2.72009918,29.4 C2.62134629,29.4 2.52663807,29.4316071 2.45680923,29.487868 C2.3869804,29.5441289 2.34775096,29.6204351 2.34775096,29.7 C2.34775096,29.8656854 2.51445694,30 2.72009918,30 L24.8659747,30 C24.9647275,30 25.0594358,29.9683929 25.1292646,29.912132 C25.1990934,29.8558711 25.2383229,29.7795649 25.2383229,29.7 C25.2383229,29.6204351 25.1990934,29.5441289 25.1292646,29.487868 C25.0594358,29.4316071 24.9647275,29.4 24.8659747,29.4 L24.8659747,29.4 Z" id="Path_4854" fill="#F9B122"></path>
                                </g>
                            </g>
                        </g>
                    </g>
                </g>
            </g>
        </g>
    </g>
</svg>